<mxfile host="app.diagrams.net" agent="Mozilla/5.0 (Windows NT 10.0; Win64; x64) AppleWebKit/537.36 (KHTML, like Gecko) Chrome/133.0.0.0 Safari/537.36 Edg/133.0.0.0" version="26.0.16">
  <diagram name="Page-1" id="d9wSrRjxU6M3m-tKCvw0">
    <mxGraphModel dx="1569" dy="1495" grid="1" gridSize="10" guides="1" tooltips="1" connect="1" arrows="1" fold="1" page="1" pageScale="1" pageWidth="850" pageHeight="1100" math="0" shadow="0">
      <root>
        <mxCell id="0" />
        <mxCell id="1" parent="0" />
        <mxCell id="Zrw1n7WmzKHaE9fEEse0-39" value="Fabirc Manager IO" style="rounded=1;whiteSpace=wrap;html=1;dashed=1;fontStyle=0" parent="1" vertex="1">
          <mxGeometry x="3160" y="1315" width="600" height="20" as="geometry" />
        </mxCell>
        <mxCell id="pMPUyEu7R3_AaXZGhj5S-2" value="" style="childLayout=tableLayout;recursiveResize=0;shadow=0;fillColor=#cce5ff;strokeColor=#36393d;glass=0;rounded=0;" parent="1" vertex="1">
          <mxGeometry y="440" width="850" height="40" as="geometry" />
        </mxCell>
        <mxCell id="pMPUyEu7R3_AaXZGhj5S-3" value="" style="shape=tableRow;horizontal=0;startSize=0;swimlaneHead=0;swimlaneBody=0;top=0;left=0;bottom=0;right=0;dropTarget=0;collapsible=0;recursiveResize=0;expand=0;fontStyle=0;fillColor=none;strokeColor=inherit;" parent="pMPUyEu7R3_AaXZGhj5S-2" vertex="1">
          <mxGeometry width="850" height="40" as="geometry" />
        </mxCell>
        <mxCell id="pMPUyEu7R3_AaXZGhj5S-21" value="NX" style="connectable=0;recursiveResize=0;strokeColor=inherit;fillColor=none;align=center;whiteSpace=wrap;html=1;" parent="pMPUyEu7R3_AaXZGhj5S-3" vertex="1">
          <mxGeometry width="20" height="40" as="geometry">
            <mxRectangle width="20" height="40" as="alternateBounds" />
          </mxGeometry>
        </mxCell>
        <mxCell id="pMPUyEu7R3_AaXZGhj5S-20" value="Protection" style="connectable=0;recursiveResize=0;strokeColor=inherit;fillColor=none;align=center;whiteSpace=wrap;html=1;" parent="pMPUyEu7R3_AaXZGhj5S-3" vertex="1">
          <mxGeometry x="20" width="60" height="40" as="geometry">
            <mxRectangle width="60" height="40" as="alternateBounds" />
          </mxGeometry>
        </mxCell>
        <mxCell id="pMPUyEu7R3_AaXZGhj5S-19" value="Ignored" style="connectable=0;recursiveResize=0;strokeColor=inherit;fillColor=none;align=center;whiteSpace=wrap;html=1;" parent="pMPUyEu7R3_AaXZGhj5S-3" vertex="1">
          <mxGeometry x="80" width="50" height="40" as="geometry">
            <mxRectangle width="50" height="40" as="alternateBounds" />
          </mxGeometry>
        </mxCell>
        <mxCell id="pMPUyEu7R3_AaXZGhj5S-18" value="Reserved" style="connectable=0;recursiveResize=0;strokeColor=inherit;fillColor=none;align=center;whiteSpace=wrap;html=1;" parent="pMPUyEu7R3_AaXZGhj5S-3" vertex="1">
          <mxGeometry x="130" width="140" height="40" as="geometry">
            <mxRectangle width="140" height="40" as="alternateBounds" />
          </mxGeometry>
        </mxCell>
        <mxCell id="pMPUyEu7R3_AaXZGhj5S-17" value="物理地址" style="connectable=0;recursiveResize=0;strokeColor=inherit;fillColor=none;align=center;whiteSpace=wrap;html=1;" parent="pMPUyEu7R3_AaXZGhj5S-3" vertex="1">
          <mxGeometry x="270" width="280" height="40" as="geometry">
            <mxRectangle width="280" height="40" as="alternateBounds" />
          </mxGeometry>
        </mxCell>
        <mxCell id="pMPUyEu7R3_AaXZGhj5S-4" value="R" style="connectable=0;recursiveResize=0;strokeColor=inherit;fillColor=none;align=center;whiteSpace=wrap;html=1;" parent="pMPUyEu7R3_AaXZGhj5S-3" vertex="1">
          <mxGeometry x="550" width="20" height="40" as="geometry">
            <mxRectangle width="20" height="40" as="alternateBounds" />
          </mxGeometry>
        </mxCell>
        <mxCell id="pMPUyEu7R3_AaXZGhj5S-5" value="Ignored" style="connectable=0;recursiveResize=0;strokeColor=inherit;fillColor=none;align=center;whiteSpace=wrap;html=1;" parent="pMPUyEu7R3_AaXZGhj5S-3" vertex="1">
          <mxGeometry x="570" width="50" height="40" as="geometry">
            <mxRectangle width="50" height="40" as="alternateBounds" />
          </mxGeometry>
        </mxCell>
        <mxCell id="pMPUyEu7R3_AaXZGhj5S-6" value="G" style="connectable=0;recursiveResize=0;strokeColor=inherit;fillColor=none;align=center;whiteSpace=wrap;html=1;" parent="pMPUyEu7R3_AaXZGhj5S-3" vertex="1">
          <mxGeometry x="620" width="20" height="40" as="geometry">
            <mxRectangle width="20" height="40" as="alternateBounds" />
          </mxGeometry>
        </mxCell>
        <mxCell id="pMPUyEu7R3_AaXZGhj5S-15" value="PAT" style="connectable=0;recursiveResize=0;strokeColor=inherit;fillColor=none;align=center;whiteSpace=wrap;html=1;" parent="pMPUyEu7R3_AaXZGhj5S-3" vertex="1">
          <mxGeometry x="640" width="30" height="40" as="geometry">
            <mxRectangle width="30" height="40" as="alternateBounds" />
          </mxGeometry>
        </mxCell>
        <mxCell id="pMPUyEu7R3_AaXZGhj5S-16" value="D" style="connectable=0;recursiveResize=0;strokeColor=inherit;fillColor=none;align=center;whiteSpace=wrap;html=1;" parent="pMPUyEu7R3_AaXZGhj5S-3" vertex="1">
          <mxGeometry x="670" width="20" height="40" as="geometry">
            <mxRectangle width="20" height="40" as="alternateBounds" />
          </mxGeometry>
        </mxCell>
        <mxCell id="pMPUyEu7R3_AaXZGhj5S-34" value="A" style="connectable=0;recursiveResize=0;strokeColor=inherit;fillColor=none;align=center;whiteSpace=wrap;html=1;" parent="pMPUyEu7R3_AaXZGhj5S-3" vertex="1">
          <mxGeometry x="690" width="20" height="40" as="geometry">
            <mxRectangle width="20" height="40" as="alternateBounds" />
          </mxGeometry>
        </mxCell>
        <mxCell id="pMPUyEu7R3_AaXZGhj5S-33" value="PCD" style="connectable=0;recursiveResize=0;strokeColor=inherit;fillColor=none;align=center;whiteSpace=wrap;html=1;" parent="pMPUyEu7R3_AaXZGhj5S-3" vertex="1">
          <mxGeometry x="710" width="30" height="40" as="geometry">
            <mxRectangle width="30" height="40" as="alternateBounds" />
          </mxGeometry>
        </mxCell>
        <mxCell id="pMPUyEu7R3_AaXZGhj5S-32" value="PWT" style="connectable=0;recursiveResize=0;strokeColor=inherit;fillColor=none;align=center;whiteSpace=wrap;html=1;" parent="pMPUyEu7R3_AaXZGhj5S-3" vertex="1">
          <mxGeometry x="740" width="30" height="40" as="geometry">
            <mxRectangle width="30" height="40" as="alternateBounds" />
          </mxGeometry>
        </mxCell>
        <mxCell id="pMPUyEu7R3_AaXZGhj5S-31" value="U/S" style="connectable=0;recursiveResize=0;strokeColor=inherit;fillColor=none;align=center;whiteSpace=wrap;html=1;" parent="pMPUyEu7R3_AaXZGhj5S-3" vertex="1">
          <mxGeometry x="770" width="30" height="40" as="geometry">
            <mxRectangle width="30" height="40" as="alternateBounds" />
          </mxGeometry>
        </mxCell>
        <mxCell id="pMPUyEu7R3_AaXZGhj5S-35" value="R/W" style="connectable=0;recursiveResize=0;strokeColor=inherit;fillColor=none;align=center;whiteSpace=wrap;html=1;" parent="pMPUyEu7R3_AaXZGhj5S-3" vertex="1">
          <mxGeometry x="800" width="27" height="40" as="geometry">
            <mxRectangle width="27" height="40" as="alternateBounds" />
          </mxGeometry>
        </mxCell>
        <mxCell id="pMPUyEu7R3_AaXZGhj5S-36" value="P" style="connectable=0;recursiveResize=0;strokeColor=inherit;fillColor=none;align=center;whiteSpace=wrap;html=1;" parent="pMPUyEu7R3_AaXZGhj5S-3" vertex="1">
          <mxGeometry x="827" width="23" height="40" as="geometry">
            <mxRectangle width="23" height="40" as="alternateBounds" />
          </mxGeometry>
        </mxCell>
        <mxCell id="pMPUyEu7R3_AaXZGhj5S-22" value="63" style="text;html=1;align=center;verticalAlign=middle;whiteSpace=wrap;rounded=0;" parent="1" vertex="1">
          <mxGeometry x="-10" y="400" width="30" height="30" as="geometry" />
        </mxCell>
        <mxCell id="pMPUyEu7R3_AaXZGhj5S-23" value="63：59" style="text;html=1;align=center;verticalAlign=middle;whiteSpace=wrap;rounded=0;" parent="1" vertex="1">
          <mxGeometry x="20" y="400" width="60" height="30" as="geometry" />
        </mxCell>
        <mxCell id="pMPUyEu7R3_AaXZGhj5S-24" value="58：52" style="text;html=1;align=center;verticalAlign=middle;whiteSpace=wrap;rounded=0;" parent="1" vertex="1">
          <mxGeometry x="80" y="400" width="60" height="30" as="geometry" />
        </mxCell>
        <mxCell id="pMPUyEu7R3_AaXZGhj5S-25" value="51：36" style="text;html=1;align=center;verticalAlign=middle;whiteSpace=wrap;rounded=0;" parent="1" vertex="1">
          <mxGeometry x="170" y="400" width="60" height="30" as="geometry" />
        </mxCell>
        <mxCell id="pMPUyEu7R3_AaXZGhj5S-26" value="35：12" style="text;html=1;align=center;verticalAlign=middle;whiteSpace=wrap;rounded=0;" parent="1" vertex="1">
          <mxGeometry x="380" y="400" width="60" height="30" as="geometry" />
        </mxCell>
        <mxCell id="pMPUyEu7R3_AaXZGhj5S-27" value="11" style="text;html=1;align=center;verticalAlign=middle;whiteSpace=wrap;rounded=0;" parent="1" vertex="1">
          <mxGeometry x="550" y="400" width="20" height="30" as="geometry" />
        </mxCell>
        <mxCell id="pMPUyEu7R3_AaXZGhj5S-28" value="10：9" style="text;html=1;align=center;verticalAlign=middle;whiteSpace=wrap;rounded=0;" parent="1" vertex="1">
          <mxGeometry x="575" y="400" width="40" height="30" as="geometry" />
        </mxCell>
        <mxCell id="pMPUyEu7R3_AaXZGhj5S-29" value="8" style="text;html=1;align=center;verticalAlign=middle;whiteSpace=wrap;rounded=0;" parent="1" vertex="1">
          <mxGeometry x="624" y="400" width="10" height="30" as="geometry" />
        </mxCell>
        <mxCell id="pMPUyEu7R3_AaXZGhj5S-30" value="7" style="text;html=1;align=center;verticalAlign=middle;whiteSpace=wrap;rounded=0;" parent="1" vertex="1">
          <mxGeometry x="644" y="400" width="20" height="30" as="geometry" />
        </mxCell>
        <mxCell id="pMPUyEu7R3_AaXZGhj5S-37" value="6" style="text;html=1;align=center;verticalAlign=middle;whiteSpace=wrap;rounded=0;" parent="1" vertex="1">
          <mxGeometry x="669" y="400" width="20" height="30" as="geometry" />
        </mxCell>
        <mxCell id="pMPUyEu7R3_AaXZGhj5S-38" value="4" style="text;html=1;align=center;verticalAlign=middle;whiteSpace=wrap;rounded=0;" parent="1" vertex="1">
          <mxGeometry x="715" y="400" width="20" height="30" as="geometry" />
        </mxCell>
        <mxCell id="pMPUyEu7R3_AaXZGhj5S-39" value="2" style="text;html=1;align=center;verticalAlign=middle;whiteSpace=wrap;rounded=0;" parent="1" vertex="1">
          <mxGeometry x="774" y="400" width="20" height="30" as="geometry" />
        </mxCell>
        <mxCell id="pMPUyEu7R3_AaXZGhj5S-40" value="1" style="text;html=1;align=center;verticalAlign=middle;whiteSpace=wrap;rounded=0;" parent="1" vertex="1">
          <mxGeometry x="803" y="400" width="20" height="30" as="geometry" />
        </mxCell>
        <mxCell id="pMPUyEu7R3_AaXZGhj5S-42" value="0" style="text;html=1;align=center;verticalAlign=middle;whiteSpace=wrap;rounded=0;" parent="1" vertex="1">
          <mxGeometry x="830" y="400" width="20" height="30" as="geometry" />
        </mxCell>
        <mxCell id="pMPUyEu7R3_AaXZGhj5S-45" value="3" style="text;html=1;align=center;verticalAlign=middle;whiteSpace=wrap;rounded=0;" parent="1" vertex="1">
          <mxGeometry x="745" y="400" width="20" height="30" as="geometry" />
        </mxCell>
        <mxCell id="pMPUyEu7R3_AaXZGhj5S-46" value="5" style="text;html=1;align=center;verticalAlign=middle;whiteSpace=wrap;rounded=0;" parent="1" vertex="1">
          <mxGeometry x="689" y="400" width="20" height="30" as="geometry" />
        </mxCell>
        <mxCell id="pMPUyEu7R3_AaXZGhj5S-47" value="" style="childLayout=tableLayout;recursiveResize=0;shadow=0;fillColor=#ffe6cc;strokeColor=#d79b00;glass=0;rounded=0;" parent="1" vertex="1">
          <mxGeometry y="640" width="850" height="40" as="geometry" />
        </mxCell>
        <mxCell id="pMPUyEu7R3_AaXZGhj5S-48" value="" style="shape=tableRow;horizontal=0;startSize=0;swimlaneHead=0;swimlaneBody=0;top=0;left=0;bottom=0;right=0;dropTarget=0;collapsible=0;recursiveResize=0;expand=0;fontStyle=0;fillColor=none;strokeColor=inherit;" parent="pMPUyEu7R3_AaXZGhj5S-47" vertex="1">
          <mxGeometry width="850" height="40" as="geometry" />
        </mxCell>
        <mxCell id="pMPUyEu7R3_AaXZGhj5S-86" value="COMPTAGLINE" style="connectable=0;recursiveResize=0;strokeColor=inherit;fillColor=none;align=center;whiteSpace=wrap;html=1;" parent="pMPUyEu7R3_AaXZGhj5S-48" vertex="1">
          <mxGeometry width="170" height="40" as="geometry">
            <mxRectangle width="170" height="40" as="alternateBounds" />
          </mxGeometry>
        </mxCell>
        <mxCell id="pMPUyEu7R3_AaXZGhj5S-85" value="ATOMIC" style="connectable=0;recursiveResize=0;strokeColor=inherit;fillColor=none;align=center;whiteSpace=wrap;html=1;" parent="pMPUyEu7R3_AaXZGhj5S-48" vertex="1">
          <mxGeometry x="170" width="60" height="40" as="geometry">
            <mxRectangle width="60" height="40" as="alternateBounds" />
          </mxGeometry>
        </mxCell>
        <mxCell id="pMPUyEu7R3_AaXZGhj5S-83" value="APERTURE" style="connectable=0;recursiveResize=0;strokeColor=inherit;fillColor=none;align=center;whiteSpace=wrap;html=1;" parent="pMPUyEu7R3_AaXZGhj5S-48" vertex="1">
          <mxGeometry x="230" width="79" height="40" as="geometry">
            <mxRectangle width="79" height="40" as="alternateBounds" />
          </mxGeometry>
        </mxCell>
        <mxCell id="pMPUyEu7R3_AaXZGhj5S-82" value="VOL" style="connectable=0;recursiveResize=0;strokeColor=inherit;fillColor=none;align=center;whiteSpace=wrap;html=1;" parent="pMPUyEu7R3_AaXZGhj5S-48" vertex="1">
          <mxGeometry x="309" width="41" height="40" as="geometry">
            <mxRectangle width="41" height="40" as="alternateBounds" />
          </mxGeometry>
        </mxCell>
        <mxCell id="pMPUyEu7R3_AaXZGhj5S-53" value="System Memory物理地址" style="connectable=0;recursiveResize=0;strokeColor=inherit;fillColor=none;align=center;whiteSpace=wrap;html=1;" parent="pMPUyEu7R3_AaXZGhj5S-48" vertex="1">
          <mxGeometry x="350" width="389" height="40" as="geometry">
            <mxRectangle width="389" height="40" as="alternateBounds" />
          </mxGeometry>
        </mxCell>
        <mxCell id="pMPUyEu7R3_AaXZGhj5S-61" value="TMZ" style="connectable=0;recursiveResize=0;strokeColor=inherit;fillColor=none;align=center;whiteSpace=wrap;html=1;" parent="pMPUyEu7R3_AaXZGhj5S-48" vertex="1">
          <mxGeometry x="739" width="30" height="40" as="geometry">
            <mxRectangle width="30" height="40" as="alternateBounds" />
          </mxGeometry>
        </mxCell>
        <mxCell id="pMPUyEu7R3_AaXZGhj5S-62" value="RO" style="connectable=0;recursiveResize=0;strokeColor=inherit;fillColor=none;align=center;whiteSpace=wrap;html=1;" parent="pMPUyEu7R3_AaXZGhj5S-48" vertex="1">
          <mxGeometry x="769" width="30" height="40" as="geometry">
            <mxRectangle width="30" height="40" as="alternateBounds" />
          </mxGeometry>
        </mxCell>
        <mxCell id="pMPUyEu7R3_AaXZGhj5S-63" value="PRI" style="connectable=0;recursiveResize=0;strokeColor=inherit;fillColor=none;align=center;whiteSpace=wrap;html=1;" parent="pMPUyEu7R3_AaXZGhj5S-48" vertex="1">
          <mxGeometry x="799" width="27" height="40" as="geometry">
            <mxRectangle width="27" height="40" as="alternateBounds" />
          </mxGeometry>
        </mxCell>
        <mxCell id="pMPUyEu7R3_AaXZGhj5S-64" value="V" style="connectable=0;recursiveResize=0;strokeColor=inherit;fillColor=none;align=center;whiteSpace=wrap;html=1;" parent="pMPUyEu7R3_AaXZGhj5S-48" vertex="1">
          <mxGeometry x="826" width="24" height="40" as="geometry">
            <mxRectangle width="24" height="40" as="alternateBounds" />
          </mxGeometry>
        </mxCell>
        <mxCell id="pMPUyEu7R3_AaXZGhj5S-87" value="0" style="text;html=1;align=center;verticalAlign=middle;whiteSpace=wrap;rounded=0;" parent="1" vertex="1">
          <mxGeometry x="829" y="600" width="20" height="30" as="geometry" />
        </mxCell>
        <mxCell id="pMPUyEu7R3_AaXZGhj5S-91" value="1" style="text;html=1;align=center;verticalAlign=middle;whiteSpace=wrap;rounded=0;" parent="1" vertex="1">
          <mxGeometry x="804" y="600" width="20" height="30" as="geometry" />
        </mxCell>
        <mxCell id="pMPUyEu7R3_AaXZGhj5S-92" value="2" style="text;html=1;align=center;verticalAlign=middle;whiteSpace=wrap;rounded=0;" parent="1" vertex="1">
          <mxGeometry x="774" y="600" width="20" height="30" as="geometry" />
        </mxCell>
        <mxCell id="pMPUyEu7R3_AaXZGhj5S-93" value="3" style="text;html=1;align=center;verticalAlign=middle;whiteSpace=wrap;rounded=0;" parent="1" vertex="1">
          <mxGeometry x="744" y="600" width="20" height="30" as="geometry" />
        </mxCell>
        <mxCell id="pMPUyEu7R3_AaXZGhj5S-94" value="31：4" style="text;html=1;align=center;verticalAlign=middle;whiteSpace=wrap;rounded=0;" parent="1" vertex="1">
          <mxGeometry x="490" y="600" width="50" height="30" as="geometry" />
        </mxCell>
        <mxCell id="pMPUyEu7R3_AaXZGhj5S-95" value="32" style="text;html=1;align=center;verticalAlign=middle;whiteSpace=wrap;rounded=0;" parent="1" vertex="1">
          <mxGeometry x="320" y="600" width="20" height="30" as="geometry" />
        </mxCell>
        <mxCell id="pMPUyEu7R3_AaXZGhj5S-96" value="34：33" style="text;html=1;align=center;verticalAlign=middle;whiteSpace=wrap;rounded=0;" parent="1" vertex="1">
          <mxGeometry x="239" y="600" width="60" height="30" as="geometry" />
        </mxCell>
        <mxCell id="pMPUyEu7R3_AaXZGhj5S-97" value="35" style="text;html=1;align=center;verticalAlign=middle;whiteSpace=wrap;rounded=0;" parent="1" vertex="1">
          <mxGeometry x="190" y="600" width="20" height="30" as="geometry" />
        </mxCell>
        <mxCell id="pMPUyEu7R3_AaXZGhj5S-99" value="63：44" style="text;html=1;align=center;verticalAlign=middle;whiteSpace=wrap;rounded=0;" parent="1" vertex="1">
          <mxGeometry x="30" y="600" width="60" height="30" as="geometry" />
        </mxCell>
        <mxCell id="pMPUyEu7R3_AaXZGhj5S-113" value="" style="shape=table;startSize=0;container=1;collapsible=0;childLayout=tableLayout;fillColor=#ffe6cc;strokeColor=#d79b00;" parent="1" vertex="1">
          <mxGeometry y="680" width="50" height="40" as="geometry" />
        </mxCell>
        <mxCell id="pMPUyEu7R3_AaXZGhj5S-114" value="" style="shape=tableRow;horizontal=0;startSize=0;swimlaneHead=0;swimlaneBody=0;strokeColor=inherit;top=0;left=0;bottom=0;right=0;collapsible=0;dropTarget=0;fillColor=none;points=[[0,0.5],[1,0.5]];portConstraint=eastwest;" parent="pMPUyEu7R3_AaXZGhj5S-113" vertex="1">
          <mxGeometry width="50" height="40" as="geometry" />
        </mxCell>
        <mxCell id="pMPUyEu7R3_AaXZGhj5S-115" value="WO" style="shape=partialRectangle;html=1;whiteSpace=wrap;connectable=0;strokeColor=inherit;overflow=hidden;fillColor=none;top=0;left=0;bottom=0;right=0;pointerEvents=1;" parent="pMPUyEu7R3_AaXZGhj5S-114" vertex="1">
          <mxGeometry width="25" height="40" as="geometry">
            <mxRectangle width="25" height="40" as="alternateBounds" />
          </mxGeometry>
        </mxCell>
        <mxCell id="pMPUyEu7R3_AaXZGhj5S-116" value="RO" style="shape=partialRectangle;html=1;whiteSpace=wrap;connectable=0;strokeColor=inherit;overflow=hidden;fillColor=none;top=0;left=0;bottom=0;right=0;pointerEvents=1;" parent="pMPUyEu7R3_AaXZGhj5S-114" vertex="1">
          <mxGeometry x="25" width="25" height="40" as="geometry">
            <mxRectangle width="25" height="40" as="alternateBounds" />
          </mxGeometry>
        </mxCell>
        <mxCell id="pMPUyEu7R3_AaXZGhj5S-126" value="63" style="text;html=1;align=center;verticalAlign=middle;whiteSpace=wrap;rounded=0;" parent="1" vertex="1">
          <mxGeometry x="-1" y="730" width="20" height="30" as="geometry" />
        </mxCell>
        <mxCell id="pMPUyEu7R3_AaXZGhj5S-127" value="62" style="text;html=1;align=center;verticalAlign=middle;whiteSpace=wrap;rounded=0;" parent="1" vertex="1">
          <mxGeometry x="30" y="730" width="20" height="30" as="geometry" />
        </mxCell>
        <mxCell id="pMPUyEu7R3_AaXZGhj5S-129" value="" style="childLayout=tableLayout;recursiveResize=0;shadow=0;fillColor=#ffe6cc;strokeColor=#d79b00;glass=0;rounded=0;" parent="1" vertex="1">
          <mxGeometry x="1" y="840" width="849" height="40" as="geometry" />
        </mxCell>
        <mxCell id="pMPUyEu7R3_AaXZGhj5S-130" value="" style="shape=tableRow;horizontal=0;startSize=0;swimlaneHead=0;swimlaneBody=0;top=0;left=0;bottom=0;right=0;dropTarget=0;collapsible=0;recursiveResize=0;expand=0;fontStyle=0;fillColor=none;strokeColor=inherit;" parent="pMPUyEu7R3_AaXZGhj5S-129" vertex="1">
          <mxGeometry width="849" height="40" as="geometry" />
        </mxCell>
        <mxCell id="pMPUyEu7R3_AaXZGhj5S-131" value="COMPTAGLINE" style="connectable=0;recursiveResize=0;strokeColor=inherit;fillColor=none;align=center;whiteSpace=wrap;html=1;" parent="pMPUyEu7R3_AaXZGhj5S-130" vertex="1">
          <mxGeometry width="169" height="40" as="geometry">
            <mxRectangle width="169" height="40" as="alternateBounds" />
          </mxGeometry>
        </mxCell>
        <mxCell id="pMPUyEu7R3_AaXZGhj5S-132" value="ATOMIC" style="connectable=0;recursiveResize=0;strokeColor=inherit;fillColor=none;align=center;whiteSpace=wrap;html=1;" parent="pMPUyEu7R3_AaXZGhj5S-130" vertex="1">
          <mxGeometry x="169" width="60" height="40" as="geometry">
            <mxRectangle width="60" height="40" as="alternateBounds" />
          </mxGeometry>
        </mxCell>
        <mxCell id="pMPUyEu7R3_AaXZGhj5S-133" value="APERTURE" style="connectable=0;recursiveResize=0;strokeColor=inherit;fillColor=none;align=center;whiteSpace=wrap;html=1;" parent="pMPUyEu7R3_AaXZGhj5S-130" vertex="1">
          <mxGeometry x="229" width="69" height="40" as="geometry">
            <mxRectangle width="69" height="40" as="alternateBounds" />
          </mxGeometry>
        </mxCell>
        <mxCell id="pMPUyEu7R3_AaXZGhj5S-134" value="VOL" style="connectable=0;recursiveResize=0;strokeColor=inherit;fillColor=none;align=center;whiteSpace=wrap;html=1;" parent="pMPUyEu7R3_AaXZGhj5S-130" vertex="1">
          <mxGeometry x="298" width="51" height="40" as="geometry">
            <mxRectangle width="51" height="40" as="alternateBounds" />
          </mxGeometry>
        </mxCell>
        <mxCell id="pMPUyEu7R3_AaXZGhj5S-159" value="VID_PEER" style="connectable=0;recursiveResize=0;strokeColor=inherit;fillColor=none;align=center;whiteSpace=wrap;html=1;" parent="pMPUyEu7R3_AaXZGhj5S-130" vertex="1">
          <mxGeometry x="349" width="80" height="40" as="geometry">
            <mxRectangle width="80" height="40" as="alternateBounds" />
          </mxGeometry>
        </mxCell>
        <mxCell id="pMPUyEu7R3_AaXZGhj5S-135" value="VRAM物理地址" style="connectable=0;recursiveResize=0;strokeColor=inherit;fillColor=none;align=center;whiteSpace=wrap;html=1;" parent="pMPUyEu7R3_AaXZGhj5S-130" vertex="1">
          <mxGeometry x="429" width="310" height="40" as="geometry">
            <mxRectangle width="310" height="40" as="alternateBounds" />
          </mxGeometry>
        </mxCell>
        <mxCell id="pMPUyEu7R3_AaXZGhj5S-136" value="TMZ" style="connectable=0;recursiveResize=0;strokeColor=inherit;fillColor=none;align=center;whiteSpace=wrap;html=1;" parent="pMPUyEu7R3_AaXZGhj5S-130" vertex="1">
          <mxGeometry x="739" width="30" height="40" as="geometry">
            <mxRectangle width="30" height="40" as="alternateBounds" />
          </mxGeometry>
        </mxCell>
        <mxCell id="pMPUyEu7R3_AaXZGhj5S-137" value="RO" style="connectable=0;recursiveResize=0;strokeColor=inherit;fillColor=none;align=center;whiteSpace=wrap;html=1;" parent="pMPUyEu7R3_AaXZGhj5S-130" vertex="1">
          <mxGeometry x="769" width="22" height="40" as="geometry">
            <mxRectangle width="22" height="40" as="alternateBounds" />
          </mxGeometry>
        </mxCell>
        <mxCell id="pMPUyEu7R3_AaXZGhj5S-138" value="PRI" style="connectable=0;recursiveResize=0;strokeColor=inherit;fillColor=none;align=center;whiteSpace=wrap;html=1;" parent="pMPUyEu7R3_AaXZGhj5S-130" vertex="1">
          <mxGeometry x="791" width="29" height="40" as="geometry">
            <mxRectangle width="29" height="40" as="alternateBounds" />
          </mxGeometry>
        </mxCell>
        <mxCell id="pMPUyEu7R3_AaXZGhj5S-139" value="V" style="connectable=0;recursiveResize=0;strokeColor=inherit;fillColor=none;align=center;whiteSpace=wrap;html=1;" parent="pMPUyEu7R3_AaXZGhj5S-130" vertex="1">
          <mxGeometry x="820" width="29" height="40" as="geometry">
            <mxRectangle width="29" height="40" as="alternateBounds" />
          </mxGeometry>
        </mxCell>
        <mxCell id="pMPUyEu7R3_AaXZGhj5S-140" value="0" style="text;html=1;align=center;verticalAlign=middle;whiteSpace=wrap;rounded=0;" parent="1" vertex="1">
          <mxGeometry x="830" y="800" width="20" height="30" as="geometry" />
        </mxCell>
        <mxCell id="pMPUyEu7R3_AaXZGhj5S-141" value="1" style="text;html=1;align=center;verticalAlign=middle;whiteSpace=wrap;rounded=0;" parent="1" vertex="1">
          <mxGeometry x="805" y="800" width="20" height="30" as="geometry" />
        </mxCell>
        <mxCell id="pMPUyEu7R3_AaXZGhj5S-142" value="2" style="text;html=1;align=center;verticalAlign=middle;whiteSpace=wrap;rounded=0;" parent="1" vertex="1">
          <mxGeometry x="775" y="800" width="20" height="30" as="geometry" />
        </mxCell>
        <mxCell id="pMPUyEu7R3_AaXZGhj5S-143" value="3" style="text;html=1;align=center;verticalAlign=middle;whiteSpace=wrap;rounded=0;" parent="1" vertex="1">
          <mxGeometry x="745" y="800" width="20" height="30" as="geometry" />
        </mxCell>
        <mxCell id="pMPUyEu7R3_AaXZGhj5S-144" value="28：4" style="text;html=1;align=center;verticalAlign=middle;whiteSpace=wrap;rounded=0;" parent="1" vertex="1">
          <mxGeometry x="571" y="800" width="50" height="30" as="geometry" />
        </mxCell>
        <mxCell id="pMPUyEu7R3_AaXZGhj5S-145" value="32" style="text;html=1;align=center;verticalAlign=middle;whiteSpace=wrap;rounded=0;" parent="1" vertex="1">
          <mxGeometry x="321" y="800" width="20" height="30" as="geometry" />
        </mxCell>
        <mxCell id="pMPUyEu7R3_AaXZGhj5S-146" value="34：33" style="text;html=1;align=center;verticalAlign=middle;whiteSpace=wrap;rounded=0;" parent="1" vertex="1">
          <mxGeometry x="237" y="800" width="60" height="30" as="geometry" />
        </mxCell>
        <mxCell id="pMPUyEu7R3_AaXZGhj5S-147" value="35" style="text;html=1;align=center;verticalAlign=middle;whiteSpace=wrap;rounded=0;" parent="1" vertex="1">
          <mxGeometry x="151" y="800" width="20" height="30" as="geometry" />
        </mxCell>
        <mxCell id="pMPUyEu7R3_AaXZGhj5S-148" value="63：44" style="text;html=1;align=center;verticalAlign=middle;whiteSpace=wrap;rounded=0;" parent="1" vertex="1">
          <mxGeometry x="31" y="800" width="60" height="30" as="geometry" />
        </mxCell>
        <mxCell id="pMPUyEu7R3_AaXZGhj5S-149" value="" style="shape=table;startSize=0;container=1;collapsible=0;childLayout=tableLayout;fillColor=#ffe6cc;strokeColor=#d79b00;" parent="1" vertex="1">
          <mxGeometry x="1" y="880" width="50" height="40" as="geometry" />
        </mxCell>
        <mxCell id="pMPUyEu7R3_AaXZGhj5S-150" value="" style="shape=tableRow;horizontal=0;startSize=0;swimlaneHead=0;swimlaneBody=0;strokeColor=inherit;top=0;left=0;bottom=0;right=0;collapsible=0;dropTarget=0;fillColor=none;points=[[0,0.5],[1,0.5]];portConstraint=eastwest;" parent="pMPUyEu7R3_AaXZGhj5S-149" vertex="1">
          <mxGeometry width="50" height="40" as="geometry" />
        </mxCell>
        <mxCell id="pMPUyEu7R3_AaXZGhj5S-151" value="WO" style="shape=partialRectangle;html=1;whiteSpace=wrap;connectable=0;strokeColor=inherit;overflow=hidden;fillColor=none;top=0;left=0;bottom=0;right=0;pointerEvents=1;" parent="pMPUyEu7R3_AaXZGhj5S-150" vertex="1">
          <mxGeometry width="25" height="40" as="geometry">
            <mxRectangle width="25" height="40" as="alternateBounds" />
          </mxGeometry>
        </mxCell>
        <mxCell id="pMPUyEu7R3_AaXZGhj5S-152" value="RO" style="shape=partialRectangle;html=1;whiteSpace=wrap;connectable=0;strokeColor=inherit;overflow=hidden;fillColor=none;top=0;left=0;bottom=0;right=0;pointerEvents=1;" parent="pMPUyEu7R3_AaXZGhj5S-150" vertex="1">
          <mxGeometry x="25" width="25" height="40" as="geometry">
            <mxRectangle width="25" height="40" as="alternateBounds" />
          </mxGeometry>
        </mxCell>
        <mxCell id="pMPUyEu7R3_AaXZGhj5S-153" value="63" style="text;html=1;align=center;verticalAlign=middle;whiteSpace=wrap;rounded=0;" parent="1" vertex="1">
          <mxGeometry y="930" width="20" height="30" as="geometry" />
        </mxCell>
        <mxCell id="pMPUyEu7R3_AaXZGhj5S-154" value="62" style="text;html=1;align=center;verticalAlign=middle;whiteSpace=wrap;rounded=0;" parent="1" vertex="1">
          <mxGeometry x="31" y="930" width="20" height="30" as="geometry" />
        </mxCell>
        <mxCell id="pMPUyEu7R3_AaXZGhj5S-155" value="" style="shape=table;startSize=0;container=1;collapsible=0;childLayout=tableLayout;fillColor=#ffe6cc;strokeColor=#d79b00;" parent="1" vertex="1">
          <mxGeometry x="170" y="680" width="60" height="40" as="geometry" />
        </mxCell>
        <mxCell id="pMPUyEu7R3_AaXZGhj5S-156" value="" style="shape=tableRow;horizontal=0;startSize=0;swimlaneHead=0;swimlaneBody=0;strokeColor=inherit;top=0;left=0;bottom=0;right=0;collapsible=0;dropTarget=0;fillColor=none;points=[[0,0.5],[1,0.5]];portConstraint=eastwest;" parent="pMPUyEu7R3_AaXZGhj5S-155" vertex="1">
          <mxGeometry width="60" height="40" as="geometry" />
        </mxCell>
        <mxCell id="pMPUyEu7R3_AaXZGhj5S-157" value="LOCK" style="shape=partialRectangle;html=1;whiteSpace=wrap;connectable=0;strokeColor=inherit;overflow=hidden;fillColor=none;top=0;left=0;bottom=0;right=0;pointerEvents=1;" parent="pMPUyEu7R3_AaXZGhj5S-156" vertex="1">
          <mxGeometry width="60" height="40" as="geometry">
            <mxRectangle width="60" height="40" as="alternateBounds" />
          </mxGeometry>
        </mxCell>
        <mxCell id="pMPUyEu7R3_AaXZGhj5S-158" value="35" style="text;html=1;align=center;verticalAlign=middle;whiteSpace=wrap;rounded=0;" parent="1" vertex="1">
          <mxGeometry x="190" y="730" width="20" height="30" as="geometry" />
        </mxCell>
        <mxCell id="pMPUyEu7R3_AaXZGhj5S-160" value="31：29" style="text;html=1;align=center;verticalAlign=middle;whiteSpace=wrap;rounded=0;" parent="1" vertex="1">
          <mxGeometry x="360" y="800" width="50" height="30" as="geometry" />
        </mxCell>
        <mxCell id="pMPUyEu7R3_AaXZGhj5S-161" value="" style="shape=table;startSize=0;container=1;collapsible=0;childLayout=tableLayout;fillColor=#ffe6cc;strokeColor=#d79b00;" parent="1" vertex="1">
          <mxGeometry x="170" y="880" width="60" height="40" as="geometry" />
        </mxCell>
        <mxCell id="pMPUyEu7R3_AaXZGhj5S-162" value="" style="shape=tableRow;horizontal=0;startSize=0;swimlaneHead=0;swimlaneBody=0;strokeColor=inherit;top=0;left=0;bottom=0;right=0;collapsible=0;dropTarget=0;fillColor=none;points=[[0,0.5],[1,0.5]];portConstraint=eastwest;" parent="pMPUyEu7R3_AaXZGhj5S-161" vertex="1">
          <mxGeometry width="60" height="40" as="geometry" />
        </mxCell>
        <mxCell id="pMPUyEu7R3_AaXZGhj5S-163" value="LOCK" style="shape=partialRectangle;html=1;whiteSpace=wrap;connectable=0;strokeColor=inherit;overflow=hidden;fillColor=none;top=0;left=0;bottom=0;right=0;pointerEvents=1;" parent="pMPUyEu7R3_AaXZGhj5S-162" vertex="1">
          <mxGeometry width="60" height="40" as="geometry">
            <mxRectangle width="60" height="40" as="alternateBounds" />
          </mxGeometry>
        </mxCell>
        <mxCell id="pMPUyEu7R3_AaXZGhj5S-164" value="35" style="text;html=1;align=center;verticalAlign=middle;whiteSpace=wrap;rounded=0;" parent="1" vertex="1">
          <mxGeometry x="190" y="930" width="20" height="30" as="geometry" />
        </mxCell>
        <mxCell id="pMPUyEu7R3_AaXZGhj5S-165" value="CPU PTE" style="text;strokeColor=none;fillColor=none;html=1;fontSize=24;fontStyle=1;verticalAlign=middle;align=center;" parent="1" vertex="1">
          <mxGeometry x="-160" y="440" width="100" height="40" as="geometry" />
        </mxCell>
        <mxCell id="pMPUyEu7R3_AaXZGhj5S-166" value="GPU PTE&lt;div&gt;SYS MEM&lt;/div&gt;" style="text;strokeColor=none;fillColor=none;html=1;fontSize=24;fontStyle=1;verticalAlign=middle;align=center;" parent="1" vertex="1">
          <mxGeometry x="-160" y="640" width="100" height="80" as="geometry" />
        </mxCell>
        <mxCell id="pMPUyEu7R3_AaXZGhj5S-167" value="GPU PTE&lt;div&gt;VRAM&lt;/div&gt;" style="text;strokeColor=none;fillColor=none;html=1;fontSize=24;fontStyle=1;verticalAlign=middle;align=center;" parent="1" vertex="1">
          <mxGeometry x="-160" y="840" width="100" height="80" as="geometry" />
        </mxCell>
        <mxCell id="pMPUyEu7R3_AaXZGhj5S-168" value="" style="childLayout=tableLayout;recursiveResize=0;shadow=0;fillColor=#ffe6cc;strokeColor=#d79b00;glass=0;rounded=0;" parent="1" vertex="1">
          <mxGeometry y="1361" width="850" height="40" as="geometry" />
        </mxCell>
        <mxCell id="pMPUyEu7R3_AaXZGhj5S-169" value="" style="shape=tableRow;horizontal=0;startSize=0;swimlaneHead=0;swimlaneBody=0;top=0;left=0;bottom=0;right=0;dropTarget=0;collapsible=0;recursiveResize=0;expand=0;fontStyle=0;fillColor=none;strokeColor=inherit;" parent="pMPUyEu7R3_AaXZGhj5S-168" vertex="1">
          <mxGeometry width="850" height="40" as="geometry" />
        </mxCell>
        <mxCell id="pMPUyEu7R3_AaXZGhj5S-173" value="PEER_ID" style="connectable=0;recursiveResize=0;strokeColor=inherit;fillColor=none;align=center;whiteSpace=wrap;html=1;" parent="pMPUyEu7R3_AaXZGhj5S-169" vertex="1">
          <mxGeometry width="79" height="40" as="geometry">
            <mxRectangle width="79" height="40" as="alternateBounds" />
          </mxGeometry>
        </mxCell>
        <mxCell id="pMPUyEu7R3_AaXZGhj5S-174" value="Reserved" style="connectable=0;recursiveResize=0;strokeColor=inherit;fillColor=none;align=center;whiteSpace=wrap;html=1;" parent="pMPUyEu7R3_AaXZGhj5S-169" vertex="1">
          <mxGeometry x="79" width="91" height="40" as="geometry">
            <mxRectangle width="91" height="40" as="alternateBounds" />
          </mxGeometry>
        </mxCell>
        <mxCell id="pMPUyEu7R3_AaXZGhj5S-175" value="ADDRESS" style="connectable=0;recursiveResize=0;strokeColor=inherit;fillColor=none;align=center;whiteSpace=wrap;html=1;" parent="pMPUyEu7R3_AaXZGhj5S-169" vertex="1">
          <mxGeometry x="170" width="430" height="40" as="geometry">
            <mxRectangle width="430" height="40" as="alternateBounds" />
          </mxGeometry>
        </mxCell>
        <mxCell id="pMPUyEu7R3_AaXZGhj5S-176" value="KIND" style="connectable=0;recursiveResize=0;strokeColor=inherit;fillColor=none;align=center;whiteSpace=wrap;html=1;" parent="pMPUyEu7R3_AaXZGhj5S-169" vertex="1">
          <mxGeometry x="600" width="50" height="40" as="geometry">
            <mxRectangle width="50" height="40" as="alternateBounds" />
          </mxGeometry>
        </mxCell>
        <mxCell id="pMPUyEu7R3_AaXZGhj5S-177" value="PageCacheFlag" style="connectable=0;recursiveResize=0;strokeColor=inherit;fillColor=none;align=center;whiteSpace=wrap;html=1;" parent="pMPUyEu7R3_AaXZGhj5S-169" vertex="1">
          <mxGeometry x="650" width="100" height="40" as="geometry">
            <mxRectangle width="100" height="40" as="alternateBounds" />
          </mxGeometry>
        </mxCell>
        <mxCell id="pMPUyEu7R3_AaXZGhj5S-178" value="APERTURE" style="connectable=0;recursiveResize=0;strokeColor=inherit;fillColor=none;align=center;whiteSpace=wrap;html=1;" parent="pMPUyEu7R3_AaXZGhj5S-169" vertex="1">
          <mxGeometry x="750" width="69" height="40" as="geometry">
            <mxRectangle width="69" height="40" as="alternateBounds" />
          </mxGeometry>
        </mxCell>
        <mxCell id="pMPUyEu7R3_AaXZGhj5S-179" value="V" style="connectable=0;recursiveResize=0;strokeColor=inherit;fillColor=none;align=center;whiteSpace=wrap;html=1;" parent="pMPUyEu7R3_AaXZGhj5S-169" vertex="1">
          <mxGeometry x="819" width="31" height="40" as="geometry">
            <mxRectangle width="31" height="40" as="alternateBounds" />
          </mxGeometry>
        </mxCell>
        <mxCell id="pMPUyEu7R3_AaXZGhj5S-181" value="0" style="text;html=1;align=center;verticalAlign=middle;whiteSpace=wrap;rounded=0;" parent="1" vertex="1">
          <mxGeometry x="829" y="1321" width="20" height="30" as="geometry" />
        </mxCell>
        <mxCell id="pMPUyEu7R3_AaXZGhj5S-182" value="2：1" style="text;html=1;align=center;verticalAlign=middle;whiteSpace=wrap;rounded=0;" parent="1" vertex="1">
          <mxGeometry x="762" y="1321" width="50" height="30" as="geometry" />
        </mxCell>
        <mxCell id="pMPUyEu7R3_AaXZGhj5S-183" value="7：3" style="text;html=1;align=center;verticalAlign=middle;whiteSpace=wrap;rounded=0;" parent="1" vertex="1">
          <mxGeometry x="678" y="1321" width="50" height="30" as="geometry" />
        </mxCell>
        <mxCell id="pMPUyEu7R3_AaXZGhj5S-184" value="11：8" style="text;html=1;align=center;verticalAlign=middle;whiteSpace=wrap;rounded=0;" parent="1" vertex="1">
          <mxGeometry x="600" y="1321" width="50" height="30" as="geometry" />
        </mxCell>
        <mxCell id="pMPUyEu7R3_AaXZGhj5S-185" value="51：12" style="text;html=1;align=center;verticalAlign=middle;whiteSpace=wrap;rounded=0;" parent="1" vertex="1">
          <mxGeometry x="341" y="1321" width="50" height="30" as="geometry" />
        </mxCell>
        <mxCell id="pMPUyEu7R3_AaXZGhj5S-186" value="60：52" style="text;html=1;align=center;verticalAlign=middle;whiteSpace=wrap;rounded=0;" parent="1" vertex="1">
          <mxGeometry x="103" y="1321" width="50" height="30" as="geometry" />
        </mxCell>
        <mxCell id="pMPUyEu7R3_AaXZGhj5S-187" value="63：61" style="text;html=1;align=center;verticalAlign=middle;whiteSpace=wrap;rounded=0;" parent="1" vertex="1">
          <mxGeometry x="10" y="1321" width="50" height="30" as="geometry" />
        </mxCell>
        <mxCell id="pMPUyEu7R3_AaXZGhj5S-188" value="GPU PTE&lt;div&gt;V3&lt;/div&gt;" style="text;strokeColor=none;fillColor=none;html=1;fontSize=24;fontStyle=1;verticalAlign=middle;align=center;" parent="1" vertex="1">
          <mxGeometry x="-160" y="1341" width="100" height="80" as="geometry" />
        </mxCell>
        <mxCell id="pMPUyEu7R3_AaXZGhj5S-189" value="" style="childLayout=tableLayout;recursiveResize=0;shadow=0;fillColor=#cce5ff;strokeColor=#36393d;glass=0;rounded=0;" parent="1" vertex="1">
          <mxGeometry y="1040" width="850" height="40" as="geometry" />
        </mxCell>
        <mxCell id="pMPUyEu7R3_AaXZGhj5S-190" value="" style="shape=tableRow;horizontal=0;startSize=0;swimlaneHead=0;swimlaneBody=0;top=0;left=0;bottom=0;right=0;dropTarget=0;collapsible=0;recursiveResize=0;expand=0;fontStyle=0;fillColor=none;strokeColor=inherit;" parent="pMPUyEu7R3_AaXZGhj5S-189" vertex="1">
          <mxGeometry width="850" height="40" as="geometry" />
        </mxCell>
        <mxCell id="pMPUyEu7R3_AaXZGhj5S-191" value="NX" style="connectable=0;recursiveResize=0;strokeColor=inherit;fillColor=none;align=center;whiteSpace=wrap;html=1;" parent="pMPUyEu7R3_AaXZGhj5S-190" vertex="1">
          <mxGeometry width="20" height="40" as="geometry">
            <mxRectangle width="20" height="40" as="alternateBounds" />
          </mxGeometry>
        </mxCell>
        <mxCell id="pMPUyEu7R3_AaXZGhj5S-192" value="Protection" style="connectable=0;recursiveResize=0;strokeColor=inherit;fillColor=none;align=center;whiteSpace=wrap;html=1;" parent="pMPUyEu7R3_AaXZGhj5S-190" vertex="1">
          <mxGeometry x="20" width="60" height="40" as="geometry">
            <mxRectangle width="60" height="40" as="alternateBounds" />
          </mxGeometry>
        </mxCell>
        <mxCell id="pMPUyEu7R3_AaXZGhj5S-193" value="DEVMAP" style="connectable=0;recursiveResize=0;strokeColor=inherit;fillColor=none;align=center;whiteSpace=wrap;html=1;" parent="pMPUyEu7R3_AaXZGhj5S-190" vertex="1">
          <mxGeometry x="80" width="60" height="40" as="geometry">
            <mxRectangle width="60" height="40" as="alternateBounds" />
          </mxGeometry>
        </mxCell>
        <mxCell id="pMPUyEu7R3_AaXZGhj5S-194" value="Reserved" style="connectable=0;recursiveResize=0;strokeColor=inherit;fillColor=none;align=center;whiteSpace=wrap;html=1;" parent="pMPUyEu7R3_AaXZGhj5S-190" vertex="1">
          <mxGeometry x="140" width="130" height="40" as="geometry">
            <mxRectangle width="130" height="40" as="alternateBounds" />
          </mxGeometry>
        </mxCell>
        <mxCell id="pMPUyEu7R3_AaXZGhj5S-195" value="ADDRESS" style="connectable=0;recursiveResize=0;strokeColor=inherit;fillColor=none;align=center;whiteSpace=wrap;html=1;" parent="pMPUyEu7R3_AaXZGhj5S-190" vertex="1">
          <mxGeometry x="270" width="280" height="40" as="geometry">
            <mxRectangle width="280" height="40" as="alternateBounds" />
          </mxGeometry>
        </mxCell>
        <mxCell id="pMPUyEu7R3_AaXZGhj5S-196" value="R" style="connectable=0;recursiveResize=0;strokeColor=inherit;fillColor=none;align=center;whiteSpace=wrap;html=1;" parent="pMPUyEu7R3_AaXZGhj5S-190" vertex="1">
          <mxGeometry x="550" width="20" height="40" as="geometry">
            <mxRectangle width="20" height="40" as="alternateBounds" />
          </mxGeometry>
        </mxCell>
        <mxCell id="pMPUyEu7R3_AaXZGhj5S-197" value="Ignored" style="connectable=0;recursiveResize=0;strokeColor=inherit;fillColor=none;align=center;whiteSpace=wrap;html=1;" parent="pMPUyEu7R3_AaXZGhj5S-190" vertex="1">
          <mxGeometry x="570" width="50" height="40" as="geometry">
            <mxRectangle width="50" height="40" as="alternateBounds" />
          </mxGeometry>
        </mxCell>
        <mxCell id="pMPUyEu7R3_AaXZGhj5S-198" value="G" style="connectable=0;recursiveResize=0;strokeColor=inherit;fillColor=none;align=center;whiteSpace=wrap;html=1;" parent="pMPUyEu7R3_AaXZGhj5S-190" vertex="1">
          <mxGeometry x="620" width="20" height="40" as="geometry">
            <mxRectangle width="20" height="40" as="alternateBounds" />
          </mxGeometry>
        </mxCell>
        <mxCell id="pMPUyEu7R3_AaXZGhj5S-199" value="PAT" style="connectable=0;recursiveResize=0;strokeColor=inherit;fillColor=none;align=center;whiteSpace=wrap;html=1;" parent="pMPUyEu7R3_AaXZGhj5S-190" vertex="1">
          <mxGeometry x="640" width="30" height="40" as="geometry">
            <mxRectangle width="30" height="40" as="alternateBounds" />
          </mxGeometry>
        </mxCell>
        <mxCell id="pMPUyEu7R3_AaXZGhj5S-200" value="D" style="connectable=0;recursiveResize=0;strokeColor=inherit;fillColor=none;align=center;whiteSpace=wrap;html=1;" parent="pMPUyEu7R3_AaXZGhj5S-190" vertex="1">
          <mxGeometry x="670" width="20" height="40" as="geometry">
            <mxRectangle width="20" height="40" as="alternateBounds" />
          </mxGeometry>
        </mxCell>
        <mxCell id="pMPUyEu7R3_AaXZGhj5S-201" value="A" style="connectable=0;recursiveResize=0;strokeColor=inherit;fillColor=none;align=center;whiteSpace=wrap;html=1;" parent="pMPUyEu7R3_AaXZGhj5S-190" vertex="1">
          <mxGeometry x="690" width="20" height="40" as="geometry">
            <mxRectangle width="20" height="40" as="alternateBounds" />
          </mxGeometry>
        </mxCell>
        <mxCell id="pMPUyEu7R3_AaXZGhj5S-202" value="PCD" style="connectable=0;recursiveResize=0;strokeColor=inherit;fillColor=none;align=center;whiteSpace=wrap;html=1;" parent="pMPUyEu7R3_AaXZGhj5S-190" vertex="1">
          <mxGeometry x="710" width="30" height="40" as="geometry">
            <mxRectangle width="30" height="40" as="alternateBounds" />
          </mxGeometry>
        </mxCell>
        <mxCell id="pMPUyEu7R3_AaXZGhj5S-203" value="PWT" style="connectable=0;recursiveResize=0;strokeColor=inherit;fillColor=none;align=center;whiteSpace=wrap;html=1;" parent="pMPUyEu7R3_AaXZGhj5S-190" vertex="1">
          <mxGeometry x="740" width="30" height="40" as="geometry">
            <mxRectangle width="30" height="40" as="alternateBounds" />
          </mxGeometry>
        </mxCell>
        <mxCell id="pMPUyEu7R3_AaXZGhj5S-204" value="U/S" style="connectable=0;recursiveResize=0;strokeColor=inherit;fillColor=none;align=center;whiteSpace=wrap;html=1;" parent="pMPUyEu7R3_AaXZGhj5S-190" vertex="1">
          <mxGeometry x="770" width="30" height="40" as="geometry">
            <mxRectangle width="30" height="40" as="alternateBounds" />
          </mxGeometry>
        </mxCell>
        <mxCell id="pMPUyEu7R3_AaXZGhj5S-205" value="R/W" style="connectable=0;recursiveResize=0;strokeColor=inherit;fillColor=none;align=center;whiteSpace=wrap;html=1;" parent="pMPUyEu7R3_AaXZGhj5S-190" vertex="1">
          <mxGeometry x="800" width="27" height="40" as="geometry">
            <mxRectangle width="27" height="40" as="alternateBounds" />
          </mxGeometry>
        </mxCell>
        <mxCell id="pMPUyEu7R3_AaXZGhj5S-206" value="P" style="connectable=0;recursiveResize=0;strokeColor=inherit;fillColor=none;align=center;whiteSpace=wrap;html=1;" parent="pMPUyEu7R3_AaXZGhj5S-190" vertex="1">
          <mxGeometry x="827" width="23" height="40" as="geometry">
            <mxRectangle width="23" height="40" as="alternateBounds" />
          </mxGeometry>
        </mxCell>
        <mxCell id="pMPUyEu7R3_AaXZGhj5S-207" value="63" style="text;html=1;align=center;verticalAlign=middle;whiteSpace=wrap;rounded=0;" parent="1" vertex="1">
          <mxGeometry x="-10" y="1000" width="30" height="30" as="geometry" />
        </mxCell>
        <mxCell id="pMPUyEu7R3_AaXZGhj5S-208" value="63：59" style="text;html=1;align=center;verticalAlign=middle;whiteSpace=wrap;rounded=0;" parent="1" vertex="1">
          <mxGeometry x="20" y="1000" width="60" height="30" as="geometry" />
        </mxCell>
        <mxCell id="pMPUyEu7R3_AaXZGhj5S-209" value="58" style="text;html=1;align=center;verticalAlign=middle;whiteSpace=wrap;rounded=0;" parent="1" vertex="1">
          <mxGeometry x="90" y="1000" width="30" height="30" as="geometry" />
        </mxCell>
        <mxCell id="pMPUyEu7R3_AaXZGhj5S-210" value="52：36" style="text;html=1;align=center;verticalAlign=middle;whiteSpace=wrap;rounded=0;" parent="1" vertex="1">
          <mxGeometry x="170" y="1000" width="60" height="30" as="geometry" />
        </mxCell>
        <mxCell id="pMPUyEu7R3_AaXZGhj5S-211" value="35：12" style="text;html=1;align=center;verticalAlign=middle;whiteSpace=wrap;rounded=0;" parent="1" vertex="1">
          <mxGeometry x="380" y="1000" width="60" height="30" as="geometry" />
        </mxCell>
        <mxCell id="pMPUyEu7R3_AaXZGhj5S-212" value="11" style="text;html=1;align=center;verticalAlign=middle;whiteSpace=wrap;rounded=0;" parent="1" vertex="1">
          <mxGeometry x="550" y="1000" width="20" height="30" as="geometry" />
        </mxCell>
        <mxCell id="pMPUyEu7R3_AaXZGhj5S-213" value="10：9" style="text;html=1;align=center;verticalAlign=middle;whiteSpace=wrap;rounded=0;" parent="1" vertex="1">
          <mxGeometry x="575" y="1000" width="40" height="30" as="geometry" />
        </mxCell>
        <mxCell id="pMPUyEu7R3_AaXZGhj5S-214" value="8" style="text;html=1;align=center;verticalAlign=middle;whiteSpace=wrap;rounded=0;" parent="1" vertex="1">
          <mxGeometry x="624" y="1000" width="10" height="30" as="geometry" />
        </mxCell>
        <mxCell id="pMPUyEu7R3_AaXZGhj5S-215" value="7" style="text;html=1;align=center;verticalAlign=middle;whiteSpace=wrap;rounded=0;" parent="1" vertex="1">
          <mxGeometry x="644" y="1000" width="20" height="30" as="geometry" />
        </mxCell>
        <mxCell id="pMPUyEu7R3_AaXZGhj5S-216" value="6" style="text;html=1;align=center;verticalAlign=middle;whiteSpace=wrap;rounded=0;" parent="1" vertex="1">
          <mxGeometry x="669" y="1000" width="20" height="30" as="geometry" />
        </mxCell>
        <mxCell id="pMPUyEu7R3_AaXZGhj5S-217" value="4" style="text;html=1;align=center;verticalAlign=middle;whiteSpace=wrap;rounded=0;" parent="1" vertex="1">
          <mxGeometry x="715" y="1000" width="20" height="30" as="geometry" />
        </mxCell>
        <mxCell id="pMPUyEu7R3_AaXZGhj5S-218" value="2" style="text;html=1;align=center;verticalAlign=middle;whiteSpace=wrap;rounded=0;" parent="1" vertex="1">
          <mxGeometry x="774" y="1000" width="20" height="30" as="geometry" />
        </mxCell>
        <mxCell id="pMPUyEu7R3_AaXZGhj5S-219" value="1" style="text;html=1;align=center;verticalAlign=middle;whiteSpace=wrap;rounded=0;" parent="1" vertex="1">
          <mxGeometry x="803" y="1000" width="20" height="30" as="geometry" />
        </mxCell>
        <mxCell id="pMPUyEu7R3_AaXZGhj5S-220" value="0" style="text;html=1;align=center;verticalAlign=middle;whiteSpace=wrap;rounded=0;" parent="1" vertex="1">
          <mxGeometry x="830" y="1000" width="20" height="30" as="geometry" />
        </mxCell>
        <mxCell id="pMPUyEu7R3_AaXZGhj5S-221" value="3" style="text;html=1;align=center;verticalAlign=middle;whiteSpace=wrap;rounded=0;" parent="1" vertex="1">
          <mxGeometry x="745" y="1000" width="20" height="30" as="geometry" />
        </mxCell>
        <mxCell id="pMPUyEu7R3_AaXZGhj5S-222" value="5" style="text;html=1;align=center;verticalAlign=middle;whiteSpace=wrap;rounded=0;" parent="1" vertex="1">
          <mxGeometry x="689" y="1000" width="20" height="30" as="geometry" />
        </mxCell>
        <mxCell id="pMPUyEu7R3_AaXZGhj5S-223" value="x86_64 CPU PTE" style="text;strokeColor=none;fillColor=none;html=1;fontSize=24;fontStyle=1;verticalAlign=middle;align=center;" parent="1" vertex="1">
          <mxGeometry x="-240" y="1040" width="200" height="40" as="geometry" />
        </mxCell>
        <mxCell id="pMPUyEu7R3_AaXZGhj5S-224" value="" style="childLayout=tableLayout;recursiveResize=0;shadow=0;fillColor=#fff2cc;strokeColor=#d6b656;glass=0;rounded=0;" parent="1" vertex="1">
          <mxGeometry x="-1" y="1520" width="851" height="40" as="geometry" />
        </mxCell>
        <mxCell id="pMPUyEu7R3_AaXZGhj5S-225" value="" style="shape=tableRow;horizontal=0;startSize=0;swimlaneHead=0;swimlaneBody=0;top=0;left=0;bottom=0;right=0;dropTarget=0;collapsible=0;recursiveResize=0;expand=0;fontStyle=0;fillColor=none;strokeColor=inherit;" parent="pMPUyEu7R3_AaXZGhj5S-224" vertex="1">
          <mxGeometry width="851" height="40" as="geometry" />
        </mxCell>
        <mxCell id="pMPUyEu7R3_AaXZGhj5S-227" value="Reserved" style="connectable=0;recursiveResize=0;strokeColor=inherit;fillColor=none;align=center;whiteSpace=wrap;html=1;" parent="pMPUyEu7R3_AaXZGhj5S-225" vertex="1">
          <mxGeometry width="136" height="40" as="geometry">
            <mxRectangle width="136" height="40" as="alternateBounds" />
          </mxGeometry>
        </mxCell>
        <mxCell id="pMPUyEu7R3_AaXZGhj5S-228" value="ADDRESS" style="connectable=0;recursiveResize=0;strokeColor=inherit;fillColor=none;align=center;whiteSpace=wrap;html=1;" parent="pMPUyEu7R3_AaXZGhj5S-225" vertex="1">
          <mxGeometry x="136" width="352" height="40" as="geometry">
            <mxRectangle width="352" height="40" as="alternateBounds" />
          </mxGeometry>
        </mxCell>
        <mxCell id="pMPUyEu7R3_AaXZGhj5S-229" value="Reserved" style="connectable=0;recursiveResize=0;strokeColor=inherit;fillColor=none;align=center;whiteSpace=wrap;html=1;" parent="pMPUyEu7R3_AaXZGhj5S-225" vertex="1">
          <mxGeometry x="488" width="77" height="40" as="geometry">
            <mxRectangle width="77" height="40" as="alternateBounds" />
          </mxGeometry>
        </mxCell>
        <mxCell id="pMPUyEu7R3_AaXZGhj5S-230" value="PageCacheFlag" style="connectable=0;recursiveResize=0;strokeColor=inherit;fillColor=none;align=center;whiteSpace=wrap;html=1;" parent="pMPUyEu7R3_AaXZGhj5S-225" vertex="1">
          <mxGeometry x="565" width="99" height="40" as="geometry">
            <mxRectangle width="99" height="40" as="alternateBounds" />
          </mxGeometry>
        </mxCell>
        <mxCell id="pMPUyEu7R3_AaXZGhj5S-231" value="APERTURE" style="connectable=0;recursiveResize=0;strokeColor=inherit;fillColor=none;align=center;whiteSpace=wrap;html=1;" parent="pMPUyEu7R3_AaXZGhj5S-225" vertex="1">
          <mxGeometry x="664" width="97" height="40" as="geometry">
            <mxRectangle width="97" height="40" as="alternateBounds" />
          </mxGeometry>
        </mxCell>
        <mxCell id="pMPUyEu7R3_AaXZGhj5S-232" value="PDE_is_PTE" style="connectable=0;recursiveResize=0;strokeColor=inherit;fillColor=none;align=center;whiteSpace=wrap;html=1;" parent="pMPUyEu7R3_AaXZGhj5S-225" vertex="1">
          <mxGeometry x="761" width="90" height="40" as="geometry">
            <mxRectangle width="90" height="40" as="alternateBounds" />
          </mxGeometry>
        </mxCell>
        <mxCell id="pMPUyEu7R3_AaXZGhj5S-233" value="V" style="connectable=0;recursiveResize=0;strokeColor=#d6b656;fillColor=#fff2cc;align=center;whiteSpace=wrap;html=1;" parent="1" vertex="1">
          <mxGeometry x="760" y="1560" width="90" height="40" as="geometry">
            <mxRectangle width="31" height="40" as="alternateBounds" />
          </mxGeometry>
        </mxCell>
        <mxCell id="pMPUyEu7R3_AaXZGhj5S-234" value="" style="childLayout=tableLayout;recursiveResize=0;shadow=0;fillColor=#fff2cc;strokeColor=#d6b656;glass=0;rounded=0;" parent="1" vertex="1">
          <mxGeometry x="-2" y="1680" width="851" height="40" as="geometry" />
        </mxCell>
        <mxCell id="pMPUyEu7R3_AaXZGhj5S-235" value="" style="shape=tableRow;horizontal=0;startSize=0;swimlaneHead=0;swimlaneBody=0;top=0;left=0;bottom=0;right=0;dropTarget=0;collapsible=0;recursiveResize=0;expand=0;fontStyle=0;fillColor=none;strokeColor=inherit;" parent="pMPUyEu7R3_AaXZGhj5S-234" vertex="1">
          <mxGeometry width="851" height="40" as="geometry" />
        </mxCell>
        <mxCell id="pMPUyEu7R3_AaXZGhj5S-236" value="Reserved" style="connectable=0;recursiveResize=0;strokeColor=inherit;fillColor=none;align=center;whiteSpace=wrap;html=1;" parent="pMPUyEu7R3_AaXZGhj5S-235" vertex="1">
          <mxGeometry width="136" height="40" as="geometry">
            <mxRectangle width="136" height="40" as="alternateBounds" />
          </mxGeometry>
        </mxCell>
        <mxCell id="pMPUyEu7R3_AaXZGhj5S-237" value="ADDRESS" style="connectable=0;recursiveResize=0;strokeColor=inherit;fillColor=none;align=center;whiteSpace=wrap;html=1;" parent="pMPUyEu7R3_AaXZGhj5S-235" vertex="1">
          <mxGeometry x="136" width="352" height="40" as="geometry">
            <mxRectangle width="352" height="40" as="alternateBounds" />
          </mxGeometry>
        </mxCell>
        <mxCell id="pMPUyEu7R3_AaXZGhj5S-238" value="Reserved" style="connectable=0;recursiveResize=0;strokeColor=inherit;fillColor=none;align=center;whiteSpace=wrap;html=1;" parent="pMPUyEu7R3_AaXZGhj5S-235" vertex="1">
          <mxGeometry x="488" width="77" height="40" as="geometry">
            <mxRectangle width="77" height="40" as="alternateBounds" />
          </mxGeometry>
        </mxCell>
        <mxCell id="pMPUyEu7R3_AaXZGhj5S-239" value="PageCacheFlag" style="connectable=0;recursiveResize=0;strokeColor=inherit;fillColor=none;align=center;whiteSpace=wrap;html=1;" parent="pMPUyEu7R3_AaXZGhj5S-235" vertex="1">
          <mxGeometry x="565" width="99" height="40" as="geometry">
            <mxRectangle width="99" height="40" as="alternateBounds" />
          </mxGeometry>
        </mxCell>
        <mxCell id="pMPUyEu7R3_AaXZGhj5S-240" value="APERTURE_SMALL" style="connectable=0;recursiveResize=0;strokeColor=inherit;fillColor=none;align=center;whiteSpace=wrap;html=1;" parent="pMPUyEu7R3_AaXZGhj5S-235" vertex="1">
          <mxGeometry x="664" width="97" height="40" as="geometry">
            <mxRectangle width="97" height="40" as="alternateBounds" />
          </mxGeometry>
        </mxCell>
        <mxCell id="pMPUyEu7R3_AaXZGhj5S-241" value="Reserved" style="connectable=0;recursiveResize=0;strokeColor=inherit;fillColor=none;align=center;whiteSpace=wrap;html=1;" parent="pMPUyEu7R3_AaXZGhj5S-235" vertex="1">
          <mxGeometry x="761" width="90" height="40" as="geometry">
            <mxRectangle width="90" height="40" as="alternateBounds" />
          </mxGeometry>
        </mxCell>
        <mxCell id="pMPUyEu7R3_AaXZGhj5S-243" value="0" style="text;html=1;align=center;verticalAlign=middle;whiteSpace=wrap;rounded=0;" parent="1" vertex="1">
          <mxGeometry x="792" y="1480" width="20" height="30" as="geometry" />
        </mxCell>
        <mxCell id="pMPUyEu7R3_AaXZGhj5S-244" value="2：1" style="text;html=1;align=center;verticalAlign=middle;whiteSpace=wrap;rounded=0;" parent="1" vertex="1">
          <mxGeometry x="689" y="1480" width="50" height="30" as="geometry" />
        </mxCell>
        <mxCell id="pMPUyEu7R3_AaXZGhj5S-245" value="5：3" style="text;html=1;align=center;verticalAlign=middle;whiteSpace=wrap;rounded=0;" parent="1" vertex="1">
          <mxGeometry x="604" y="1480" width="50" height="30" as="geometry" />
        </mxCell>
        <mxCell id="pMPUyEu7R3_AaXZGhj5S-246" value="11：6" style="text;html=1;align=center;verticalAlign=middle;whiteSpace=wrap;rounded=0;" parent="1" vertex="1">
          <mxGeometry x="500" y="1480" width="50" height="30" as="geometry" />
        </mxCell>
        <mxCell id="pMPUyEu7R3_AaXZGhj5S-247" value="51：12" style="text;html=1;align=center;verticalAlign=middle;whiteSpace=wrap;rounded=0;" parent="1" vertex="1">
          <mxGeometry x="341" y="1480" width="50" height="30" as="geometry" />
        </mxCell>
        <mxCell id="pMPUyEu7R3_AaXZGhj5S-248" value="63：52" style="text;html=1;align=center;verticalAlign=middle;whiteSpace=wrap;rounded=0;" parent="1" vertex="1">
          <mxGeometry x="41" y="1480" width="50" height="30" as="geometry" />
        </mxCell>
        <mxCell id="pMPUyEu7R3_AaXZGhj5S-249" value="64" style="text;html=1;align=center;verticalAlign=middle;whiteSpace=wrap;rounded=0;" parent="1" vertex="1">
          <mxGeometry x="791" y="1640" width="20" height="30" as="geometry" />
        </mxCell>
        <mxCell id="pMPUyEu7R3_AaXZGhj5S-250" value="66：65" style="text;html=1;align=center;verticalAlign=middle;whiteSpace=wrap;rounded=0;" parent="1" vertex="1">
          <mxGeometry x="688" y="1640" width="50" height="30" as="geometry" />
        </mxCell>
        <mxCell id="pMPUyEu7R3_AaXZGhj5S-251" value="69：67" style="text;html=1;align=center;verticalAlign=middle;whiteSpace=wrap;rounded=0;" parent="1" vertex="1">
          <mxGeometry x="603" y="1640" width="50" height="30" as="geometry" />
        </mxCell>
        <mxCell id="pMPUyEu7R3_AaXZGhj5S-252" value="75：70" style="text;html=1;align=center;verticalAlign=middle;whiteSpace=wrap;rounded=0;" parent="1" vertex="1">
          <mxGeometry x="499" y="1640" width="50" height="30" as="geometry" />
        </mxCell>
        <mxCell id="pMPUyEu7R3_AaXZGhj5S-253" value="115：76" style="text;html=1;align=center;verticalAlign=middle;whiteSpace=wrap;rounded=0;" parent="1" vertex="1">
          <mxGeometry x="340" y="1640" width="50" height="30" as="geometry" />
        </mxCell>
        <mxCell id="pMPUyEu7R3_AaXZGhj5S-254" value="128：116" style="text;html=1;align=center;verticalAlign=middle;whiteSpace=wrap;rounded=0;" parent="1" vertex="1">
          <mxGeometry x="40" y="1640" width="70" height="30" as="geometry" />
        </mxCell>
        <mxCell id="pMPUyEu7R3_AaXZGhj5S-255" value="" style="childLayout=tableLayout;recursiveResize=0;shadow=0;fillColor=#fff2cc;strokeColor=#d6b656;glass=0;rounded=0;" parent="1" vertex="1">
          <mxGeometry y="1800" width="851" height="40" as="geometry" />
        </mxCell>
        <mxCell id="pMPUyEu7R3_AaXZGhj5S-256" value="" style="shape=tableRow;horizontal=0;startSize=0;swimlaneHead=0;swimlaneBody=0;top=0;left=0;bottom=0;right=0;dropTarget=0;collapsible=0;recursiveResize=0;expand=0;fontStyle=0;fillColor=none;strokeColor=inherit;" parent="pMPUyEu7R3_AaXZGhj5S-255" vertex="1">
          <mxGeometry width="851" height="40" as="geometry" />
        </mxCell>
        <mxCell id="pMPUyEu7R3_AaXZGhj5S-257" value="Reserved" style="connectable=0;recursiveResize=0;strokeColor=inherit;fillColor=none;align=center;whiteSpace=wrap;html=1;" parent="pMPUyEu7R3_AaXZGhj5S-256" vertex="1">
          <mxGeometry width="136" height="40" as="geometry">
            <mxRectangle width="136" height="40" as="alternateBounds" />
          </mxGeometry>
        </mxCell>
        <mxCell id="pMPUyEu7R3_AaXZGhj5S-258" value="ADDRESS" style="connectable=0;recursiveResize=0;strokeColor=inherit;fillColor=none;align=center;whiteSpace=wrap;html=1;" parent="pMPUyEu7R3_AaXZGhj5S-256" vertex="1">
          <mxGeometry x="136" width="352" height="40" as="geometry">
            <mxRectangle width="352" height="40" as="alternateBounds" />
          </mxGeometry>
        </mxCell>
        <mxCell id="pMPUyEu7R3_AaXZGhj5S-259" value="Reserved" style="connectable=0;recursiveResize=0;strokeColor=inherit;fillColor=none;align=center;whiteSpace=wrap;html=1;" parent="pMPUyEu7R3_AaXZGhj5S-256" vertex="1">
          <mxGeometry x="488" width="77" height="40" as="geometry">
            <mxRectangle width="77" height="40" as="alternateBounds" />
          </mxGeometry>
        </mxCell>
        <mxCell id="pMPUyEu7R3_AaXZGhj5S-260" value="PageCacheFlag" style="connectable=0;recursiveResize=0;strokeColor=inherit;fillColor=none;align=center;whiteSpace=wrap;html=1;" parent="pMPUyEu7R3_AaXZGhj5S-256" vertex="1">
          <mxGeometry x="565" width="99" height="40" as="geometry">
            <mxRectangle width="99" height="40" as="alternateBounds" />
          </mxGeometry>
        </mxCell>
        <mxCell id="pMPUyEu7R3_AaXZGhj5S-261" value="APERTURE_BIG" style="connectable=0;recursiveResize=0;strokeColor=inherit;fillColor=none;align=center;whiteSpace=wrap;html=1;" parent="pMPUyEu7R3_AaXZGhj5S-256" vertex="1">
          <mxGeometry x="664" width="97" height="40" as="geometry">
            <mxRectangle width="97" height="40" as="alternateBounds" />
          </mxGeometry>
        </mxCell>
        <mxCell id="pMPUyEu7R3_AaXZGhj5S-262" value="PDE_is_PTE" style="connectable=0;recursiveResize=0;strokeColor=inherit;fillColor=none;align=center;whiteSpace=wrap;html=1;" parent="pMPUyEu7R3_AaXZGhj5S-256" vertex="1">
          <mxGeometry x="761" width="90" height="40" as="geometry">
            <mxRectangle width="90" height="40" as="alternateBounds" />
          </mxGeometry>
        </mxCell>
        <mxCell id="pMPUyEu7R3_AaXZGhj5S-263" value="V" style="connectable=0;recursiveResize=0;strokeColor=#d6b656;fillColor=#fff2cc;align=center;whiteSpace=wrap;html=1;" parent="1" vertex="1">
          <mxGeometry x="761" y="1840" width="90" height="40" as="geometry">
            <mxRectangle width="31" height="40" as="alternateBounds" />
          </mxGeometry>
        </mxCell>
        <mxCell id="pMPUyEu7R3_AaXZGhj5S-264" value="0" style="text;html=1;align=center;verticalAlign=middle;whiteSpace=wrap;rounded=0;" parent="1" vertex="1">
          <mxGeometry x="793" y="1760" width="20" height="30" as="geometry" />
        </mxCell>
        <mxCell id="pMPUyEu7R3_AaXZGhj5S-265" value="2：1" style="text;html=1;align=center;verticalAlign=middle;whiteSpace=wrap;rounded=0;" parent="1" vertex="1">
          <mxGeometry x="690" y="1760" width="50" height="30" as="geometry" />
        </mxCell>
        <mxCell id="pMPUyEu7R3_AaXZGhj5S-266" value="5：3" style="text;html=1;align=center;verticalAlign=middle;whiteSpace=wrap;rounded=0;" parent="1" vertex="1">
          <mxGeometry x="605" y="1760" width="50" height="30" as="geometry" />
        </mxCell>
        <mxCell id="pMPUyEu7R3_AaXZGhj5S-267" value="7：6" style="text;html=1;align=center;verticalAlign=middle;whiteSpace=wrap;rounded=0;" parent="1" vertex="1">
          <mxGeometry x="501" y="1760" width="50" height="30" as="geometry" />
        </mxCell>
        <mxCell id="pMPUyEu7R3_AaXZGhj5S-268" value="51：8" style="text;html=1;align=center;verticalAlign=middle;whiteSpace=wrap;rounded=0;" parent="1" vertex="1">
          <mxGeometry x="342" y="1760" width="50" height="30" as="geometry" />
        </mxCell>
        <mxCell id="pMPUyEu7R3_AaXZGhj5S-269" value="63：52" style="text;html=1;align=center;verticalAlign=middle;whiteSpace=wrap;rounded=0;" parent="1" vertex="1">
          <mxGeometry x="42" y="1760" width="50" height="30" as="geometry" />
        </mxCell>
        <mxCell id="pMPUyEu7R3_AaXZGhj5S-272" value="" style="childLayout=tableLayout;recursiveResize=0;shadow=0;fillColor=#ffe6cc;strokeColor=#d79b00;glass=0;rounded=0;" parent="1" vertex="1">
          <mxGeometry y="1200" width="850" height="40" as="geometry" />
        </mxCell>
        <mxCell id="pMPUyEu7R3_AaXZGhj5S-273" value="" style="shape=tableRow;horizontal=0;startSize=0;swimlaneHead=0;swimlaneBody=0;top=0;left=0;bottom=0;right=0;dropTarget=0;collapsible=0;recursiveResize=0;expand=0;fontStyle=0;fillColor=none;strokeColor=inherit;" parent="pMPUyEu7R3_AaXZGhj5S-272" vertex="1">
          <mxGeometry width="850" height="40" as="geometry" />
        </mxCell>
        <mxCell id="pMPUyEu7R3_AaXZGhj5S-274" value="Reserved" style="connectable=0;recursiveResize=0;strokeColor=inherit;fillColor=none;align=center;whiteSpace=wrap;html=1;" parent="pMPUyEu7R3_AaXZGhj5S-273" vertex="1">
          <mxGeometry width="61" height="40" as="geometry">
            <mxRectangle width="61" height="40" as="alternateBounds" />
          </mxGeometry>
        </mxCell>
        <mxCell id="pMPUyEu7R3_AaXZGhj5S-275" value="UXN" style="connectable=0;recursiveResize=0;strokeColor=inherit;fillColor=none;align=center;whiteSpace=wrap;html=1;" parent="pMPUyEu7R3_AaXZGhj5S-273" vertex="1">
          <mxGeometry x="61" width="30" height="40" as="geometry">
            <mxRectangle width="30" height="40" as="alternateBounds" />
          </mxGeometry>
        </mxCell>
        <mxCell id="pMPUyEu7R3_AaXZGhj5S-293" value="PXN" style="connectable=0;recursiveResize=0;strokeColor=inherit;fillColor=none;align=center;whiteSpace=wrap;html=1;" parent="pMPUyEu7R3_AaXZGhj5S-273" vertex="1">
          <mxGeometry x="91" width="30" height="40" as="geometry">
            <mxRectangle width="30" height="40" as="alternateBounds" />
          </mxGeometry>
        </mxCell>
        <mxCell id="pMPUyEu7R3_AaXZGhj5S-294" value="CONT" style="connectable=0;recursiveResize=0;strokeColor=inherit;fillColor=none;align=center;whiteSpace=wrap;html=1;" parent="pMPUyEu7R3_AaXZGhj5S-273" vertex="1">
          <mxGeometry x="121" width="41" height="40" as="geometry">
            <mxRectangle width="41" height="40" as="alternateBounds" />
          </mxGeometry>
        </mxCell>
        <mxCell id="pMPUyEu7R3_AaXZGhj5S-295" value="DBM" style="connectable=0;recursiveResize=0;strokeColor=inherit;fillColor=none;align=center;whiteSpace=wrap;html=1;" parent="pMPUyEu7R3_AaXZGhj5S-273" vertex="1">
          <mxGeometry x="162" width="30" height="40" as="geometry">
            <mxRectangle width="30" height="40" as="alternateBounds" />
          </mxGeometry>
        </mxCell>
        <mxCell id="pMPUyEu7R3_AaXZGhj5S-296" value="GP" style="connectable=0;recursiveResize=0;strokeColor=inherit;fillColor=none;align=center;whiteSpace=wrap;html=1;" parent="pMPUyEu7R3_AaXZGhj5S-273" vertex="1">
          <mxGeometry x="192" width="31" height="40" as="geometry">
            <mxRectangle width="31" height="40" as="alternateBounds" />
          </mxGeometry>
        </mxCell>
        <mxCell id="pMPUyEu7R3_AaXZGhj5S-276" value="ADDRESS" style="connectable=0;recursiveResize=0;strokeColor=inherit;fillColor=none;align=center;whiteSpace=wrap;html=1;" parent="pMPUyEu7R3_AaXZGhj5S-273" vertex="1">
          <mxGeometry x="223" width="374" height="40" as="geometry">
            <mxRectangle width="374" height="40" as="alternateBounds" />
          </mxGeometry>
        </mxCell>
        <mxCell id="pMPUyEu7R3_AaXZGhj5S-292" value="NG" style="connectable=0;recursiveResize=0;strokeColor=inherit;fillColor=none;align=center;whiteSpace=wrap;html=1;" parent="pMPUyEu7R3_AaXZGhj5S-273" vertex="1">
          <mxGeometry x="597" width="20" height="40" as="geometry">
            <mxRectangle width="20" height="40" as="alternateBounds" />
          </mxGeometry>
        </mxCell>
        <mxCell id="pMPUyEu7R3_AaXZGhj5S-291" value="AF" style="connectable=0;recursiveResize=0;strokeColor=inherit;fillColor=none;align=center;whiteSpace=wrap;html=1;" parent="pMPUyEu7R3_AaXZGhj5S-273" vertex="1">
          <mxGeometry x="617" width="20" height="40" as="geometry">
            <mxRectangle width="20" height="40" as="alternateBounds" />
          </mxGeometry>
        </mxCell>
        <mxCell id="pMPUyEu7R3_AaXZGhj5S-290" value="Shared" style="connectable=0;recursiveResize=0;strokeColor=inherit;fillColor=none;align=center;whiteSpace=wrap;html=1;" parent="pMPUyEu7R3_AaXZGhj5S-273" vertex="1">
          <mxGeometry x="637" width="51" height="40" as="geometry">
            <mxRectangle width="51" height="40" as="alternateBounds" />
          </mxGeometry>
        </mxCell>
        <mxCell id="pMPUyEu7R3_AaXZGhj5S-289" value="RO" style="connectable=0;recursiveResize=0;strokeColor=inherit;fillColor=none;align=center;whiteSpace=wrap;html=1;" parent="pMPUyEu7R3_AaXZGhj5S-273" vertex="1">
          <mxGeometry x="688" width="20" height="40" as="geometry">
            <mxRectangle width="20" height="40" as="alternateBounds" />
          </mxGeometry>
        </mxCell>
        <mxCell id="pMPUyEu7R3_AaXZGhj5S-277" value="User" style="connectable=0;recursiveResize=0;strokeColor=inherit;fillColor=none;align=center;whiteSpace=wrap;html=1;" parent="pMPUyEu7R3_AaXZGhj5S-273" vertex="1">
          <mxGeometry x="708" width="31" height="40" as="geometry">
            <mxRectangle width="31" height="40" as="alternateBounds" />
          </mxGeometry>
        </mxCell>
        <mxCell id="pMPUyEu7R3_AaXZGhj5S-278" value="Reserved" style="connectable=0;recursiveResize=0;strokeColor=inherit;fillColor=none;align=center;whiteSpace=wrap;html=1;" parent="pMPUyEu7R3_AaXZGhj5S-273" vertex="1">
          <mxGeometry x="739" width="60" height="40" as="geometry">
            <mxRectangle width="60" height="40" as="alternateBounds" />
          </mxGeometry>
        </mxCell>
        <mxCell id="pMPUyEu7R3_AaXZGhj5S-279" value="Table" style="connectable=0;recursiveResize=0;strokeColor=inherit;fillColor=none;align=center;whiteSpace=wrap;html=1;" parent="pMPUyEu7R3_AaXZGhj5S-273" vertex="1">
          <mxGeometry x="799" width="36" height="40" as="geometry">
            <mxRectangle width="36" height="40" as="alternateBounds" />
          </mxGeometry>
        </mxCell>
        <mxCell id="pMPUyEu7R3_AaXZGhj5S-280" value="V" style="connectable=0;recursiveResize=0;strokeColor=inherit;fillColor=none;align=center;whiteSpace=wrap;html=1;" parent="pMPUyEu7R3_AaXZGhj5S-273" vertex="1">
          <mxGeometry x="835" width="15" height="40" as="geometry">
            <mxRectangle width="15" height="40" as="alternateBounds" />
          </mxGeometry>
        </mxCell>
        <mxCell id="pMPUyEu7R3_AaXZGhj5S-281" value="0" style="text;html=1;align=center;verticalAlign=middle;whiteSpace=wrap;rounded=0;" parent="1" vertex="1">
          <mxGeometry x="829" y="1160" width="20" height="30" as="geometry" />
        </mxCell>
        <mxCell id="pMPUyEu7R3_AaXZGhj5S-282" value="5：2" style="text;html=1;align=center;verticalAlign=middle;whiteSpace=wrap;rounded=0;" parent="1" vertex="1">
          <mxGeometry x="740" y="1160" width="50" height="30" as="geometry" />
        </mxCell>
        <mxCell id="pMPUyEu7R3_AaXZGhj5S-283" value="7" style="text;html=1;align=center;verticalAlign=middle;whiteSpace=wrap;rounded=0;" parent="1" vertex="1">
          <mxGeometry x="688" y="1160" width="14" height="30" as="geometry" />
        </mxCell>
        <mxCell id="pMPUyEu7R3_AaXZGhj5S-284" value="11" style="text;html=1;align=center;verticalAlign=middle;whiteSpace=wrap;rounded=0;" parent="1" vertex="1">
          <mxGeometry x="600" y="1160" width="15" height="30" as="geometry" />
        </mxCell>
        <mxCell id="pMPUyEu7R3_AaXZGhj5S-285" value="49：12" style="text;html=1;align=center;verticalAlign=middle;whiteSpace=wrap;rounded=0;" parent="1" vertex="1">
          <mxGeometry x="341" y="1160" width="50" height="30" as="geometry" />
        </mxCell>
        <mxCell id="pMPUyEu7R3_AaXZGhj5S-286" value="52" style="text;html=1;align=center;verticalAlign=middle;whiteSpace=wrap;rounded=0;" parent="1" vertex="1">
          <mxGeometry x="131" y="1160" width="20" height="30" as="geometry" />
        </mxCell>
        <mxCell id="pMPUyEu7R3_AaXZGhj5S-287" value="63：55" style="text;html=1;align=center;verticalAlign=middle;whiteSpace=wrap;rounded=0;" parent="1" vertex="1">
          <mxGeometry y="1160" width="50" height="30" as="geometry" />
        </mxCell>
        <mxCell id="pMPUyEu7R3_AaXZGhj5S-288" value="arm64 CPU PTE" style="text;strokeColor=none;fillColor=none;html=1;fontSize=24;fontStyle=1;verticalAlign=middle;align=center;" parent="1" vertex="1">
          <mxGeometry x="-240" y="1200" width="200" height="40" as="geometry" />
        </mxCell>
        <mxCell id="pMPUyEu7R3_AaXZGhj5S-297" value="54" style="text;html=1;align=center;verticalAlign=middle;whiteSpace=wrap;rounded=0;" parent="1" vertex="1">
          <mxGeometry x="60" y="1160" width="20" height="30" as="geometry" />
        </mxCell>
        <mxCell id="pMPUyEu7R3_AaXZGhj5S-298" value="53" style="text;html=1;align=center;verticalAlign=middle;whiteSpace=wrap;rounded=0;" parent="1" vertex="1">
          <mxGeometry x="90" y="1160" width="20" height="30" as="geometry" />
        </mxCell>
        <mxCell id="pMPUyEu7R3_AaXZGhj5S-299" value="51" style="text;html=1;align=center;verticalAlign=middle;whiteSpace=wrap;rounded=0;" parent="1" vertex="1">
          <mxGeometry x="160" y="1160" width="20" height="30" as="geometry" />
        </mxCell>
        <mxCell id="pMPUyEu7R3_AaXZGhj5S-300" value="50" style="text;html=1;align=center;verticalAlign=middle;whiteSpace=wrap;rounded=0;" parent="1" vertex="1">
          <mxGeometry x="200" y="1160" width="20" height="30" as="geometry" />
        </mxCell>
        <mxCell id="pMPUyEu7R3_AaXZGhj5S-301" value="10" style="text;html=1;align=center;verticalAlign=middle;whiteSpace=wrap;rounded=0;" parent="1" vertex="1">
          <mxGeometry x="620.5" y="1160" width="15" height="30" as="geometry" />
        </mxCell>
        <mxCell id="pMPUyEu7R3_AaXZGhj5S-302" value="9：8" style="text;html=1;align=center;verticalAlign=middle;whiteSpace=wrap;rounded=0;" parent="1" vertex="1">
          <mxGeometry x="645" y="1160" width="30" height="30" as="geometry" />
        </mxCell>
        <mxCell id="pMPUyEu7R3_AaXZGhj5S-304" value="6" style="text;html=1;align=center;verticalAlign=middle;whiteSpace=wrap;rounded=0;" parent="1" vertex="1">
          <mxGeometry x="714" y="1160" width="14" height="30" as="geometry" />
        </mxCell>
        <mxCell id="pMPUyEu7R3_AaXZGhj5S-305" value="1" style="text;html=1;align=center;verticalAlign=middle;whiteSpace=wrap;rounded=0;" parent="1" vertex="1">
          <mxGeometry x="803" y="1160" width="20" height="30" as="geometry" />
        </mxCell>
        <mxCell id="0BF_Uhh-Wfb8hcxMOVuK-1" value="GPU PDE&lt;div&gt;V3&lt;/div&gt;" style="text;strokeColor=none;fillColor=none;html=1;fontSize=24;fontStyle=1;verticalAlign=middle;align=center;" parent="1" vertex="1">
          <mxGeometry x="-160" y="1500" width="100" height="80" as="geometry" />
        </mxCell>
        <mxCell id="0BF_Uhh-Wfb8hcxMOVuK-2" value="GPU PDE&lt;div&gt;BIG V3&lt;/div&gt;" style="text;strokeColor=none;fillColor=none;html=1;fontSize=24;fontStyle=1;verticalAlign=middle;align=center;" parent="1" vertex="1">
          <mxGeometry x="-170" y="1710" width="100" height="80" as="geometry" />
        </mxCell>
        <mxCell id="9qvqZgdFE7eqmu_w8_o--30" style="edgeStyle=orthogonalEdgeStyle;rounded=0;orthogonalLoop=1;jettySize=auto;html=1;exitX=0.5;exitY=0;exitDx=0;exitDy=0;entryX=0.5;entryY=1;entryDx=0;entryDy=0;" parent="1" source="9qvqZgdFE7eqmu_w8_o--1" target="9qvqZgdFE7eqmu_w8_o--27" edge="1">
          <mxGeometry relative="1" as="geometry" />
        </mxCell>
        <mxCell id="9qvqZgdFE7eqmu_w8_o--1" value="NVSwitch&lt;br&gt;（MCRID）" style="rounded=1;whiteSpace=wrap;html=1;strokeWidth=2;fontStyle=1;fontSize=14;strokeColor=#00CC00;" parent="1" vertex="1">
          <mxGeometry x="1240" y="160" width="120" height="40" as="geometry" />
        </mxCell>
        <mxCell id="9qvqZgdFE7eqmu_w8_o--10" style="rounded=0;orthogonalLoop=1;jettySize=auto;html=1;exitX=0.5;exitY=0;exitDx=0;exitDy=0;endArrow=none;startFill=0;strokeWidth=1;strokeColor=#00CC00;" parent="1" source="9qvqZgdFE7eqmu_w8_o--2" edge="1">
          <mxGeometry relative="1" as="geometry">
            <mxPoint x="1300" y="200" as="targetPoint" />
          </mxGeometry>
        </mxCell>
        <mxCell id="9qvqZgdFE7eqmu_w8_o--16" style="rounded=0;orthogonalLoop=1;jettySize=auto;html=1;exitX=0.5;exitY=0;exitDx=0;exitDy=0;entryX=0.5;entryY=1;entryDx=0;entryDy=0;endArrow=none;startFill=0;strokeWidth=1;strokeColor=#00CC00;" parent="1" source="9qvqZgdFE7eqmu_w8_o--2" target="9qvqZgdFE7eqmu_w8_o--11" edge="1">
          <mxGeometry relative="1" as="geometry" />
        </mxCell>
        <mxCell id="9qvqZgdFE7eqmu_w8_o--17" style="rounded=0;orthogonalLoop=1;jettySize=auto;html=1;exitX=0.5;exitY=0;exitDx=0;exitDy=0;endArrow=none;startFill=0;strokeWidth=1;strokeColor=#00CC00;" parent="1" source="9qvqZgdFE7eqmu_w8_o--2" edge="1">
          <mxGeometry relative="1" as="geometry">
            <mxPoint x="1620" y="200" as="targetPoint" />
          </mxGeometry>
        </mxCell>
        <mxCell id="9qvqZgdFE7eqmu_w8_o--35" style="edgeStyle=orthogonalEdgeStyle;rounded=0;orthogonalLoop=1;jettySize=auto;html=1;exitX=0.5;exitY=1;exitDx=0;exitDy=0;entryX=0.5;entryY=0;entryDx=0;entryDy=0;" parent="1" source="9qvqZgdFE7eqmu_w8_o--2" target="9qvqZgdFE7eqmu_w8_o--34" edge="1">
          <mxGeometry relative="1" as="geometry" />
        </mxCell>
        <mxCell id="9qvqZgdFE7eqmu_w8_o--36" value="2.1&amp;nbsp;&amp;nbsp;&lt;span style=&quot;background-color: light-dark(#ffffff, var(--ge-dark-color, #121212));&quot;&gt;cuMemCreate&amp;nbsp;&lt;/span&gt;" style="edgeLabel;html=1;align=center;verticalAlign=middle;resizable=0;points=[];fontSize=13;fontStyle=1;fontColor=#CC0000;" parent="9qvqZgdFE7eqmu_w8_o--35" vertex="1" connectable="0">
          <mxGeometry y="-3" relative="1" as="geometry">
            <mxPoint as="offset" />
          </mxGeometry>
        </mxCell>
        <mxCell id="9qvqZgdFE7eqmu_w8_o--2" value="GPU0" style="rounded=1;whiteSpace=wrap;html=1;strokeWidth=2;fontStyle=1;fontSize=14;strokeColor=#6666FF;" parent="1" vertex="1">
          <mxGeometry x="1160" y="280" width="120" height="40" as="geometry" />
        </mxCell>
        <mxCell id="9qvqZgdFE7eqmu_w8_o--18" style="rounded=0;orthogonalLoop=1;jettySize=auto;html=1;exitX=0.5;exitY=0;exitDx=0;exitDy=0;endArrow=none;startFill=0;strokeWidth=1;strokeColor=#00CC00;" parent="1" source="9qvqZgdFE7eqmu_w8_o--3" edge="1">
          <mxGeometry relative="1" as="geometry">
            <mxPoint x="1300" y="200" as="targetPoint" />
          </mxGeometry>
        </mxCell>
        <mxCell id="9qvqZgdFE7eqmu_w8_o--19" style="rounded=0;orthogonalLoop=1;jettySize=auto;html=1;exitX=0.5;exitY=0;exitDx=0;exitDy=0;entryX=0.5;entryY=1;entryDx=0;entryDy=0;endArrow=none;startFill=0;strokeWidth=1;strokeColor=#00CC00;" parent="1" source="9qvqZgdFE7eqmu_w8_o--3" target="9qvqZgdFE7eqmu_w8_o--11" edge="1">
          <mxGeometry relative="1" as="geometry" />
        </mxCell>
        <mxCell id="9qvqZgdFE7eqmu_w8_o--20" style="rounded=0;orthogonalLoop=1;jettySize=auto;html=1;exitX=0.5;exitY=0;exitDx=0;exitDy=0;entryX=0.5;entryY=1;entryDx=0;entryDy=0;endArrow=none;startFill=0;strokeWidth=1;strokeColor=#00CC00;" parent="1" source="9qvqZgdFE7eqmu_w8_o--3" target="9qvqZgdFE7eqmu_w8_o--12" edge="1">
          <mxGeometry relative="1" as="geometry" />
        </mxCell>
        <mxCell id="9qvqZgdFE7eqmu_w8_o--3" value="GPU2" style="rounded=1;whiteSpace=wrap;html=1;strokeWidth=2;fontStyle=1;fontSize=14;strokeColor=#6666FF;" parent="1" vertex="1">
          <mxGeometry x="1480" y="280" width="120" height="40" as="geometry" />
        </mxCell>
        <mxCell id="9qvqZgdFE7eqmu_w8_o--21" style="rounded=0;orthogonalLoop=1;jettySize=auto;html=1;exitX=0.5;exitY=0;exitDx=0;exitDy=0;entryX=0.5;entryY=1;entryDx=0;entryDy=0;endArrow=none;startFill=0;strokeWidth=1;strokeColor=#00CC00;" parent="1" source="9qvqZgdFE7eqmu_w8_o--4" target="9qvqZgdFE7eqmu_w8_o--1" edge="1">
          <mxGeometry relative="1" as="geometry" />
        </mxCell>
        <mxCell id="9qvqZgdFE7eqmu_w8_o--22" style="rounded=0;orthogonalLoop=1;jettySize=auto;html=1;exitX=0.5;exitY=0;exitDx=0;exitDy=0;entryX=0.5;entryY=1;entryDx=0;entryDy=0;endArrow=none;startFill=0;strokeWidth=1;strokeColor=#00CC00;" parent="1" source="9qvqZgdFE7eqmu_w8_o--4" target="9qvqZgdFE7eqmu_w8_o--11" edge="1">
          <mxGeometry relative="1" as="geometry" />
        </mxCell>
        <mxCell id="9qvqZgdFE7eqmu_w8_o--23" style="rounded=0;orthogonalLoop=1;jettySize=auto;html=1;exitX=0.5;exitY=0;exitDx=0;exitDy=0;entryX=0.5;entryY=1;entryDx=0;entryDy=0;endArrow=none;startFill=0;strokeWidth=1;strokeColor=#00CC00;" parent="1" source="9qvqZgdFE7eqmu_w8_o--4" target="9qvqZgdFE7eqmu_w8_o--12" edge="1">
          <mxGeometry relative="1" as="geometry" />
        </mxCell>
        <mxCell id="9qvqZgdFE7eqmu_w8_o--4" value="GPU3" style="rounded=1;whiteSpace=wrap;html=1;strokeWidth=2;fontStyle=1;fontSize=14;strokeColor=#6666FF;" parent="1" vertex="1">
          <mxGeometry x="1640" y="280" width="120" height="40" as="geometry" />
        </mxCell>
        <mxCell id="9qvqZgdFE7eqmu_w8_o--13" style="rounded=0;orthogonalLoop=1;jettySize=auto;html=1;exitX=0.5;exitY=0;exitDx=0;exitDy=0;entryX=0.5;entryY=1;entryDx=0;entryDy=0;endArrow=none;startFill=0;strokeWidth=1;strokeColor=#00CC00;" parent="1" source="9qvqZgdFE7eqmu_w8_o--5" target="9qvqZgdFE7eqmu_w8_o--11" edge="1">
          <mxGeometry relative="1" as="geometry" />
        </mxCell>
        <mxCell id="9qvqZgdFE7eqmu_w8_o--14" style="rounded=0;orthogonalLoop=1;jettySize=auto;html=1;exitX=0.5;exitY=0;exitDx=0;exitDy=0;entryX=0.5;entryY=1;entryDx=0;entryDy=0;endArrow=none;startFill=0;strokeWidth=1;strokeColor=#00CC00;" parent="1" source="9qvqZgdFE7eqmu_w8_o--5" target="9qvqZgdFE7eqmu_w8_o--1" edge="1">
          <mxGeometry relative="1" as="geometry" />
        </mxCell>
        <mxCell id="9qvqZgdFE7eqmu_w8_o--15" style="rounded=0;orthogonalLoop=1;jettySize=auto;html=1;exitX=0.5;exitY=0;exitDx=0;exitDy=0;entryX=0.5;entryY=1;entryDx=0;entryDy=0;endArrow=none;startFill=0;strokeWidth=1;strokeColor=#00CC00;" parent="1" source="9qvqZgdFE7eqmu_w8_o--5" target="9qvqZgdFE7eqmu_w8_o--12" edge="1">
          <mxGeometry relative="1" as="geometry" />
        </mxCell>
        <mxCell id="9qvqZgdFE7eqmu_w8_o--5" value="GPU1" style="rounded=1;whiteSpace=wrap;html=1;strokeWidth=2;fontStyle=1;fontSize=14;strokeColor=#6666FF;" parent="1" vertex="1">
          <mxGeometry x="1320" y="280" width="120" height="40" as="geometry" />
        </mxCell>
        <mxCell id="9qvqZgdFE7eqmu_w8_o--31" style="edgeStyle=orthogonalEdgeStyle;rounded=0;orthogonalLoop=1;jettySize=auto;html=1;exitX=0.5;exitY=0;exitDx=0;exitDy=0;" parent="1" source="9qvqZgdFE7eqmu_w8_o--11" edge="1">
          <mxGeometry relative="1" as="geometry">
            <mxPoint x="1460" y="80" as="targetPoint" />
          </mxGeometry>
        </mxCell>
        <mxCell id="9qvqZgdFE7eqmu_w8_o--33" value="1 cuMulticastCreate" style="edgeLabel;html=1;align=center;verticalAlign=middle;resizable=0;points=[];fontSize=13;fontStyle=1;fontColor=#CC0000;" parent="9qvqZgdFE7eqmu_w8_o--31" vertex="1" connectable="0">
          <mxGeometry x="-0.3044" relative="1" as="geometry">
            <mxPoint y="-22" as="offset" />
          </mxGeometry>
        </mxCell>
        <mxCell id="9qvqZgdFE7eqmu_w8_o--11" value="NVSwitch&lt;div&gt;（MCRID）&lt;/div&gt;" style="rounded=1;whiteSpace=wrap;html=1;strokeWidth=2;fontStyle=1;fontSize=14;strokeColor=#00CC00;" parent="1" vertex="1">
          <mxGeometry x="1400" y="160" width="120" height="40" as="geometry" />
        </mxCell>
        <mxCell id="9qvqZgdFE7eqmu_w8_o--32" style="edgeStyle=orthogonalEdgeStyle;rounded=0;orthogonalLoop=1;jettySize=auto;html=1;exitX=0.5;exitY=0;exitDx=0;exitDy=0;" parent="1" source="9qvqZgdFE7eqmu_w8_o--12" edge="1">
          <mxGeometry relative="1" as="geometry">
            <mxPoint x="1460" y="80" as="targetPoint" />
          </mxGeometry>
        </mxCell>
        <mxCell id="9qvqZgdFE7eqmu_w8_o--12" value="NVSwitch&lt;div&gt;（MCRID）&lt;/div&gt;" style="rounded=1;whiteSpace=wrap;html=1;strokeWidth=2;fontStyle=1;fontSize=14;strokeColor=#00CC00;" parent="1" vertex="1">
          <mxGeometry x="1560" y="160" width="120" height="40" as="geometry" />
        </mxCell>
        <mxCell id="9qvqZgdFE7eqmu_w8_o--54" value="" style="edgeStyle=orthogonalEdgeStyle;rounded=0;orthogonalLoop=1;jettySize=auto;html=1;" parent="1" source="9qvqZgdFE7eqmu_w8_o--27" target="9qvqZgdFE7eqmu_w8_o--53" edge="1">
          <mxGeometry relative="1" as="geometry" />
        </mxCell>
        <mxCell id="9qvqZgdFE7eqmu_w8_o--55" value="4. cuMemMap" style="edgeLabel;html=1;align=center;verticalAlign=middle;resizable=0;points=[];fontSize=13;fontStyle=1;fontColor=#CC0000;" parent="9qvqZgdFE7eqmu_w8_o--54" vertex="1" connectable="0">
          <mxGeometry x="-0.05" y="-3" relative="1" as="geometry">
            <mxPoint as="offset" />
          </mxGeometry>
        </mxCell>
        <mxCell id="9qvqZgdFE7eqmu_w8_o--57" style="edgeStyle=orthogonalEdgeStyle;rounded=0;orthogonalLoop=1;jettySize=auto;html=1;exitX=1;exitY=1;exitDx=0;exitDy=0;entryX=1;entryY=0.5;entryDx=0;entryDy=0;curved=1;" parent="1" source="9qvqZgdFE7eqmu_w8_o--27" target="9qvqZgdFE7eqmu_w8_o--12" edge="1">
          <mxGeometry relative="1" as="geometry" />
        </mxCell>
        <mxCell id="9qvqZgdFE7eqmu_w8_o--58" value="set MCRID" style="edgeLabel;html=1;align=center;verticalAlign=middle;resizable=0;points=[];fontStyle=1;fontSize=13;fontColor=#CC0000;" parent="9qvqZgdFE7eqmu_w8_o--57" vertex="1" connectable="0">
          <mxGeometry x="-0.3103" y="-4" relative="1" as="geometry">
            <mxPoint as="offset" />
          </mxGeometry>
        </mxCell>
        <mxCell id="9qvqZgdFE7eqmu_w8_o--60" style="edgeStyle=orthogonalEdgeStyle;rounded=0;orthogonalLoop=1;jettySize=auto;html=1;exitX=0;exitY=1;exitDx=0;exitDy=0;entryX=0;entryY=0.5;entryDx=0;entryDy=0;curved=1;" parent="1" source="9qvqZgdFE7eqmu_w8_o--27" target="9qvqZgdFE7eqmu_w8_o--1" edge="1">
          <mxGeometry relative="1" as="geometry" />
        </mxCell>
        <mxCell id="9qvqZgdFE7eqmu_w8_o--61" value="&lt;span style=&quot;color: rgb(204, 0, 0); font-size: 13px; font-weight: 700;&quot;&gt;set MCRID&lt;/span&gt;" style="edgeLabel;html=1;align=center;verticalAlign=middle;resizable=0;points=[];" parent="9qvqZgdFE7eqmu_w8_o--60" vertex="1" connectable="0">
          <mxGeometry x="-0.1169" y="17" relative="1" as="geometry">
            <mxPoint as="offset" />
          </mxGeometry>
        </mxCell>
        <mxCell id="9qvqZgdFE7eqmu_w8_o--27" value="&lt;font style=&quot;font-size: 14px;&quot;&gt;&lt;b&gt;MCHandler&lt;/b&gt;&lt;/font&gt;" style="ellipse;whiteSpace=wrap;html=1;fillColor=#cce5ff;strokeColor=#36393d;" parent="1" vertex="1">
          <mxGeometry x="1400" y="20" width="120" height="60" as="geometry" />
        </mxCell>
        <mxCell id="9qvqZgdFE7eqmu_w8_o--46" style="edgeStyle=orthogonalEdgeStyle;rounded=0;orthogonalLoop=1;jettySize=auto;html=1;exitX=0;exitY=0.5;exitDx=0;exitDy=0;entryX=0;entryY=0.5;entryDx=0;entryDy=0;curved=1;" parent="1" source="9qvqZgdFE7eqmu_w8_o--34" target="9qvqZgdFE7eqmu_w8_o--27" edge="1">
          <mxGeometry relative="1" as="geometry" />
        </mxCell>
        <mxCell id="9qvqZgdFE7eqmu_w8_o--50" value="3. cuMulticastBindMem" style="edgeLabel;html=1;align=center;verticalAlign=middle;resizable=0;points=[];fontSize=13;fontStyle=1;fontColor=#CC0000;" parent="9qvqZgdFE7eqmu_w8_o--46" vertex="1" connectable="0">
          <mxGeometry x="-0.2424" y="-1" relative="1" as="geometry">
            <mxPoint x="-21" y="30" as="offset" />
          </mxGeometry>
        </mxCell>
        <mxCell id="9qvqZgdFE7eqmu_w8_o--34" value="&lt;font style=&quot;font-size: 14px;&quot;&gt;&lt;b&gt;UCHandler&lt;/b&gt;&lt;/font&gt;" style="ellipse;whiteSpace=wrap;html=1;fillColor=#cce5ff;strokeColor=#36393d;" parent="1" vertex="1">
          <mxGeometry x="1160" y="400" width="120" height="60" as="geometry" />
        </mxCell>
        <mxCell id="9qvqZgdFE7eqmu_w8_o--37" style="edgeStyle=orthogonalEdgeStyle;rounded=0;orthogonalLoop=1;jettySize=auto;html=1;exitX=0.5;exitY=1;exitDx=0;exitDy=0;entryX=0.5;entryY=0;entryDx=0;entryDy=0;" parent="1" target="9qvqZgdFE7eqmu_w8_o--39" edge="1">
          <mxGeometry relative="1" as="geometry">
            <mxPoint x="1380" y="320" as="sourcePoint" />
          </mxGeometry>
        </mxCell>
        <mxCell id="9qvqZgdFE7eqmu_w8_o--38" value="2.2&amp;nbsp;&amp;nbsp;&lt;span style=&quot;background-color: light-dark(#ffffff, var(--ge-dark-color, #121212));&quot;&gt;cuMemCreate&amp;nbsp;&lt;/span&gt;" style="edgeLabel;html=1;align=center;verticalAlign=middle;resizable=0;points=[];fontSize=13;fontStyle=1;fontColor=#CC0000;" parent="9qvqZgdFE7eqmu_w8_o--37" vertex="1" connectable="0">
          <mxGeometry y="-3" relative="1" as="geometry">
            <mxPoint as="offset" />
          </mxGeometry>
        </mxCell>
        <mxCell id="9qvqZgdFE7eqmu_w8_o--47" style="edgeStyle=orthogonalEdgeStyle;rounded=0;orthogonalLoop=1;jettySize=auto;html=1;exitX=0.5;exitY=1;exitDx=0;exitDy=0;entryX=0;entryY=0.5;entryDx=0;entryDy=0;curved=1;" parent="1" source="9qvqZgdFE7eqmu_w8_o--39" target="9qvqZgdFE7eqmu_w8_o--27" edge="1">
          <mxGeometry relative="1" as="geometry">
            <Array as="points">
              <mxPoint x="1380" y="480" />
              <mxPoint x="1090" y="480" />
              <mxPoint x="1090" y="50" />
            </Array>
          </mxGeometry>
        </mxCell>
        <mxCell id="9qvqZgdFE7eqmu_w8_o--39" value="&lt;font style=&quot;font-size: 14px;&quot;&gt;&lt;b&gt;UCHandler&lt;/b&gt;&lt;/font&gt;" style="ellipse;whiteSpace=wrap;html=1;fillColor=#cce5ff;strokeColor=#36393d;" parent="1" vertex="1">
          <mxGeometry x="1320" y="400" width="120" height="60" as="geometry" />
        </mxCell>
        <mxCell id="9qvqZgdFE7eqmu_w8_o--40" style="edgeStyle=orthogonalEdgeStyle;rounded=0;orthogonalLoop=1;jettySize=auto;html=1;exitX=0.5;exitY=1;exitDx=0;exitDy=0;entryX=0.5;entryY=0;entryDx=0;entryDy=0;" parent="1" target="9qvqZgdFE7eqmu_w8_o--42" edge="1">
          <mxGeometry relative="1" as="geometry">
            <mxPoint x="1540" y="320" as="sourcePoint" />
          </mxGeometry>
        </mxCell>
        <mxCell id="9qvqZgdFE7eqmu_w8_o--41" value="2.3&amp;nbsp;&amp;nbsp;&lt;span style=&quot;background-color: light-dark(#ffffff, var(--ge-dark-color, #121212));&quot;&gt;cuMemCreate&amp;nbsp;&lt;/span&gt;" style="edgeLabel;html=1;align=center;verticalAlign=middle;resizable=0;points=[];fontSize=13;fontStyle=1;fontColor=#CC0000;" parent="9qvqZgdFE7eqmu_w8_o--40" vertex="1" connectable="0">
          <mxGeometry y="-3" relative="1" as="geometry">
            <mxPoint as="offset" />
          </mxGeometry>
        </mxCell>
        <mxCell id="9qvqZgdFE7eqmu_w8_o--48" style="edgeStyle=orthogonalEdgeStyle;rounded=0;orthogonalLoop=1;jettySize=auto;html=1;exitX=0.5;exitY=1;exitDx=0;exitDy=0;entryX=1;entryY=0.5;entryDx=0;entryDy=0;curved=1;" parent="1" source="9qvqZgdFE7eqmu_w8_o--42" target="9qvqZgdFE7eqmu_w8_o--27" edge="1">
          <mxGeometry relative="1" as="geometry">
            <Array as="points">
              <mxPoint x="1540" y="480" />
              <mxPoint x="1850" y="480" />
              <mxPoint x="1850" y="50" />
            </Array>
          </mxGeometry>
        </mxCell>
        <mxCell id="9qvqZgdFE7eqmu_w8_o--42" value="&lt;font style=&quot;font-size: 14px;&quot;&gt;&lt;b&gt;UCHandler&lt;/b&gt;&lt;/font&gt;" style="ellipse;whiteSpace=wrap;html=1;fillColor=#cce5ff;strokeColor=#36393d;" parent="1" vertex="1">
          <mxGeometry x="1480" y="400" width="120" height="60" as="geometry" />
        </mxCell>
        <mxCell id="9qvqZgdFE7eqmu_w8_o--43" style="edgeStyle=orthogonalEdgeStyle;rounded=0;orthogonalLoop=1;jettySize=auto;html=1;exitX=0.5;exitY=1;exitDx=0;exitDy=0;entryX=0.5;entryY=0;entryDx=0;entryDy=0;" parent="1" target="9qvqZgdFE7eqmu_w8_o--45" edge="1">
          <mxGeometry relative="1" as="geometry">
            <mxPoint x="1700" y="319" as="sourcePoint" />
          </mxGeometry>
        </mxCell>
        <mxCell id="9qvqZgdFE7eqmu_w8_o--44" value="2.4&amp;nbsp;&amp;nbsp;&lt;span style=&quot;background-color: light-dark(#ffffff, var(--ge-dark-color, #121212));&quot;&gt;cuMemCreate&amp;nbsp;&lt;/span&gt;" style="edgeLabel;html=1;align=center;verticalAlign=middle;resizable=0;points=[];fontSize=13;fontStyle=1;fontColor=#CC0000;" parent="9qvqZgdFE7eqmu_w8_o--43" vertex="1" connectable="0">
          <mxGeometry y="-3" relative="1" as="geometry">
            <mxPoint as="offset" />
          </mxGeometry>
        </mxCell>
        <mxCell id="9qvqZgdFE7eqmu_w8_o--49" style="edgeStyle=orthogonalEdgeStyle;rounded=0;orthogonalLoop=1;jettySize=auto;html=1;exitX=1;exitY=0.5;exitDx=0;exitDy=0;entryX=1;entryY=0.5;entryDx=0;entryDy=0;curved=1;" parent="1" source="9qvqZgdFE7eqmu_w8_o--45" target="9qvqZgdFE7eqmu_w8_o--27" edge="1">
          <mxGeometry relative="1" as="geometry" />
        </mxCell>
        <mxCell id="9qvqZgdFE7eqmu_w8_o--52" value="&lt;span style=&quot;&quot;&gt;3. cuMulticastBindMem&lt;/span&gt;" style="edgeLabel;html=1;align=center;verticalAlign=middle;resizable=0;points=[];fontSize=13;fontStyle=1;fontColor=#CC0000;" parent="9qvqZgdFE7eqmu_w8_o--49" vertex="1" connectable="0">
          <mxGeometry x="-0.2686" y="3" relative="1" as="geometry">
            <mxPoint x="33" y="-8" as="offset" />
          </mxGeometry>
        </mxCell>
        <mxCell id="9qvqZgdFE7eqmu_w8_o--45" value="&lt;font style=&quot;font-size: 14px;&quot;&gt;&lt;b&gt;UCHandler&lt;/b&gt;&lt;/font&gt;" style="ellipse;whiteSpace=wrap;html=1;fillColor=#cce5ff;strokeColor=#36393d;" parent="1" vertex="1">
          <mxGeometry x="1640" y="399" width="120" height="60" as="geometry" />
        </mxCell>
        <mxCell id="9qvqZgdFE7eqmu_w8_o--53" value="&lt;font style=&quot;font-size: 14px;&quot;&gt;&lt;b&gt;VA&lt;/b&gt;&lt;/font&gt;" style="ellipse;whiteSpace=wrap;html=1;fillColor=#cdeb8b;strokeColor=#36393d;" parent="1" vertex="1">
          <mxGeometry x="1400" y="-86" width="120" height="60" as="geometry" />
        </mxCell>
        <mxCell id="trlSuUdZmVp7ZevmP9SD-1" value="NVSwitch&lt;br&gt;（MCRID）" style="rounded=1;whiteSpace=wrap;html=1;strokeWidth=2;fontStyle=1;fontSize=14;strokeColor=#b85450;fillColor=#f8cecc;" parent="1" vertex="1">
          <mxGeometry x="1240" y="1040" width="120" height="40" as="geometry" />
        </mxCell>
        <mxCell id="trlSuUdZmVp7ZevmP9SD-2" style="rounded=0;orthogonalLoop=1;jettySize=auto;html=1;exitX=0.5;exitY=0;exitDx=0;exitDy=0;endArrow=none;startFill=0;strokeWidth=1;strokeColor=#00CC00;" parent="1" source="trlSuUdZmVp7ZevmP9SD-19" edge="1">
          <mxGeometry relative="1" as="geometry">
            <mxPoint x="1300" y="1080" as="targetPoint" />
          </mxGeometry>
        </mxCell>
        <mxCell id="trlSuUdZmVp7ZevmP9SD-3" style="rounded=0;orthogonalLoop=1;jettySize=auto;html=1;exitX=0.5;exitY=0;exitDx=0;exitDy=0;entryX=0.5;entryY=1;entryDx=0;entryDy=0;endArrow=none;startFill=0;strokeWidth=1;strokeColor=#00CC00;" parent="1" source="trlSuUdZmVp7ZevmP9SD-19" target="trlSuUdZmVp7ZevmP9SD-17" edge="1">
          <mxGeometry relative="1" as="geometry" />
        </mxCell>
        <mxCell id="trlSuUdZmVp7ZevmP9SD-4" style="rounded=0;orthogonalLoop=1;jettySize=auto;html=1;exitX=0.5;exitY=0;exitDx=0;exitDy=0;endArrow=none;startFill=0;strokeWidth=1;strokeColor=#00CC00;" parent="1" source="trlSuUdZmVp7ZevmP9SD-19" edge="1">
          <mxGeometry relative="1" as="geometry">
            <mxPoint x="1620" y="1080" as="targetPoint" />
          </mxGeometry>
        </mxCell>
        <mxCell id="trlSuUdZmVp7ZevmP9SD-5" style="rounded=0;orthogonalLoop=1;jettySize=auto;html=1;exitX=0.5;exitY=0;exitDx=0;exitDy=0;endArrow=none;startFill=0;strokeWidth=1;strokeColor=#00CC00;" parent="1" source="trlSuUdZmVp7ZevmP9SD-8" edge="1">
          <mxGeometry relative="1" as="geometry">
            <mxPoint x="1300" y="1080" as="targetPoint" />
          </mxGeometry>
        </mxCell>
        <mxCell id="trlSuUdZmVp7ZevmP9SD-6" style="rounded=0;orthogonalLoop=1;jettySize=auto;html=1;exitX=0.5;exitY=0;exitDx=0;exitDy=0;entryX=0.5;entryY=1;entryDx=0;entryDy=0;endArrow=none;startFill=0;strokeWidth=1;strokeColor=#00CC00;" parent="1" source="trlSuUdZmVp7ZevmP9SD-8" target="trlSuUdZmVp7ZevmP9SD-17" edge="1">
          <mxGeometry relative="1" as="geometry" />
        </mxCell>
        <mxCell id="trlSuUdZmVp7ZevmP9SD-7" style="rounded=0;orthogonalLoop=1;jettySize=auto;html=1;exitX=0.5;exitY=0;exitDx=0;exitDy=0;entryX=0.5;entryY=1;entryDx=0;entryDy=0;endArrow=none;startFill=0;strokeWidth=1;strokeColor=#00CC00;" parent="1" source="trlSuUdZmVp7ZevmP9SD-8" target="trlSuUdZmVp7ZevmP9SD-18" edge="1">
          <mxGeometry relative="1" as="geometry" />
        </mxCell>
        <mxCell id="trlSuUdZmVp7ZevmP9SD-8" value="GPU2" style="rounded=1;whiteSpace=wrap;html=1;strokeWidth=2;fontStyle=1;fontSize=14;strokeColor=#6666FF;" parent="1" vertex="1">
          <mxGeometry x="1480" y="1160" width="120" height="40" as="geometry" />
        </mxCell>
        <mxCell id="trlSuUdZmVp7ZevmP9SD-9" style="rounded=0;orthogonalLoop=1;jettySize=auto;html=1;exitX=0.5;exitY=0;exitDx=0;exitDy=0;entryX=0.5;entryY=1;entryDx=0;entryDy=0;endArrow=none;startFill=0;strokeWidth=1;strokeColor=#00CC00;" parent="1" source="trlSuUdZmVp7ZevmP9SD-12" target="trlSuUdZmVp7ZevmP9SD-1" edge="1">
          <mxGeometry relative="1" as="geometry" />
        </mxCell>
        <mxCell id="trlSuUdZmVp7ZevmP9SD-10" style="rounded=0;orthogonalLoop=1;jettySize=auto;html=1;exitX=0.5;exitY=0;exitDx=0;exitDy=0;entryX=0.5;entryY=1;entryDx=0;entryDy=0;endArrow=none;startFill=0;strokeWidth=1;strokeColor=#00CC00;" parent="1" source="trlSuUdZmVp7ZevmP9SD-12" target="trlSuUdZmVp7ZevmP9SD-17" edge="1">
          <mxGeometry relative="1" as="geometry" />
        </mxCell>
        <mxCell id="trlSuUdZmVp7ZevmP9SD-11" style="rounded=0;orthogonalLoop=1;jettySize=auto;html=1;exitX=0.5;exitY=0;exitDx=0;exitDy=0;entryX=0.5;entryY=1;entryDx=0;entryDy=0;endArrow=none;startFill=0;strokeWidth=1;strokeColor=#00CC00;" parent="1" source="trlSuUdZmVp7ZevmP9SD-12" target="trlSuUdZmVp7ZevmP9SD-18" edge="1">
          <mxGeometry relative="1" as="geometry" />
        </mxCell>
        <mxCell id="trlSuUdZmVp7ZevmP9SD-12" value="GPU3" style="rounded=1;whiteSpace=wrap;html=1;strokeWidth=2;fontStyle=1;fontSize=14;strokeColor=#6666FF;" parent="1" vertex="1">
          <mxGeometry x="1640" y="1160" width="120" height="40" as="geometry" />
        </mxCell>
        <mxCell id="trlSuUdZmVp7ZevmP9SD-13" style="rounded=0;orthogonalLoop=1;jettySize=auto;html=1;exitX=0.5;exitY=0;exitDx=0;exitDy=0;entryX=0.5;entryY=1;entryDx=0;entryDy=0;endArrow=none;startFill=0;strokeWidth=1;strokeColor=#00CC00;" parent="1" source="trlSuUdZmVp7ZevmP9SD-16" target="trlSuUdZmVp7ZevmP9SD-17" edge="1">
          <mxGeometry relative="1" as="geometry" />
        </mxCell>
        <mxCell id="trlSuUdZmVp7ZevmP9SD-14" style="rounded=0;orthogonalLoop=1;jettySize=auto;html=1;exitX=0.5;exitY=0;exitDx=0;exitDy=0;entryX=0.5;entryY=1;entryDx=0;entryDy=0;endArrow=none;startFill=0;strokeWidth=1;strokeColor=#00CC00;" parent="1" source="trlSuUdZmVp7ZevmP9SD-16" target="trlSuUdZmVp7ZevmP9SD-1" edge="1">
          <mxGeometry relative="1" as="geometry" />
        </mxCell>
        <mxCell id="trlSuUdZmVp7ZevmP9SD-15" style="rounded=0;orthogonalLoop=1;jettySize=auto;html=1;exitX=0.5;exitY=0;exitDx=0;exitDy=0;entryX=0.5;entryY=1;entryDx=0;entryDy=0;endArrow=none;startFill=0;strokeWidth=1;strokeColor=#00CC00;" parent="1" source="trlSuUdZmVp7ZevmP9SD-16" target="trlSuUdZmVp7ZevmP9SD-18" edge="1">
          <mxGeometry relative="1" as="geometry" />
        </mxCell>
        <mxCell id="trlSuUdZmVp7ZevmP9SD-16" value="GPU1" style="rounded=1;whiteSpace=wrap;html=1;strokeWidth=2;fontStyle=1;fontSize=14;strokeColor=#6666FF;" parent="1" vertex="1">
          <mxGeometry x="1320" y="1160" width="120" height="40" as="geometry" />
        </mxCell>
        <mxCell id="trlSuUdZmVp7ZevmP9SD-17" value="NVSwitch&lt;div&gt;（MCRID）&lt;/div&gt;" style="rounded=1;whiteSpace=wrap;html=1;strokeWidth=2;fontStyle=1;fontSize=14;strokeColor=#b85450;fillColor=#f8cecc;" parent="1" vertex="1">
          <mxGeometry x="1400" y="1040" width="120" height="40" as="geometry" />
        </mxCell>
        <mxCell id="trlSuUdZmVp7ZevmP9SD-18" value="NVSwitch&lt;div&gt;（MCRID）&lt;/div&gt;" style="rounded=1;whiteSpace=wrap;html=1;strokeWidth=2;fontStyle=1;fontSize=14;strokeColor=#b85450;fillColor=#f8cecc;" parent="1" vertex="1">
          <mxGeometry x="1560" y="1040" width="120" height="40" as="geometry" />
        </mxCell>
        <mxCell id="trlSuUdZmVp7ZevmP9SD-23" style="edgeStyle=orthogonalEdgeStyle;curved=1;rounded=0;orthogonalLoop=1;jettySize=auto;html=1;exitX=0;exitY=0.5;exitDx=0;exitDy=0;entryX=0;entryY=0.5;entryDx=0;entryDy=0;" parent="1" source="trlSuUdZmVp7ZevmP9SD-19" target="trlSuUdZmVp7ZevmP9SD-1" edge="1">
          <mxGeometry relative="1" as="geometry" />
        </mxCell>
        <mxCell id="trlSuUdZmVp7ZevmP9SD-26" value="&lt;span style=&quot;color: rgb(204, 0, 0); font-size: 13px; font-weight: 700;&quot;&gt;1. cuMulticastCreate&lt;/span&gt;" style="edgeLabel;html=1;align=center;verticalAlign=middle;resizable=0;points=[];" parent="trlSuUdZmVp7ZevmP9SD-23" vertex="1" connectable="0">
          <mxGeometry x="-0.1375" y="-1" relative="1" as="geometry">
            <mxPoint x="19" y="3" as="offset" />
          </mxGeometry>
        </mxCell>
        <mxCell id="trlSuUdZmVp7ZevmP9SD-19" value="GPU0" style="rounded=1;whiteSpace=wrap;html=1;strokeWidth=2;fontStyle=1;fontSize=14;strokeColor=#6666FF;" parent="1" vertex="1">
          <mxGeometry x="1160" y="1160" width="120" height="40" as="geometry" />
        </mxCell>
        <mxCell id="trlSuUdZmVp7ZevmP9SD-20" style="edgeStyle=orthogonalEdgeStyle;rounded=0;orthogonalLoop=1;jettySize=auto;html=1;exitX=0.5;exitY=1;exitDx=0;exitDy=0;entryX=0.5;entryY=0;entryDx=0;entryDy=0;" parent="1" target="trlSuUdZmVp7ZevmP9SD-22" edge="1">
          <mxGeometry relative="1" as="geometry">
            <mxPoint x="1220" y="1200" as="sourcePoint" />
          </mxGeometry>
        </mxCell>
        <mxCell id="trlSuUdZmVp7ZevmP9SD-21" value="2.&amp;nbsp;&amp;nbsp;&lt;span style=&quot;background-color: light-dark(#ffffff, var(--ge-dark-color, #121212));&quot;&gt;cuMemCreate&amp;nbsp;&lt;/span&gt;" style="edgeLabel;html=1;align=center;verticalAlign=middle;resizable=0;points=[];fontSize=13;fontStyle=1;fontColor=#CC0000;" parent="trlSuUdZmVp7ZevmP9SD-20" vertex="1" connectable="0">
          <mxGeometry y="-3" relative="1" as="geometry">
            <mxPoint as="offset" />
          </mxGeometry>
        </mxCell>
        <mxCell id="trlSuUdZmVp7ZevmP9SD-22" value="&lt;font style=&quot;font-size: 14px;&quot;&gt;&lt;b&gt;UCHandler&lt;/b&gt;&lt;/font&gt;" style="ellipse;whiteSpace=wrap;html=1;fillColor=#cce5ff;strokeColor=#36393d;" parent="1" vertex="1">
          <mxGeometry x="1170" y="1280" width="100" height="50" as="geometry" />
        </mxCell>
        <mxCell id="trlSuUdZmVp7ZevmP9SD-25" value="&lt;ol style=&quot;&quot;&gt;&lt;li&gt;&lt;span style=&quot;text-wrap-mode: nowrap;&quot;&gt;MCRID Table: MultiCast Routing Identifier Table&lt;/span&gt;&lt;/li&gt;&lt;li&gt;所有NVSwitch上的MCRID都是同一份；&lt;/li&gt;&lt;li&gt;MCRID最多只能128个；&lt;/li&gt;&lt;/ol&gt;" style="text;strokeColor=none;align=left;fillColor=none;html=1;verticalAlign=middle;whiteSpace=wrap;rounded=0;" parent="1" vertex="1">
          <mxGeometry x="1970" y="-71" width="305" height="45" as="geometry" />
        </mxCell>
        <mxCell id="trlSuUdZmVp7ZevmP9SD-27" value="NVSwitch&lt;br&gt;（MCRID）" style="rounded=1;whiteSpace=wrap;html=1;strokeWidth=2;fontStyle=1;fontSize=14;strokeColor=#82B366;" parent="1" vertex="1">
          <mxGeometry x="1240" y="640" width="120" height="40" as="geometry" />
        </mxCell>
        <mxCell id="trlSuUdZmVp7ZevmP9SD-28" style="rounded=0;orthogonalLoop=1;jettySize=auto;html=1;exitX=0.5;exitY=0;exitDx=0;exitDy=0;endArrow=none;startFill=0;strokeWidth=1;strokeColor=#00CC00;" parent="1" source="trlSuUdZmVp7ZevmP9SD-45" edge="1">
          <mxGeometry relative="1" as="geometry">
            <mxPoint x="1300" y="680" as="targetPoint" />
          </mxGeometry>
        </mxCell>
        <mxCell id="trlSuUdZmVp7ZevmP9SD-29" style="rounded=0;orthogonalLoop=1;jettySize=auto;html=1;exitX=0.5;exitY=0;exitDx=0;exitDy=0;entryX=0.5;entryY=1;entryDx=0;entryDy=0;endArrow=none;startFill=0;strokeWidth=1;strokeColor=#00CC00;" parent="1" source="trlSuUdZmVp7ZevmP9SD-45" target="trlSuUdZmVp7ZevmP9SD-43" edge="1">
          <mxGeometry relative="1" as="geometry" />
        </mxCell>
        <mxCell id="trlSuUdZmVp7ZevmP9SD-30" style="rounded=0;orthogonalLoop=1;jettySize=auto;html=1;exitX=0.5;exitY=0;exitDx=0;exitDy=0;endArrow=none;startFill=0;strokeWidth=1;strokeColor=#00CC00;" parent="1" source="trlSuUdZmVp7ZevmP9SD-45" edge="1">
          <mxGeometry relative="1" as="geometry">
            <mxPoint x="1620" y="680" as="targetPoint" />
          </mxGeometry>
        </mxCell>
        <mxCell id="trlSuUdZmVp7ZevmP9SD-31" style="rounded=0;orthogonalLoop=1;jettySize=auto;html=1;exitX=0.5;exitY=0;exitDx=0;exitDy=0;endArrow=none;startFill=0;strokeWidth=1;strokeColor=#00CC00;" parent="1" source="trlSuUdZmVp7ZevmP9SD-34" edge="1">
          <mxGeometry relative="1" as="geometry">
            <mxPoint x="1300" y="680" as="targetPoint" />
          </mxGeometry>
        </mxCell>
        <mxCell id="trlSuUdZmVp7ZevmP9SD-32" style="rounded=0;orthogonalLoop=1;jettySize=auto;html=1;exitX=0.5;exitY=0;exitDx=0;exitDy=0;entryX=0.5;entryY=1;entryDx=0;entryDy=0;endArrow=none;startFill=0;strokeWidth=1;strokeColor=#00CC00;" parent="1" source="trlSuUdZmVp7ZevmP9SD-34" target="trlSuUdZmVp7ZevmP9SD-43" edge="1">
          <mxGeometry relative="1" as="geometry" />
        </mxCell>
        <mxCell id="trlSuUdZmVp7ZevmP9SD-33" style="rounded=0;orthogonalLoop=1;jettySize=auto;html=1;exitX=0.5;exitY=0;exitDx=0;exitDy=0;entryX=0.5;entryY=1;entryDx=0;entryDy=0;endArrow=none;startFill=0;strokeWidth=1;strokeColor=#00CC00;" parent="1" source="trlSuUdZmVp7ZevmP9SD-34" target="trlSuUdZmVp7ZevmP9SD-44" edge="1">
          <mxGeometry relative="1" as="geometry" />
        </mxCell>
        <mxCell id="trlSuUdZmVp7ZevmP9SD-34" value="GPU2" style="rounded=1;whiteSpace=wrap;html=1;strokeWidth=2;fontStyle=1;fontSize=14;strokeColor=#6666FF;" parent="1" vertex="1">
          <mxGeometry x="1480" y="760" width="120" height="40" as="geometry" />
        </mxCell>
        <mxCell id="trlSuUdZmVp7ZevmP9SD-35" style="rounded=0;orthogonalLoop=1;jettySize=auto;html=1;exitX=0.5;exitY=0;exitDx=0;exitDy=0;entryX=0.5;entryY=1;entryDx=0;entryDy=0;endArrow=none;startFill=0;strokeWidth=1;strokeColor=#00CC00;" parent="1" source="trlSuUdZmVp7ZevmP9SD-38" target="trlSuUdZmVp7ZevmP9SD-27" edge="1">
          <mxGeometry relative="1" as="geometry" />
        </mxCell>
        <mxCell id="trlSuUdZmVp7ZevmP9SD-36" style="rounded=0;orthogonalLoop=1;jettySize=auto;html=1;exitX=0.5;exitY=0;exitDx=0;exitDy=0;entryX=0.5;entryY=1;entryDx=0;entryDy=0;endArrow=none;startFill=0;strokeWidth=1;strokeColor=#00CC00;" parent="1" source="trlSuUdZmVp7ZevmP9SD-38" target="trlSuUdZmVp7ZevmP9SD-43" edge="1">
          <mxGeometry relative="1" as="geometry" />
        </mxCell>
        <mxCell id="trlSuUdZmVp7ZevmP9SD-37" style="rounded=0;orthogonalLoop=1;jettySize=auto;html=1;exitX=0.5;exitY=0;exitDx=0;exitDy=0;entryX=0.5;entryY=1;entryDx=0;entryDy=0;endArrow=none;startFill=0;strokeWidth=1;strokeColor=#00CC00;" parent="1" source="trlSuUdZmVp7ZevmP9SD-38" target="trlSuUdZmVp7ZevmP9SD-44" edge="1">
          <mxGeometry relative="1" as="geometry" />
        </mxCell>
        <mxCell id="trlSuUdZmVp7ZevmP9SD-38" value="GPU3" style="rounded=1;whiteSpace=wrap;html=1;strokeWidth=2;fontStyle=1;fontSize=14;strokeColor=#6666FF;" parent="1" vertex="1">
          <mxGeometry x="1640" y="760" width="120" height="40" as="geometry" />
        </mxCell>
        <mxCell id="trlSuUdZmVp7ZevmP9SD-39" style="rounded=0;orthogonalLoop=1;jettySize=auto;html=1;exitX=0.5;exitY=0;exitDx=0;exitDy=0;entryX=0.5;entryY=1;entryDx=0;entryDy=0;endArrow=none;startFill=0;strokeWidth=1;strokeColor=#00CC00;" parent="1" source="trlSuUdZmVp7ZevmP9SD-42" target="trlSuUdZmVp7ZevmP9SD-43" edge="1">
          <mxGeometry relative="1" as="geometry" />
        </mxCell>
        <mxCell id="trlSuUdZmVp7ZevmP9SD-40" style="rounded=0;orthogonalLoop=1;jettySize=auto;html=1;exitX=0.5;exitY=0;exitDx=0;exitDy=0;entryX=0.5;entryY=1;entryDx=0;entryDy=0;endArrow=none;startFill=0;strokeWidth=1;strokeColor=#00CC00;" parent="1" source="trlSuUdZmVp7ZevmP9SD-42" target="trlSuUdZmVp7ZevmP9SD-27" edge="1">
          <mxGeometry relative="1" as="geometry" />
        </mxCell>
        <mxCell id="trlSuUdZmVp7ZevmP9SD-41" style="rounded=0;orthogonalLoop=1;jettySize=auto;html=1;exitX=0.5;exitY=0;exitDx=0;exitDy=0;entryX=0.5;entryY=1;entryDx=0;entryDy=0;endArrow=none;startFill=0;strokeWidth=1;strokeColor=#00CC00;" parent="1" source="trlSuUdZmVp7ZevmP9SD-42" target="trlSuUdZmVp7ZevmP9SD-44" edge="1">
          <mxGeometry relative="1" as="geometry" />
        </mxCell>
        <mxCell id="trlSuUdZmVp7ZevmP9SD-42" value="GPU1" style="rounded=1;whiteSpace=wrap;html=1;strokeWidth=2;fontStyle=1;fontSize=14;strokeColor=#6666FF;" parent="1" vertex="1">
          <mxGeometry x="1320" y="760" width="120" height="40" as="geometry" />
        </mxCell>
        <mxCell id="trlSuUdZmVp7ZevmP9SD-43" value="NVSwitch&lt;div&gt;（MCRID）&lt;/div&gt;" style="rounded=1;whiteSpace=wrap;html=1;strokeWidth=2;fontStyle=1;fontSize=14;strokeColor=#82B366;" parent="1" vertex="1">
          <mxGeometry x="1400" y="640" width="120" height="40" as="geometry" />
        </mxCell>
        <mxCell id="trlSuUdZmVp7ZevmP9SD-44" value="NVSwitch&lt;div&gt;（MCRID）&lt;/div&gt;" style="rounded=1;whiteSpace=wrap;html=1;strokeWidth=2;fontStyle=1;fontSize=14;strokeColor=#82B366;" parent="1" vertex="1">
          <mxGeometry x="1560" y="640" width="120" height="40" as="geometry" />
        </mxCell>
        <mxCell id="trlSuUdZmVp7ZevmP9SD-45" value="GPU0" style="rounded=1;whiteSpace=wrap;html=1;strokeWidth=2;fontStyle=1;fontSize=14;strokeColor=#6666FF;" parent="1" vertex="1">
          <mxGeometry x="1160" y="760" width="120" height="40" as="geometry" />
        </mxCell>
        <mxCell id="trlSuUdZmVp7ZevmP9SD-49" value="NVSwitch&lt;br&gt;（MCRID）" style="rounded=1;whiteSpace=wrap;html=1;strokeWidth=2;fontStyle=1;fontSize=14;strokeColor=#b85450;fillColor=#f8cecc;" parent="1" vertex="1">
          <mxGeometry x="1241" y="1441" width="120" height="40" as="geometry" />
        </mxCell>
        <mxCell id="trlSuUdZmVp7ZevmP9SD-50" style="rounded=0;orthogonalLoop=1;jettySize=auto;html=1;exitX=0.5;exitY=0;exitDx=0;exitDy=0;endArrow=none;startFill=0;strokeWidth=1;strokeColor=#00CC00;" parent="1" source="trlSuUdZmVp7ZevmP9SD-71" edge="1">
          <mxGeometry relative="1" as="geometry">
            <mxPoint x="1301" y="1481" as="targetPoint" />
          </mxGeometry>
        </mxCell>
        <mxCell id="trlSuUdZmVp7ZevmP9SD-51" style="rounded=0;orthogonalLoop=1;jettySize=auto;html=1;exitX=0.5;exitY=0;exitDx=0;exitDy=0;entryX=0.5;entryY=1;entryDx=0;entryDy=0;endArrow=none;startFill=0;strokeWidth=1;strokeColor=#00CC00;" parent="1" source="trlSuUdZmVp7ZevmP9SD-71" target="trlSuUdZmVp7ZevmP9SD-65" edge="1">
          <mxGeometry relative="1" as="geometry" />
        </mxCell>
        <mxCell id="trlSuUdZmVp7ZevmP9SD-52" style="rounded=0;orthogonalLoop=1;jettySize=auto;html=1;exitX=0.5;exitY=0;exitDx=0;exitDy=0;endArrow=none;startFill=0;strokeWidth=1;strokeColor=#00CC00;" parent="1" source="trlSuUdZmVp7ZevmP9SD-71" edge="1">
          <mxGeometry relative="1" as="geometry">
            <mxPoint x="1621" y="1481" as="targetPoint" />
          </mxGeometry>
        </mxCell>
        <mxCell id="trlSuUdZmVp7ZevmP9SD-53" style="rounded=0;orthogonalLoop=1;jettySize=auto;html=1;exitX=0.5;exitY=0;exitDx=0;exitDy=0;endArrow=none;startFill=0;strokeWidth=1;strokeColor=#00CC00;" parent="1" source="trlSuUdZmVp7ZevmP9SD-56" edge="1">
          <mxGeometry relative="1" as="geometry">
            <mxPoint x="1301" y="1481" as="targetPoint" />
          </mxGeometry>
        </mxCell>
        <mxCell id="trlSuUdZmVp7ZevmP9SD-54" style="rounded=0;orthogonalLoop=1;jettySize=auto;html=1;exitX=0.5;exitY=0;exitDx=0;exitDy=0;entryX=0.5;entryY=1;entryDx=0;entryDy=0;endArrow=none;startFill=0;strokeWidth=1;strokeColor=#00CC00;" parent="1" source="trlSuUdZmVp7ZevmP9SD-56" target="trlSuUdZmVp7ZevmP9SD-65" edge="1">
          <mxGeometry relative="1" as="geometry" />
        </mxCell>
        <mxCell id="trlSuUdZmVp7ZevmP9SD-55" style="rounded=0;orthogonalLoop=1;jettySize=auto;html=1;exitX=0.5;exitY=0;exitDx=0;exitDy=0;entryX=0.5;entryY=1;entryDx=0;entryDy=0;endArrow=none;startFill=0;strokeWidth=1;strokeColor=#00CC00;" parent="1" source="trlSuUdZmVp7ZevmP9SD-56" target="trlSuUdZmVp7ZevmP9SD-66" edge="1">
          <mxGeometry relative="1" as="geometry" />
        </mxCell>
        <mxCell id="trlSuUdZmVp7ZevmP9SD-56" value="GPU2" style="rounded=1;whiteSpace=wrap;html=1;strokeWidth=2;fontStyle=1;fontSize=14;strokeColor=#6666FF;" parent="1" vertex="1">
          <mxGeometry x="1481" y="1561" width="120" height="40" as="geometry" />
        </mxCell>
        <mxCell id="trlSuUdZmVp7ZevmP9SD-57" style="rounded=0;orthogonalLoop=1;jettySize=auto;html=1;exitX=0.5;exitY=0;exitDx=0;exitDy=0;entryX=0.5;entryY=1;entryDx=0;entryDy=0;endArrow=none;startFill=0;strokeWidth=1;strokeColor=#00CC00;" parent="1" source="trlSuUdZmVp7ZevmP9SD-60" target="trlSuUdZmVp7ZevmP9SD-49" edge="1">
          <mxGeometry relative="1" as="geometry" />
        </mxCell>
        <mxCell id="trlSuUdZmVp7ZevmP9SD-58" style="rounded=0;orthogonalLoop=1;jettySize=auto;html=1;exitX=0.5;exitY=0;exitDx=0;exitDy=0;entryX=0.5;entryY=1;entryDx=0;entryDy=0;endArrow=none;startFill=0;strokeWidth=1;strokeColor=#00CC00;" parent="1" source="trlSuUdZmVp7ZevmP9SD-60" target="trlSuUdZmVp7ZevmP9SD-65" edge="1">
          <mxGeometry relative="1" as="geometry" />
        </mxCell>
        <mxCell id="trlSuUdZmVp7ZevmP9SD-59" style="rounded=0;orthogonalLoop=1;jettySize=auto;html=1;exitX=0.5;exitY=0;exitDx=0;exitDy=0;entryX=0.5;entryY=1;entryDx=0;entryDy=0;endArrow=none;startFill=0;strokeWidth=1;strokeColor=#00CC00;" parent="1" source="trlSuUdZmVp7ZevmP9SD-60" target="trlSuUdZmVp7ZevmP9SD-66" edge="1">
          <mxGeometry relative="1" as="geometry" />
        </mxCell>
        <mxCell id="trlSuUdZmVp7ZevmP9SD-60" value="GPU3" style="rounded=1;whiteSpace=wrap;html=1;strokeWidth=2;fontStyle=1;fontSize=14;strokeColor=#6666FF;" parent="1" vertex="1">
          <mxGeometry x="1641" y="1561" width="120" height="40" as="geometry" />
        </mxCell>
        <mxCell id="trlSuUdZmVp7ZevmP9SD-61" style="rounded=0;orthogonalLoop=1;jettySize=auto;html=1;exitX=0.5;exitY=0;exitDx=0;exitDy=0;entryX=0.5;entryY=1;entryDx=0;entryDy=0;endArrow=none;startFill=0;strokeWidth=1;strokeColor=#00CC00;" parent="1" source="trlSuUdZmVp7ZevmP9SD-64" target="trlSuUdZmVp7ZevmP9SD-65" edge="1">
          <mxGeometry relative="1" as="geometry" />
        </mxCell>
        <mxCell id="trlSuUdZmVp7ZevmP9SD-62" style="rounded=0;orthogonalLoop=1;jettySize=auto;html=1;exitX=0.5;exitY=0;exitDx=0;exitDy=0;entryX=0.5;entryY=1;entryDx=0;entryDy=0;endArrow=none;startFill=0;strokeWidth=1;strokeColor=#00CC00;" parent="1" source="trlSuUdZmVp7ZevmP9SD-64" target="trlSuUdZmVp7ZevmP9SD-49" edge="1">
          <mxGeometry relative="1" as="geometry" />
        </mxCell>
        <mxCell id="trlSuUdZmVp7ZevmP9SD-63" style="rounded=0;orthogonalLoop=1;jettySize=auto;html=1;exitX=0.5;exitY=0;exitDx=0;exitDy=0;entryX=0.5;entryY=1;entryDx=0;entryDy=0;endArrow=none;startFill=0;strokeWidth=1;strokeColor=#00CC00;" parent="1" source="trlSuUdZmVp7ZevmP9SD-64" target="trlSuUdZmVp7ZevmP9SD-66" edge="1">
          <mxGeometry relative="1" as="geometry" />
        </mxCell>
        <mxCell id="trlSuUdZmVp7ZevmP9SD-64" value="GPU1" style="rounded=1;whiteSpace=wrap;html=1;strokeWidth=2;fontStyle=1;fontSize=14;strokeColor=#b85450;fillColor=#f8cecc;" parent="1" vertex="1">
          <mxGeometry x="1321" y="1561" width="120" height="40" as="geometry" />
        </mxCell>
        <mxCell id="trlSuUdZmVp7ZevmP9SD-65" value="NVSwitch&lt;div&gt;（MCRID）&lt;/div&gt;" style="rounded=1;whiteSpace=wrap;html=1;strokeWidth=2;fontStyle=1;fontSize=14;strokeColor=#b85450;fillColor=#f8cecc;" parent="1" vertex="1">
          <mxGeometry x="1401" y="1441" width="120" height="40" as="geometry" />
        </mxCell>
        <mxCell id="trlSuUdZmVp7ZevmP9SD-66" value="NVSwitch&lt;div&gt;（MCRID）&lt;/div&gt;" style="rounded=1;whiteSpace=wrap;html=1;strokeWidth=2;fontStyle=1;fontSize=14;strokeColor=#b85450;fillColor=#f8cecc;" parent="1" vertex="1">
          <mxGeometry x="1561" y="1441" width="120" height="40" as="geometry" />
        </mxCell>
        <mxCell id="trlSuUdZmVp7ZevmP9SD-67" style="edgeStyle=orthogonalEdgeStyle;curved=1;rounded=0;orthogonalLoop=1;jettySize=auto;html=1;exitX=0;exitY=0.5;exitDx=0;exitDy=0;entryX=0;entryY=0.5;entryDx=0;entryDy=0;" parent="1" source="trlSuUdZmVp7ZevmP9SD-71" target="trlSuUdZmVp7ZevmP9SD-49" edge="1">
          <mxGeometry relative="1" as="geometry" />
        </mxCell>
        <mxCell id="trlSuUdZmVp7ZevmP9SD-68" value="&lt;span style=&quot;color: rgb(204, 0, 0); font-size: 13px; font-weight: 700;&quot;&gt;1. cuMulticastCreate&lt;/span&gt;" style="edgeLabel;html=1;align=center;verticalAlign=middle;resizable=0;points=[];" parent="trlSuUdZmVp7ZevmP9SD-67" vertex="1" connectable="0">
          <mxGeometry x="-0.1375" y="-1" relative="1" as="geometry">
            <mxPoint x="19" y="3" as="offset" />
          </mxGeometry>
        </mxCell>
        <mxCell id="trlSuUdZmVp7ZevmP9SD-69" style="edgeStyle=orthogonalEdgeStyle;curved=1;rounded=0;orthogonalLoop=1;jettySize=auto;html=1;exitX=0;exitY=0.5;exitDx=0;exitDy=0;entryX=0.5;entryY=0;entryDx=0;entryDy=0;" parent="1" source="trlSuUdZmVp7ZevmP9SD-71" target="trlSuUdZmVp7ZevmP9SD-49" edge="1">
          <mxGeometry relative="1" as="geometry">
            <Array as="points">
              <mxPoint x="1071" y="1581" />
              <mxPoint x="1071" y="1421" />
              <mxPoint x="1301" y="1421" />
            </Array>
          </mxGeometry>
        </mxCell>
        <mxCell id="trlSuUdZmVp7ZevmP9SD-70" value="&lt;span style=&quot;color: rgb(204, 0, 0); font-size: 13px; font-weight: 700;&quot;&gt;3. cuMulticastAddDevice&lt;/span&gt;" style="edgeLabel;html=1;align=center;verticalAlign=middle;resizable=0;points=[];" parent="trlSuUdZmVp7ZevmP9SD-69" vertex="1" connectable="0">
          <mxGeometry x="-0.4927" y="-10" relative="1" as="geometry">
            <mxPoint x="-20" as="offset" />
          </mxGeometry>
        </mxCell>
        <mxCell id="trlSuUdZmVp7ZevmP9SD-71" value="GPU0" style="rounded=1;whiteSpace=wrap;html=1;strokeWidth=2;fontStyle=1;fontSize=14;strokeColor=#b85450;fillColor=#f8cecc;" parent="1" vertex="1">
          <mxGeometry x="1161" y="1561" width="120" height="40" as="geometry" />
        </mxCell>
        <mxCell id="trlSuUdZmVp7ZevmP9SD-72" style="edgeStyle=orthogonalEdgeStyle;rounded=0;orthogonalLoop=1;jettySize=auto;html=1;exitX=0.5;exitY=1;exitDx=0;exitDy=0;entryX=0.5;entryY=0;entryDx=0;entryDy=0;" parent="1" target="trlSuUdZmVp7ZevmP9SD-74" edge="1">
          <mxGeometry relative="1" as="geometry">
            <mxPoint x="1221" y="1601" as="sourcePoint" />
          </mxGeometry>
        </mxCell>
        <mxCell id="trlSuUdZmVp7ZevmP9SD-73" value="2.&amp;nbsp;&amp;nbsp;&lt;span style=&quot;background-color: light-dark(#ffffff, var(--ge-dark-color, #121212));&quot;&gt;cuMemCreate&amp;nbsp;&lt;/span&gt;" style="edgeLabel;html=1;align=center;verticalAlign=middle;resizable=0;points=[];fontSize=13;fontStyle=1;fontColor=#CC0000;" parent="trlSuUdZmVp7ZevmP9SD-72" vertex="1" connectable="0">
          <mxGeometry y="-3" relative="1" as="geometry">
            <mxPoint as="offset" />
          </mxGeometry>
        </mxCell>
        <mxCell id="trlSuUdZmVp7ZevmP9SD-74" value="&lt;font style=&quot;font-size: 14px;&quot;&gt;&lt;b&gt;UCHandler&lt;/b&gt;&lt;/font&gt;" style="ellipse;whiteSpace=wrap;html=1;fillColor=#cce5ff;strokeColor=#36393d;" parent="1" vertex="1">
          <mxGeometry x="1171" y="1681" width="100" height="50" as="geometry" />
        </mxCell>
        <mxCell id="trlSuUdZmVp7ZevmP9SD-75" style="edgeStyle=orthogonalEdgeStyle;rounded=0;orthogonalLoop=1;jettySize=auto;html=1;exitX=0.5;exitY=1;exitDx=0;exitDy=0;entryX=0.5;entryY=0;entryDx=0;entryDy=0;" parent="1" target="trlSuUdZmVp7ZevmP9SD-77" edge="1">
          <mxGeometry relative="1" as="geometry">
            <mxPoint x="1380" y="1200" as="sourcePoint" />
          </mxGeometry>
        </mxCell>
        <mxCell id="trlSuUdZmVp7ZevmP9SD-76" value="2.&amp;nbsp;&amp;nbsp;&lt;span style=&quot;background-color: light-dark(#ffffff, var(--ge-dark-color, #121212));&quot;&gt;cuMemCreate&amp;nbsp;&lt;/span&gt;" style="edgeLabel;html=1;align=center;verticalAlign=middle;resizable=0;points=[];fontSize=13;fontStyle=1;fontColor=#CC0000;" parent="trlSuUdZmVp7ZevmP9SD-75" vertex="1" connectable="0">
          <mxGeometry y="-3" relative="1" as="geometry">
            <mxPoint as="offset" />
          </mxGeometry>
        </mxCell>
        <mxCell id="trlSuUdZmVp7ZevmP9SD-77" value="&lt;font style=&quot;font-size: 14px;&quot;&gt;&lt;b&gt;UCHandler&lt;/b&gt;&lt;/font&gt;" style="ellipse;whiteSpace=wrap;html=1;fillColor=#cce5ff;strokeColor=#36393d;" parent="1" vertex="1">
          <mxGeometry x="1330" y="1280" width="100" height="50" as="geometry" />
        </mxCell>
        <mxCell id="trlSuUdZmVp7ZevmP9SD-84" style="edgeStyle=orthogonalEdgeStyle;rounded=0;orthogonalLoop=1;jettySize=auto;html=1;exitX=0.5;exitY=1;exitDx=0;exitDy=0;entryX=0.5;entryY=0;entryDx=0;entryDy=0;" parent="1" target="trlSuUdZmVp7ZevmP9SD-86" edge="1">
          <mxGeometry relative="1" as="geometry">
            <mxPoint x="1381" y="1600" as="sourcePoint" />
          </mxGeometry>
        </mxCell>
        <mxCell id="trlSuUdZmVp7ZevmP9SD-85" value="2.&amp;nbsp;&amp;nbsp;&lt;span style=&quot;background-color: light-dark(#ffffff, var(--ge-dark-color, #121212));&quot;&gt;cuMemCreate&amp;nbsp;&lt;/span&gt;" style="edgeLabel;html=1;align=center;verticalAlign=middle;resizable=0;points=[];fontSize=13;fontStyle=1;fontColor=#CC0000;" parent="trlSuUdZmVp7ZevmP9SD-84" vertex="1" connectable="0">
          <mxGeometry y="-3" relative="1" as="geometry">
            <mxPoint as="offset" />
          </mxGeometry>
        </mxCell>
        <mxCell id="trlSuUdZmVp7ZevmP9SD-86" value="&lt;font style=&quot;font-size: 14px;&quot;&gt;&lt;b&gt;UCHandler&lt;/b&gt;&lt;/font&gt;" style="ellipse;whiteSpace=wrap;html=1;fillColor=#cce5ff;strokeColor=#36393d;" parent="1" vertex="1">
          <mxGeometry x="1331" y="1680" width="100" height="50" as="geometry" />
        </mxCell>
        <mxCell id="trlSuUdZmVp7ZevmP9SD-93" value="NVSwitch&lt;br&gt;（MCRID）" style="rounded=1;whiteSpace=wrap;html=1;strokeWidth=2;fontStyle=1;fontSize=14;strokeColor=#b85450;fillColor=#f8cecc;" parent="1" vertex="1">
          <mxGeometry x="1241" y="1880" width="120" height="40" as="geometry" />
        </mxCell>
        <mxCell id="trlSuUdZmVp7ZevmP9SD-94" style="rounded=0;orthogonalLoop=1;jettySize=auto;html=1;exitX=0.5;exitY=0;exitDx=0;exitDy=0;endArrow=none;startFill=0;strokeWidth=1;strokeColor=#00CC00;" parent="1" source="trlSuUdZmVp7ZevmP9SD-115" edge="1">
          <mxGeometry relative="1" as="geometry">
            <mxPoint x="1301" y="1920" as="targetPoint" />
          </mxGeometry>
        </mxCell>
        <mxCell id="trlSuUdZmVp7ZevmP9SD-95" style="rounded=0;orthogonalLoop=1;jettySize=auto;html=1;exitX=0.5;exitY=0;exitDx=0;exitDy=0;entryX=0.5;entryY=1;entryDx=0;entryDy=0;endArrow=none;startFill=0;strokeWidth=1;strokeColor=#00CC00;" parent="1" source="trlSuUdZmVp7ZevmP9SD-115" target="trlSuUdZmVp7ZevmP9SD-109" edge="1">
          <mxGeometry relative="1" as="geometry" />
        </mxCell>
        <mxCell id="trlSuUdZmVp7ZevmP9SD-96" style="rounded=0;orthogonalLoop=1;jettySize=auto;html=1;exitX=0.5;exitY=0;exitDx=0;exitDy=0;endArrow=none;startFill=0;strokeWidth=1;strokeColor=#00CC00;" parent="1" source="trlSuUdZmVp7ZevmP9SD-115" edge="1">
          <mxGeometry relative="1" as="geometry">
            <mxPoint x="1621" y="1920" as="targetPoint" />
          </mxGeometry>
        </mxCell>
        <mxCell id="trlSuUdZmVp7ZevmP9SD-97" style="rounded=0;orthogonalLoop=1;jettySize=auto;html=1;exitX=0.5;exitY=0;exitDx=0;exitDy=0;endArrow=none;startFill=0;strokeWidth=1;strokeColor=#00CC00;" parent="1" source="trlSuUdZmVp7ZevmP9SD-100" edge="1">
          <mxGeometry relative="1" as="geometry">
            <mxPoint x="1301" y="1920" as="targetPoint" />
          </mxGeometry>
        </mxCell>
        <mxCell id="trlSuUdZmVp7ZevmP9SD-98" style="rounded=0;orthogonalLoop=1;jettySize=auto;html=1;exitX=0.5;exitY=0;exitDx=0;exitDy=0;entryX=0.5;entryY=1;entryDx=0;entryDy=0;endArrow=none;startFill=0;strokeWidth=1;strokeColor=#00CC00;" parent="1" source="trlSuUdZmVp7ZevmP9SD-100" target="trlSuUdZmVp7ZevmP9SD-109" edge="1">
          <mxGeometry relative="1" as="geometry" />
        </mxCell>
        <mxCell id="trlSuUdZmVp7ZevmP9SD-99" style="rounded=0;orthogonalLoop=1;jettySize=auto;html=1;exitX=0.5;exitY=0;exitDx=0;exitDy=0;entryX=0.5;entryY=1;entryDx=0;entryDy=0;endArrow=none;startFill=0;strokeWidth=1;strokeColor=#00CC00;" parent="1" source="trlSuUdZmVp7ZevmP9SD-100" target="trlSuUdZmVp7ZevmP9SD-110" edge="1">
          <mxGeometry relative="1" as="geometry" />
        </mxCell>
        <mxCell id="trlSuUdZmVp7ZevmP9SD-100" value="GPU2" style="rounded=1;whiteSpace=wrap;html=1;strokeWidth=2;fontStyle=1;fontSize=14;strokeColor=#6666FF;" parent="1" vertex="1">
          <mxGeometry x="1481" y="2000" width="120" height="40" as="geometry" />
        </mxCell>
        <mxCell id="trlSuUdZmVp7ZevmP9SD-101" style="rounded=0;orthogonalLoop=1;jettySize=auto;html=1;exitX=0.5;exitY=0;exitDx=0;exitDy=0;entryX=0.5;entryY=1;entryDx=0;entryDy=0;endArrow=none;startFill=0;strokeWidth=1;strokeColor=#00CC00;" parent="1" source="trlSuUdZmVp7ZevmP9SD-104" target="trlSuUdZmVp7ZevmP9SD-93" edge="1">
          <mxGeometry relative="1" as="geometry" />
        </mxCell>
        <mxCell id="trlSuUdZmVp7ZevmP9SD-102" style="rounded=0;orthogonalLoop=1;jettySize=auto;html=1;exitX=0.5;exitY=0;exitDx=0;exitDy=0;entryX=0.5;entryY=1;entryDx=0;entryDy=0;endArrow=none;startFill=0;strokeWidth=1;strokeColor=#00CC00;" parent="1" source="trlSuUdZmVp7ZevmP9SD-104" target="trlSuUdZmVp7ZevmP9SD-109" edge="1">
          <mxGeometry relative="1" as="geometry" />
        </mxCell>
        <mxCell id="trlSuUdZmVp7ZevmP9SD-103" style="rounded=0;orthogonalLoop=1;jettySize=auto;html=1;exitX=0.5;exitY=0;exitDx=0;exitDy=0;entryX=0.5;entryY=1;entryDx=0;entryDy=0;endArrow=none;startFill=0;strokeWidth=1;strokeColor=#00CC00;" parent="1" source="trlSuUdZmVp7ZevmP9SD-104" target="trlSuUdZmVp7ZevmP9SD-110" edge="1">
          <mxGeometry relative="1" as="geometry" />
        </mxCell>
        <mxCell id="trlSuUdZmVp7ZevmP9SD-104" value="GPU3" style="rounded=1;whiteSpace=wrap;html=1;strokeWidth=2;fontStyle=1;fontSize=14;strokeColor=#6666FF;" parent="1" vertex="1">
          <mxGeometry x="1641" y="2000" width="120" height="40" as="geometry" />
        </mxCell>
        <mxCell id="trlSuUdZmVp7ZevmP9SD-105" style="rounded=0;orthogonalLoop=1;jettySize=auto;html=1;exitX=0.5;exitY=0;exitDx=0;exitDy=0;entryX=0.5;entryY=1;entryDx=0;entryDy=0;endArrow=none;startFill=0;strokeWidth=1;strokeColor=#00CC00;" parent="1" source="trlSuUdZmVp7ZevmP9SD-108" target="trlSuUdZmVp7ZevmP9SD-109" edge="1">
          <mxGeometry relative="1" as="geometry" />
        </mxCell>
        <mxCell id="trlSuUdZmVp7ZevmP9SD-106" style="rounded=0;orthogonalLoop=1;jettySize=auto;html=1;exitX=0.5;exitY=0;exitDx=0;exitDy=0;entryX=0.5;entryY=1;entryDx=0;entryDy=0;endArrow=none;startFill=0;strokeWidth=1;strokeColor=#00CC00;" parent="1" source="trlSuUdZmVp7ZevmP9SD-108" target="trlSuUdZmVp7ZevmP9SD-93" edge="1">
          <mxGeometry relative="1" as="geometry" />
        </mxCell>
        <mxCell id="trlSuUdZmVp7ZevmP9SD-107" style="rounded=0;orthogonalLoop=1;jettySize=auto;html=1;exitX=0.5;exitY=0;exitDx=0;exitDy=0;entryX=0.5;entryY=1;entryDx=0;entryDy=0;endArrow=none;startFill=0;strokeWidth=1;strokeColor=#00CC00;" parent="1" source="trlSuUdZmVp7ZevmP9SD-108" target="trlSuUdZmVp7ZevmP9SD-110" edge="1">
          <mxGeometry relative="1" as="geometry" />
        </mxCell>
        <mxCell id="trlSuUdZmVp7ZevmP9SD-108" value="GPU1" style="rounded=1;whiteSpace=wrap;html=1;strokeWidth=2;fontStyle=1;fontSize=14;strokeColor=#b85450;fillColor=#f8cecc;" parent="1" vertex="1">
          <mxGeometry x="1321" y="2000" width="120" height="40" as="geometry" />
        </mxCell>
        <mxCell id="trlSuUdZmVp7ZevmP9SD-109" value="NVSwitch&lt;div&gt;（MCRID）&lt;/div&gt;" style="rounded=1;whiteSpace=wrap;html=1;strokeWidth=2;fontStyle=1;fontSize=14;strokeColor=#b85450;fillColor=#f8cecc;" parent="1" vertex="1">
          <mxGeometry x="1401" y="1880" width="120" height="40" as="geometry" />
        </mxCell>
        <mxCell id="trlSuUdZmVp7ZevmP9SD-110" value="NVSwitch&lt;div&gt;（MCRID）&lt;/div&gt;" style="rounded=1;whiteSpace=wrap;html=1;strokeWidth=2;fontStyle=1;fontSize=14;strokeColor=#b85450;fillColor=#f8cecc;" parent="1" vertex="1">
          <mxGeometry x="1561" y="1880" width="120" height="40" as="geometry" />
        </mxCell>
        <mxCell id="trlSuUdZmVp7ZevmP9SD-111" style="edgeStyle=orthogonalEdgeStyle;curved=1;rounded=0;orthogonalLoop=1;jettySize=auto;html=1;exitX=0;exitY=0.5;exitDx=0;exitDy=0;entryX=0;entryY=0.5;entryDx=0;entryDy=0;" parent="1" source="trlSuUdZmVp7ZevmP9SD-115" target="trlSuUdZmVp7ZevmP9SD-93" edge="1">
          <mxGeometry relative="1" as="geometry" />
        </mxCell>
        <mxCell id="trlSuUdZmVp7ZevmP9SD-112" value="&lt;span style=&quot;color: rgb(204, 0, 0); font-size: 13px; font-weight: 700;&quot;&gt;1. cuMulticastCreate&lt;/span&gt;" style="edgeLabel;html=1;align=center;verticalAlign=middle;resizable=0;points=[];" parent="trlSuUdZmVp7ZevmP9SD-111" vertex="1" connectable="0">
          <mxGeometry x="-0.1375" y="-1" relative="1" as="geometry">
            <mxPoint x="19" y="3" as="offset" />
          </mxGeometry>
        </mxCell>
        <mxCell id="trlSuUdZmVp7ZevmP9SD-113" style="edgeStyle=orthogonalEdgeStyle;curved=1;rounded=0;orthogonalLoop=1;jettySize=auto;html=1;exitX=0;exitY=0.5;exitDx=0;exitDy=0;entryX=0.5;entryY=0;entryDx=0;entryDy=0;" parent="1" source="trlSuUdZmVp7ZevmP9SD-115" target="trlSuUdZmVp7ZevmP9SD-93" edge="1">
          <mxGeometry relative="1" as="geometry">
            <Array as="points">
              <mxPoint x="1071" y="2020" />
              <mxPoint x="1071" y="1860" />
              <mxPoint x="1301" y="1860" />
            </Array>
          </mxGeometry>
        </mxCell>
        <mxCell id="trlSuUdZmVp7ZevmP9SD-114" value="&lt;span style=&quot;color: rgb(204, 0, 0); font-size: 13px; font-weight: 700;&quot;&gt;3. cuMulticastAddDevice&lt;/span&gt;" style="edgeLabel;html=1;align=center;verticalAlign=middle;resizable=0;points=[];" parent="trlSuUdZmVp7ZevmP9SD-113" vertex="1" connectable="0">
          <mxGeometry x="-0.4927" y="-10" relative="1" as="geometry">
            <mxPoint x="-20" as="offset" />
          </mxGeometry>
        </mxCell>
        <mxCell id="trlSuUdZmVp7ZevmP9SD-115" value="GPU0" style="rounded=1;whiteSpace=wrap;html=1;strokeWidth=2;fontStyle=1;fontSize=14;strokeColor=#b85450;fillColor=#f8cecc;" parent="1" vertex="1">
          <mxGeometry x="1161" y="2000" width="120" height="40" as="geometry" />
        </mxCell>
        <mxCell id="trlSuUdZmVp7ZevmP9SD-116" style="edgeStyle=orthogonalEdgeStyle;rounded=0;orthogonalLoop=1;jettySize=auto;html=1;exitX=0.5;exitY=1;exitDx=0;exitDy=0;entryX=0.5;entryY=0;entryDx=0;entryDy=0;" parent="1" target="trlSuUdZmVp7ZevmP9SD-118" edge="1">
          <mxGeometry relative="1" as="geometry">
            <mxPoint x="1221" y="2040" as="sourcePoint" />
          </mxGeometry>
        </mxCell>
        <mxCell id="trlSuUdZmVp7ZevmP9SD-117" value="2.&amp;nbsp;&amp;nbsp;&lt;span style=&quot;background-color: light-dark(#ffffff, var(--ge-dark-color, #121212));&quot;&gt;cuMemCreate&amp;nbsp;&lt;/span&gt;" style="edgeLabel;html=1;align=center;verticalAlign=middle;resizable=0;points=[];fontSize=13;fontStyle=1;fontColor=#CC0000;" parent="trlSuUdZmVp7ZevmP9SD-116" vertex="1" connectable="0">
          <mxGeometry y="-3" relative="1" as="geometry">
            <mxPoint as="offset" />
          </mxGeometry>
        </mxCell>
        <mxCell id="trlSuUdZmVp7ZevmP9SD-122" style="edgeStyle=orthogonalEdgeStyle;curved=1;rounded=0;orthogonalLoop=1;jettySize=auto;html=1;exitX=0;exitY=0.5;exitDx=0;exitDy=0;entryX=0.5;entryY=0;entryDx=0;entryDy=0;" parent="1" source="trlSuUdZmVp7ZevmP9SD-118" target="trlSuUdZmVp7ZevmP9SD-93" edge="1">
          <mxGeometry relative="1" as="geometry">
            <Array as="points">
              <mxPoint x="1030" y="2145" />
              <mxPoint x="1030" y="1860" />
              <mxPoint x="1301" y="1860" />
            </Array>
          </mxGeometry>
        </mxCell>
        <mxCell id="trlSuUdZmVp7ZevmP9SD-124" value="&lt;span style=&quot;color: rgb(204, 0, 0); font-size: 13px; font-weight: 700;&quot;&gt;4. cuMulticastBindMem&lt;/span&gt;" style="edgeLabel;html=1;align=center;verticalAlign=middle;resizable=0;points=[];" parent="trlSuUdZmVp7ZevmP9SD-122" vertex="1" connectable="0">
          <mxGeometry x="-0.4691" y="-24" relative="1" as="geometry">
            <mxPoint as="offset" />
          </mxGeometry>
        </mxCell>
        <mxCell id="trlSuUdZmVp7ZevmP9SD-118" value="&lt;font style=&quot;font-size: 14px;&quot;&gt;&lt;b&gt;UCHandler&lt;/b&gt;&lt;/font&gt;" style="ellipse;whiteSpace=wrap;html=1;fillColor=#f8cecc;strokeColor=#b85450;" parent="1" vertex="1">
          <mxGeometry x="1171" y="2120" width="100" height="50" as="geometry" />
        </mxCell>
        <mxCell id="trlSuUdZmVp7ZevmP9SD-119" style="edgeStyle=orthogonalEdgeStyle;rounded=0;orthogonalLoop=1;jettySize=auto;html=1;exitX=0.5;exitY=1;exitDx=0;exitDy=0;entryX=0.5;entryY=0;entryDx=0;entryDy=0;" parent="1" target="trlSuUdZmVp7ZevmP9SD-121" edge="1">
          <mxGeometry relative="1" as="geometry">
            <mxPoint x="1381" y="2039" as="sourcePoint" />
          </mxGeometry>
        </mxCell>
        <mxCell id="trlSuUdZmVp7ZevmP9SD-120" value="2.&amp;nbsp;&amp;nbsp;&lt;span style=&quot;background-color: light-dark(#ffffff, var(--ge-dark-color, #121212));&quot;&gt;cuMemCreate&amp;nbsp;&lt;/span&gt;" style="edgeLabel;html=1;align=center;verticalAlign=middle;resizable=0;points=[];fontSize=13;fontStyle=1;fontColor=#CC0000;" parent="trlSuUdZmVp7ZevmP9SD-119" vertex="1" connectable="0">
          <mxGeometry y="-3" relative="1" as="geometry">
            <mxPoint as="offset" />
          </mxGeometry>
        </mxCell>
        <mxCell id="trlSuUdZmVp7ZevmP9SD-121" value="&lt;font style=&quot;font-size: 14px;&quot;&gt;&lt;b&gt;UCHandler&lt;/b&gt;&lt;/font&gt;" style="ellipse;whiteSpace=wrap;html=1;fillColor=#f8cecc;strokeColor=#b85450;" parent="1" vertex="1">
          <mxGeometry x="1331" y="2119" width="100" height="50" as="geometry" />
        </mxCell>
        <mxCell id="Y1YbWvvdbPDcOFbUiReX-5" style="rounded=0;orthogonalLoop=1;jettySize=auto;html=1;exitX=0;exitY=0;exitDx=0;exitDy=0;entryX=0;entryY=1;entryDx=0;entryDy=0;endArrow=none;startFill=0;dashed=1;" parent="1" source="Y1YbWvvdbPDcOFbUiReX-1" target="Y1YbWvvdbPDcOFbUiReX-4" edge="1">
          <mxGeometry relative="1" as="geometry" />
        </mxCell>
        <mxCell id="Y1YbWvvdbPDcOFbUiReX-6" style="rounded=0;orthogonalLoop=1;jettySize=auto;html=1;exitX=0.318;exitY=0.037;exitDx=0;exitDy=0;entryX=1;entryY=1;entryDx=0;entryDy=0;endArrow=none;startFill=0;dashed=1;exitPerimeter=0;" parent="1" source="Y1YbWvvdbPDcOFbUiReX-1" target="Y1YbWvvdbPDcOFbUiReX-4" edge="1">
          <mxGeometry relative="1" as="geometry" />
        </mxCell>
        <mxCell id="Y1YbWvvdbPDcOFbUiReX-1" value="GPU0" style="rounded=1;whiteSpace=wrap;html=1;strokeWidth=2;fontStyle=1;fontSize=14;strokeColor=#6666FF;" parent="1" vertex="1">
          <mxGeometry x="2400" y="436" width="120" height="40" as="geometry" />
        </mxCell>
        <mxCell id="Y1YbWvvdbPDcOFbUiReX-7" style="rounded=0;orthogonalLoop=1;jettySize=auto;html=1;exitX=0;exitY=0;exitDx=0;exitDy=0;entryX=0;entryY=1;entryDx=0;entryDy=0;endArrow=none;startFill=0;dashed=1;" parent="1" source="Y1YbWvvdbPDcOFbUiReX-2" target="Y1YbWvvdbPDcOFbUiReX-4" edge="1">
          <mxGeometry relative="1" as="geometry" />
        </mxCell>
        <mxCell id="Y1YbWvvdbPDcOFbUiReX-8" style="rounded=0;orthogonalLoop=1;jettySize=auto;html=1;exitX=0.25;exitY=0;exitDx=0;exitDy=0;entryX=1;entryY=1;entryDx=0;entryDy=0;endArrow=none;startFill=0;dashed=1;" parent="1" source="Y1YbWvvdbPDcOFbUiReX-2" target="Y1YbWvvdbPDcOFbUiReX-4" edge="1">
          <mxGeometry relative="1" as="geometry" />
        </mxCell>
        <mxCell id="Y1YbWvvdbPDcOFbUiReX-2" value="GPU1" style="rounded=1;whiteSpace=wrap;html=1;strokeWidth=2;fontStyle=1;fontSize=14;strokeColor=#6666FF;" parent="1" vertex="1">
          <mxGeometry x="2640" y="436" width="120" height="40" as="geometry" />
        </mxCell>
        <mxCell id="Y1YbWvvdbPDcOFbUiReX-3" value="MCRID Table" style="rounded=1;whiteSpace=wrap;html=1;dashed=1;strokeWidth=2;" parent="1" vertex="1">
          <mxGeometry x="3000" y="490" width="120" height="40" as="geometry" />
        </mxCell>
        <mxCell id="Y1YbWvvdbPDcOFbUiReX-4" value="Fabric Manager IO&lt;div&gt;MCRID Tables&lt;/div&gt;" style="rounded=1;whiteSpace=wrap;html=1;dashed=1;strokeWidth=2;" parent="1" vertex="1">
          <mxGeometry x="2520" y="276" width="120" height="40" as="geometry" />
        </mxCell>
        <mxCell id="Y1YbWvvdbPDcOFbUiReX-9" value="BRA 0" style="text;strokeColor=none;align=center;fillColor=none;html=1;verticalAlign=middle;whiteSpace=wrap;rounded=0;" parent="1" vertex="1">
          <mxGeometry x="2419" y="406" width="50" height="20" as="geometry" />
        </mxCell>
        <mxCell id="Y1YbWvvdbPDcOFbUiReX-10" value="BRA 0" style="text;strokeColor=none;align=center;fillColor=none;html=1;verticalAlign=middle;whiteSpace=wrap;rounded=0;" parent="1" vertex="1">
          <mxGeometry x="2620" y="406" width="50" height="20" as="geometry" />
        </mxCell>
        <mxCell id="Y1YbWvvdbPDcOFbUiReX-11" value="NVSwitch" style="rounded=1;whiteSpace=wrap;html=1;strokeWidth=2;fontStyle=1;fontSize=14;strokeColor=#82b366;fillColor=#d5e8d4;" parent="1" vertex="1">
          <mxGeometry x="2440" y="663" width="120" height="40" as="geometry" />
        </mxCell>
        <mxCell id="Y1YbWvvdbPDcOFbUiReX-18" value="GPU2" style="rounded=1;whiteSpace=wrap;html=1;strokeWidth=2;fontStyle=1;fontSize=14;strokeColor=#6c8ebf;fillColor=#dae8fc;" parent="1" vertex="1">
          <mxGeometry x="2680" y="880" width="120" height="40" as="geometry" />
        </mxCell>
        <mxCell id="Y1YbWvvdbPDcOFbUiReX-22" value="GPU3" style="rounded=1;whiteSpace=wrap;html=1;strokeWidth=2;fontStyle=1;fontSize=14;strokeColor=#6c8ebf;fillColor=#dae8fc;" parent="1" vertex="1">
          <mxGeometry x="2840" y="880" width="120" height="40" as="geometry" />
        </mxCell>
        <mxCell id="Y1YbWvvdbPDcOFbUiReX-26" value="GPU1" style="rounded=1;whiteSpace=wrap;html=1;strokeWidth=2;fontStyle=1;fontSize=14;strokeColor=#6c8ebf;fillColor=#dae8fc;" parent="1" vertex="1">
          <mxGeometry x="2520" y="880" width="120" height="40" as="geometry" />
        </mxCell>
        <mxCell id="Y1YbWvvdbPDcOFbUiReX-27" value="NVSwitch" style="rounded=1;whiteSpace=wrap;html=1;strokeWidth=2;fontStyle=1;fontSize=14;strokeColor=#82b366;fillColor=#d5e8d4;" parent="1" vertex="1">
          <mxGeometry x="2600" y="663" width="120" height="40" as="geometry" />
        </mxCell>
        <mxCell id="Y1YbWvvdbPDcOFbUiReX-28" value="NVSwitch" style="rounded=1;whiteSpace=wrap;html=1;strokeWidth=2;fontStyle=1;fontSize=14;strokeColor=#82b366;fillColor=#d5e8d4;" parent="1" vertex="1">
          <mxGeometry x="2760" y="663" width="120" height="40" as="geometry" />
        </mxCell>
        <mxCell id="Y1YbWvvdbPDcOFbUiReX-29" value="GPU0" style="rounded=1;whiteSpace=wrap;html=1;strokeWidth=2;fontStyle=1;fontSize=14;strokeColor=#6c8ebf;fillColor=#dae8fc;" parent="1" vertex="1">
          <mxGeometry x="2360" y="880" width="120" height="40" as="geometry" />
        </mxCell>
        <mxCell id="Y1YbWvvdbPDcOFbUiReX-30" value="Fabric Manager IO&lt;div&gt;MCRID Tables&lt;/div&gt;" style="rounded=1;whiteSpace=wrap;html=1;dashed=1;strokeWidth=2;fillColor=#e1d5e7;strokeColor=#9673a6;" parent="1" vertex="1">
          <mxGeometry x="2600" y="760" width="120" height="40" as="geometry" />
        </mxCell>
        <mxCell id="Y1YbWvvdbPDcOFbUiReX-31" style="rounded=0;orthogonalLoop=1;jettySize=auto;html=1;exitX=0.059;exitY=-0.084;exitDx=0;exitDy=0;entryX=0;entryY=1;entryDx=0;entryDy=0;endArrow=none;startFill=0;dashed=1;exitPerimeter=0;" parent="1" source="Y1YbWvvdbPDcOFbUiReX-29" edge="1">
          <mxGeometry relative="1" as="geometry">
            <mxPoint x="2480" y="920" as="sourcePoint" />
            <mxPoint x="2600" y="800" as="targetPoint" />
          </mxGeometry>
        </mxCell>
        <mxCell id="Y1YbWvvdbPDcOFbUiReX-32" style="rounded=0;orthogonalLoop=1;jettySize=auto;html=1;exitX=0.25;exitY=0;exitDx=0;exitDy=0;entryX=1;entryY=1;entryDx=0;entryDy=0;endArrow=none;startFill=0;dashed=1;" parent="1" source="Y1YbWvvdbPDcOFbUiReX-29" edge="1">
          <mxGeometry relative="1" as="geometry">
            <mxPoint x="2518" y="921" as="sourcePoint" />
            <mxPoint x="2720" y="800" as="targetPoint" />
          </mxGeometry>
        </mxCell>
        <mxCell id="Y1YbWvvdbPDcOFbUiReX-33" style="rounded=0;orthogonalLoop=1;jettySize=auto;html=1;exitX=0;exitY=0;exitDx=0;exitDy=0;entryX=0;entryY=1;entryDx=0;entryDy=0;endArrow=none;startFill=0;dashed=1;" parent="1" source="Y1YbWvvdbPDcOFbUiReX-26" edge="1">
          <mxGeometry relative="1" as="geometry">
            <mxPoint x="2720" y="920" as="sourcePoint" />
            <mxPoint x="2600" y="800" as="targetPoint" />
          </mxGeometry>
        </mxCell>
        <mxCell id="Y1YbWvvdbPDcOFbUiReX-34" style="rounded=0;orthogonalLoop=1;jettySize=auto;html=1;exitX=0.25;exitY=0;exitDx=0;exitDy=0;entryX=1;entryY=1;entryDx=0;entryDy=0;endArrow=none;startFill=0;dashed=1;" parent="1" source="Y1YbWvvdbPDcOFbUiReX-26" edge="1">
          <mxGeometry relative="1" as="geometry">
            <mxPoint x="2750" y="920" as="sourcePoint" />
            <mxPoint x="2720" y="800" as="targetPoint" />
          </mxGeometry>
        </mxCell>
        <mxCell id="Y1YbWvvdbPDcOFbUiReX-37" style="rounded=0;orthogonalLoop=1;jettySize=auto;html=1;exitX=0;exitY=0;exitDx=0;exitDy=0;entryX=0;entryY=1;entryDx=0;entryDy=0;endArrow=none;startFill=0;dashed=1;" parent="1" source="Y1YbWvvdbPDcOFbUiReX-18" target="Y1YbWvvdbPDcOFbUiReX-30" edge="1">
          <mxGeometry relative="1" as="geometry">
            <mxPoint x="2740" y="860" as="sourcePoint" />
            <mxPoint x="2820" y="780" as="targetPoint" />
          </mxGeometry>
        </mxCell>
        <mxCell id="Y1YbWvvdbPDcOFbUiReX-39" style="rounded=0;orthogonalLoop=1;jettySize=auto;html=1;exitX=0;exitY=0;exitDx=0;exitDy=0;entryX=0;entryY=1;entryDx=0;entryDy=0;endArrow=none;startFill=0;dashed=1;" parent="1" source="Y1YbWvvdbPDcOFbUiReX-22" target="Y1YbWvvdbPDcOFbUiReX-30" edge="1">
          <mxGeometry relative="1" as="geometry">
            <mxPoint x="2840" y="870" as="sourcePoint" />
            <mxPoint x="2760" y="790" as="targetPoint" />
          </mxGeometry>
        </mxCell>
        <mxCell id="Y1YbWvvdbPDcOFbUiReX-40" style="rounded=0;orthogonalLoop=1;jettySize=auto;html=1;exitX=0.25;exitY=0;exitDx=0;exitDy=0;entryX=0.955;entryY=1.02;entryDx=0;entryDy=0;endArrow=none;startFill=0;dashed=1;entryPerimeter=0;" parent="1" source="Y1YbWvvdbPDcOFbUiReX-18" target="Y1YbWvvdbPDcOFbUiReX-30" edge="1">
          <mxGeometry relative="1" as="geometry">
            <mxPoint x="2980" y="860" as="sourcePoint" />
            <mxPoint x="2740" y="780" as="targetPoint" />
          </mxGeometry>
        </mxCell>
        <mxCell id="Y1YbWvvdbPDcOFbUiReX-41" style="rounded=0;orthogonalLoop=1;jettySize=auto;html=1;exitX=0.25;exitY=0;exitDx=0;exitDy=0;entryX=0.917;entryY=1;entryDx=0;entryDy=0;endArrow=none;startFill=0;dashed=1;entryPerimeter=0;" parent="1" source="Y1YbWvvdbPDcOFbUiReX-22" target="Y1YbWvvdbPDcOFbUiReX-30" edge="1">
          <mxGeometry relative="1" as="geometry">
            <mxPoint x="2880" y="840" as="sourcePoint" />
            <mxPoint x="2885" y="761" as="targetPoint" />
          </mxGeometry>
        </mxCell>
        <mxCell id="Y1YbWvvdbPDcOFbUiReX-51" value="" style="shape=flexArrow;endArrow=classic;html=1;rounded=0;entryX=0.553;entryY=1.004;entryDx=0;entryDy=0;entryPerimeter=0;dashed=1;exitX=0;exitY=0;exitDx=0;exitDy=0;" parent="1" target="Y1YbWvvdbPDcOFbUiReX-11" edge="1">
          <mxGeometry width="50" height="50" relative="1" as="geometry">
            <mxPoint x="2600" y="762" as="sourcePoint" />
            <mxPoint x="3050" y="792" as="targetPoint" />
          </mxGeometry>
        </mxCell>
        <mxCell id="Y1YbWvvdbPDcOFbUiReX-52" value="" style="shape=flexArrow;endArrow=classic;html=1;rounded=0;entryX=0.5;entryY=1;entryDx=0;entryDy=0;dashed=1;" parent="1" target="Y1YbWvvdbPDcOFbUiReX-27" edge="1">
          <mxGeometry width="50" height="50" relative="1" as="geometry">
            <mxPoint x="2660" y="761" as="sourcePoint" />
            <mxPoint x="2669.64" y="712.42" as="targetPoint" />
          </mxGeometry>
        </mxCell>
        <mxCell id="Y1YbWvvdbPDcOFbUiReX-53" value="" style="shape=flexArrow;endArrow=classic;html=1;rounded=0;entryX=0.546;entryY=1.004;entryDx=0;entryDy=0;entryPerimeter=0;exitX=1;exitY=0;exitDx=0;exitDy=0;dashed=1;" parent="1" target="Y1YbWvvdbPDcOFbUiReX-28" edge="1">
          <mxGeometry width="50" height="50" relative="1" as="geometry">
            <mxPoint x="2720" y="762" as="sourcePoint" />
            <mxPoint x="2799.64" y="721.84" as="targetPoint" />
          </mxGeometry>
        </mxCell>
        <mxCell id="Y1YbWvvdbPDcOFbUiReX-54" value="BAR" style="text;strokeColor=none;align=center;fillColor=none;html=1;verticalAlign=middle;whiteSpace=wrap;rounded=0;" parent="1" vertex="1">
          <mxGeometry x="3038" y="750" width="30" height="10" as="geometry" />
        </mxCell>
        <mxCell id="Y1YbWvvdbPDcOFbUiReX-59" value="GPU0&lt;div&gt;&lt;span style=&quot;font-family: Consolas, &amp;quot;Bitstream Vera Sans Mono&amp;quot;, &amp;quot;Courier New&amp;quot;, Courier, monospace; font-weight: 400; text-align: left; text-wrap-mode: nowrap;&quot;&gt;&lt;font style=&quot;font-size: 6px; color: rgb(0, 0, 204);&quot;&gt;&lt;i style=&quot;&quot;&gt;multimem.ld.reduce.add.f32&lt;/i&gt;&lt;/font&gt;&lt;/span&gt;&lt;/div&gt;" style="rounded=1;whiteSpace=wrap;html=1;strokeWidth=2;fontStyle=1;fontSize=14;strokeColor=#6c8ebf;fillColor=#dae8fc;" parent="1" vertex="1">
          <mxGeometry x="2550" y="1843.5" width="120" height="40" as="geometry" />
        </mxCell>
        <mxCell id="Y1YbWvvdbPDcOFbUiReX-60" value="Fabric Manager IO&lt;div&gt;MCRID Tables&lt;/div&gt;" style="rounded=1;whiteSpace=wrap;html=1;dashed=1;strokeWidth=2;fillColor=#e1d5e7;strokeColor=#9673a6;" parent="1" vertex="1">
          <mxGeometry x="2760" y="1983.5" width="120" height="40" as="geometry" />
        </mxCell>
        <mxCell id="Y1YbWvvdbPDcOFbUiReX-65" value="" style="childLayout=tableLayout;recursiveResize=0;shadow=0;fillColor=none;fontSize=6;strokeColor=#6C8EBF;" parent="1" vertex="1">
          <mxGeometry x="2700" y="1830" width="190" height="9.5" as="geometry" />
        </mxCell>
        <mxCell id="Y1YbWvvdbPDcOFbUiReX-66" value="" style="shape=tableRow;horizontal=0;startSize=0;swimlaneHead=0;swimlaneBody=0;top=0;left=0;bottom=0;right=0;dropTarget=0;collapsible=0;recursiveResize=0;expand=0;fontStyle=0;fillColor=none;strokeColor=#6C8EBF;fontSize=6;" parent="Y1YbWvvdbPDcOFbUiReX-65" vertex="1">
          <mxGeometry width="190" height="10" as="geometry" />
        </mxCell>
        <mxCell id="Y1YbWvvdbPDcOFbUiReX-80" value="MCRID" style="connectable=0;recursiveResize=0;strokeColor=#6C8EBF;fillColor=none;align=center;whiteSpace=wrap;html=1;fontSize=6;" parent="Y1YbWvvdbPDcOFbUiReX-66" vertex="1">
          <mxGeometry width="30" height="10" as="geometry">
            <mxRectangle width="30" height="10" as="alternateBounds" />
          </mxGeometry>
        </mxCell>
        <mxCell id="Y1YbWvvdbPDcOFbUiReX-67" value="opcode" style="connectable=0;recursiveResize=0;strokeColor=#6C8EBF;fillColor=none;align=center;whiteSpace=wrap;html=1;fontSize=6;" parent="Y1YbWvvdbPDcOFbUiReX-66" vertex="1">
          <mxGeometry x="30" width="35" height="10" as="geometry">
            <mxRectangle width="35" height="10" as="alternateBounds" />
          </mxGeometry>
        </mxCell>
        <mxCell id="Y1YbWvvdbPDcOFbUiReX-68" value="src" style="connectable=0;recursiveResize=0;strokeColor=#6C8EBF;fillColor=none;align=center;whiteSpace=wrap;html=1;fontSize=6;" parent="Y1YbWvvdbPDcOFbUiReX-66" vertex="1">
          <mxGeometry x="65" width="30" height="10" as="geometry">
            <mxRectangle width="30" height="10" as="alternateBounds" />
          </mxGeometry>
        </mxCell>
        <mxCell id="Y1YbWvvdbPDcOFbUiReX-69" value="dest" style="connectable=0;recursiveResize=0;strokeColor=#6C8EBF;fillColor=none;align=center;whiteSpace=wrap;html=1;fontSize=6;" parent="Y1YbWvvdbPDcOFbUiReX-66" vertex="1">
          <mxGeometry x="95" width="30" height="10" as="geometry">
            <mxRectangle width="30" height="10" as="alternateBounds" />
          </mxGeometry>
        </mxCell>
        <mxCell id="Y1YbWvvdbPDcOFbUiReX-78" value="size" style="connectable=0;recursiveResize=0;strokeColor=#6C8EBF;fillColor=none;align=center;whiteSpace=wrap;html=1;fontSize=6;" parent="Y1YbWvvdbPDcOFbUiReX-66" vertex="1">
          <mxGeometry x="125" width="35" height="10" as="geometry">
            <mxRectangle width="35" height="10" as="alternateBounds" />
          </mxGeometry>
        </mxCell>
        <mxCell id="Y1YbWvvdbPDcOFbUiReX-79" value="......" style="connectable=0;recursiveResize=0;strokeColor=#6C8EBF;fillColor=none;align=center;whiteSpace=wrap;html=1;fontSize=6;" parent="Y1YbWvvdbPDcOFbUiReX-66" vertex="1">
          <mxGeometry x="160" width="30" height="10" as="geometry">
            <mxRectangle width="30" height="10" as="alternateBounds" />
          </mxGeometry>
        </mxCell>
        <mxCell id="Y1YbWvvdbPDcOFbUiReX-81" value="" style="endArrow=classic;html=1;rounded=0;exitX=1;exitY=0.75;exitDx=0;exitDy=0;entryX=0.583;entryY=0;entryDx=0;entryDy=0;entryPerimeter=0;edgeStyle=orthogonalEdgeStyle;strokeColor=#6C8EBF;" parent="1" source="Y1YbWvvdbPDcOFbUiReX-59" target="Y1YbWvvdbPDcOFbUiReX-60" edge="1">
          <mxGeometry relative="1" as="geometry">
            <mxPoint x="2710" y="1883.5" as="sourcePoint" />
            <mxPoint x="2810" y="1883.5" as="targetPoint" />
          </mxGeometry>
        </mxCell>
        <mxCell id="Y1YbWvvdbPDcOFbUiReX-82" value="REQ" style="shape=message;html=1;outlineConnect=0;strokeColor=#6C8EBF;" parent="Y1YbWvvdbPDcOFbUiReX-81" vertex="1">
          <mxGeometry width="30" height="20" relative="1" as="geometry">
            <mxPoint x="-20" y="-7" as="offset" />
          </mxGeometry>
        </mxCell>
        <mxCell id="Y1YbWvvdbPDcOFbUiReX-83" value="" style="endArrow=none;dashed=1;html=1;rounded=0;entryX=0;entryY=1;entryDx=0;entryDy=0;strokeColor=#6C8EBF;" parent="1" source="Y1YbWvvdbPDcOFbUiReX-82" target="Y1YbWvvdbPDcOFbUiReX-66" edge="1">
          <mxGeometry width="50" height="50" relative="1" as="geometry">
            <mxPoint x="2740" y="1923.5" as="sourcePoint" />
            <mxPoint x="2680" y="1903.5" as="targetPoint" />
          </mxGeometry>
        </mxCell>
        <mxCell id="Y1YbWvvdbPDcOFbUiReX-84" value="" style="endArrow=none;dashed=1;html=1;rounded=0;entryX=0.985;entryY=1.21;entryDx=0;entryDy=0;entryPerimeter=0;exitX=1;exitY=0.3;exitDx=0;exitDy=0;strokeColor=#6C8EBF;" parent="1" source="Y1YbWvvdbPDcOFbUiReX-82" target="Y1YbWvvdbPDcOFbUiReX-66" edge="1">
          <mxGeometry width="50" height="50" relative="1" as="geometry">
            <mxPoint x="2630" y="1953.5" as="sourcePoint" />
            <mxPoint x="2680" y="1903.5" as="targetPoint" />
          </mxGeometry>
        </mxCell>
        <mxCell id="Y1YbWvvdbPDcOFbUiReX-85" value="" style="endArrow=classic;html=1;rounded=0;exitX=0;exitY=0.5;exitDx=0;exitDy=0;entryX=0.5;entryY=1;entryDx=0;entryDy=0;edgeStyle=orthogonalEdgeStyle;strokeColor=#9673A6;" parent="1" source="Y1YbWvvdbPDcOFbUiReX-60" target="Y1YbWvvdbPDcOFbUiReX-59" edge="1">
          <mxGeometry relative="1" as="geometry">
            <mxPoint x="2610" y="1923.5" as="sourcePoint" />
            <mxPoint x="2710" y="1923.5" as="targetPoint" />
          </mxGeometry>
        </mxCell>
        <mxCell id="Y1YbWvvdbPDcOFbUiReX-86" value="ACK" style="shape=message;html=1;outlineConnect=0;" parent="Y1YbWvvdbPDcOFbUiReX-85" vertex="1">
          <mxGeometry width="30" height="14" relative="1" as="geometry">
            <mxPoint x="-10" y="-7" as="offset" />
          </mxGeometry>
        </mxCell>
        <mxCell id="Y1YbWvvdbPDcOFbUiReX-90" value="&lt;span style=&quot;font-size: 8px;&quot;&gt;GPU将NVSwitch当成一个远端的地址写入数据；&lt;/span&gt;&lt;div&gt;&lt;span style=&quot;font-size: 8px;&quot;&gt;NVSwitch返回ACK时代表该entry执行完毕&lt;/span&gt;&lt;/div&gt;" style="shape=document;whiteSpace=wrap;html=1;boundedLbl=1;align=left;sketch=1;curveFitting=1;jiggle=2;fillColor=#fff2cc;strokeColor=#d6b656;" parent="1" vertex="1">
          <mxGeometry x="2660" y="1903.5" width="120" height="80" as="geometry" />
        </mxCell>
        <mxCell id="Zrw1n7WmzKHaE9fEEse0-1" value="NVSwitch" style="rounded=1;whiteSpace=wrap;html=1;strokeWidth=2;fontStyle=1;fontSize=14;strokeColor=#82b366;fillColor=#d5e8d4;" parent="1" vertex="1">
          <mxGeometry x="2440" y="1141" width="120" height="40" as="geometry" />
        </mxCell>
        <mxCell id="Zrw1n7WmzKHaE9fEEse0-2" value="GPU2" style="rounded=1;whiteSpace=wrap;html=1;strokeWidth=2;fontStyle=1;fontSize=14;strokeColor=#6c8ebf;fillColor=#dae8fc;" parent="1" vertex="1">
          <mxGeometry x="2680" y="1358" width="120" height="40" as="geometry" />
        </mxCell>
        <mxCell id="Zrw1n7WmzKHaE9fEEse0-3" value="GPU3" style="rounded=1;whiteSpace=wrap;html=1;strokeWidth=2;fontStyle=1;fontSize=14;" parent="1" vertex="1">
          <mxGeometry x="2840" y="1358" width="120" height="40" as="geometry" />
        </mxCell>
        <mxCell id="Zrw1n7WmzKHaE9fEEse0-4" value="GPU1" style="rounded=1;whiteSpace=wrap;html=1;strokeWidth=2;fontStyle=1;fontSize=14;strokeColor=#6c8ebf;fillColor=#dae8fc;" parent="1" vertex="1">
          <mxGeometry x="2520" y="1358" width="120" height="62" as="geometry" />
        </mxCell>
        <mxCell id="Zrw1n7WmzKHaE9fEEse0-5" value="NVSwitch" style="rounded=1;whiteSpace=wrap;html=1;strokeWidth=2;fontStyle=1;fontSize=14;strokeColor=#82b366;fillColor=#d5e8d4;" parent="1" vertex="1">
          <mxGeometry x="2600" y="1141" width="120" height="40" as="geometry" />
        </mxCell>
        <mxCell id="Zrw1n7WmzKHaE9fEEse0-6" value="NVSwitch" style="rounded=1;whiteSpace=wrap;html=1;strokeWidth=2;fontStyle=1;fontSize=14;strokeColor=#82b366;fillColor=#d5e8d4;" parent="1" vertex="1">
          <mxGeometry x="2760" y="1141" width="120" height="40" as="geometry" />
        </mxCell>
        <mxCell id="Zrw1n7WmzKHaE9fEEse0-7" value="GPU0" style="rounded=1;whiteSpace=wrap;html=1;strokeWidth=2;fontStyle=1;fontSize=14;" parent="1" vertex="1">
          <mxGeometry x="2360" y="1358" width="120" height="40" as="geometry" />
        </mxCell>
        <mxCell id="Zrw1n7WmzKHaE9fEEse0-8" value="Fabric Manager IO&lt;div&gt;MCRID Tables&lt;/div&gt;" style="rounded=1;whiteSpace=wrap;html=1;dashed=1;strokeWidth=2;fillColor=#e1d5e7;strokeColor=#9673a6;" parent="1" vertex="1">
          <mxGeometry x="2600" y="1238" width="120" height="40" as="geometry" />
        </mxCell>
        <mxCell id="Zrw1n7WmzKHaE9fEEse0-9" style="rounded=0;orthogonalLoop=1;jettySize=auto;html=1;exitX=0.059;exitY=-0.084;exitDx=0;exitDy=0;entryX=0;entryY=1;entryDx=0;entryDy=0;endArrow=none;startFill=0;dashed=1;exitPerimeter=0;" parent="1" source="Zrw1n7WmzKHaE9fEEse0-7" edge="1">
          <mxGeometry relative="1" as="geometry">
            <mxPoint x="2480" y="1398" as="sourcePoint" />
            <mxPoint x="2600" y="1278" as="targetPoint" />
          </mxGeometry>
        </mxCell>
        <mxCell id="Zrw1n7WmzKHaE9fEEse0-10" style="rounded=0;orthogonalLoop=1;jettySize=auto;html=1;exitX=0.25;exitY=0;exitDx=0;exitDy=0;entryX=1;entryY=1;entryDx=0;entryDy=0;endArrow=none;startFill=0;dashed=1;" parent="1" source="Zrw1n7WmzKHaE9fEEse0-7" edge="1">
          <mxGeometry relative="1" as="geometry">
            <mxPoint x="2518" y="1399" as="sourcePoint" />
            <mxPoint x="2720" y="1278" as="targetPoint" />
          </mxGeometry>
        </mxCell>
        <mxCell id="Zrw1n7WmzKHaE9fEEse0-11" style="rounded=0;orthogonalLoop=1;jettySize=auto;html=1;exitX=0;exitY=0;exitDx=0;exitDy=0;entryX=0;entryY=1;entryDx=0;entryDy=0;endArrow=none;startFill=0;dashed=1;" parent="1" source="Zrw1n7WmzKHaE9fEEse0-4" edge="1">
          <mxGeometry relative="1" as="geometry">
            <mxPoint x="2720" y="1398" as="sourcePoint" />
            <mxPoint x="2600" y="1278" as="targetPoint" />
          </mxGeometry>
        </mxCell>
        <mxCell id="Zrw1n7WmzKHaE9fEEse0-12" style="rounded=0;orthogonalLoop=1;jettySize=auto;html=1;exitX=0.25;exitY=0;exitDx=0;exitDy=0;entryX=1;entryY=1;entryDx=0;entryDy=0;endArrow=none;startFill=0;dashed=1;" parent="1" source="Zrw1n7WmzKHaE9fEEse0-4" edge="1">
          <mxGeometry relative="1" as="geometry">
            <mxPoint x="2750" y="1398" as="sourcePoint" />
            <mxPoint x="2720" y="1278" as="targetPoint" />
          </mxGeometry>
        </mxCell>
        <mxCell id="Zrw1n7WmzKHaE9fEEse0-13" style="rounded=0;orthogonalLoop=1;jettySize=auto;html=1;exitX=0;exitY=0;exitDx=0;exitDy=0;entryX=0;entryY=1;entryDx=0;entryDy=0;endArrow=none;startFill=0;dashed=1;" parent="1" source="Zrw1n7WmzKHaE9fEEse0-2" target="Zrw1n7WmzKHaE9fEEse0-8" edge="1">
          <mxGeometry relative="1" as="geometry">
            <mxPoint x="2740" y="1338" as="sourcePoint" />
            <mxPoint x="2820" y="1258" as="targetPoint" />
          </mxGeometry>
        </mxCell>
        <mxCell id="Zrw1n7WmzKHaE9fEEse0-14" style="rounded=0;orthogonalLoop=1;jettySize=auto;html=1;exitX=0;exitY=0;exitDx=0;exitDy=0;entryX=0;entryY=1;entryDx=0;entryDy=0;endArrow=none;startFill=0;dashed=1;" parent="1" source="Zrw1n7WmzKHaE9fEEse0-3" target="Zrw1n7WmzKHaE9fEEse0-8" edge="1">
          <mxGeometry relative="1" as="geometry">
            <mxPoint x="2840" y="1348" as="sourcePoint" />
            <mxPoint x="2760" y="1268" as="targetPoint" />
          </mxGeometry>
        </mxCell>
        <mxCell id="Zrw1n7WmzKHaE9fEEse0-15" style="rounded=0;orthogonalLoop=1;jettySize=auto;html=1;exitX=0.25;exitY=0;exitDx=0;exitDy=0;entryX=0.955;entryY=1.02;entryDx=0;entryDy=0;endArrow=none;startFill=0;dashed=1;entryPerimeter=0;" parent="1" source="Zrw1n7WmzKHaE9fEEse0-2" target="Zrw1n7WmzKHaE9fEEse0-8" edge="1">
          <mxGeometry relative="1" as="geometry">
            <mxPoint x="2980" y="1338" as="sourcePoint" />
            <mxPoint x="2740" y="1258" as="targetPoint" />
          </mxGeometry>
        </mxCell>
        <mxCell id="Zrw1n7WmzKHaE9fEEse0-16" style="rounded=0;orthogonalLoop=1;jettySize=auto;html=1;exitX=0.25;exitY=0;exitDx=0;exitDy=0;entryX=0.917;entryY=1;entryDx=0;entryDy=0;endArrow=none;startFill=0;dashed=1;entryPerimeter=0;" parent="1" source="Zrw1n7WmzKHaE9fEEse0-3" target="Zrw1n7WmzKHaE9fEEse0-8" edge="1">
          <mxGeometry relative="1" as="geometry">
            <mxPoint x="2880" y="1318" as="sourcePoint" />
            <mxPoint x="2885" y="1239" as="targetPoint" />
          </mxGeometry>
        </mxCell>
        <mxCell id="Zrw1n7WmzKHaE9fEEse0-17" value="" style="shape=flexArrow;endArrow=classic;html=1;rounded=0;entryX=0.553;entryY=1.004;entryDx=0;entryDy=0;entryPerimeter=0;dashed=1;exitX=0;exitY=0;exitDx=0;exitDy=0;" parent="1" target="Zrw1n7WmzKHaE9fEEse0-1" edge="1">
          <mxGeometry width="50" height="50" relative="1" as="geometry">
            <mxPoint x="2600" y="1240" as="sourcePoint" />
            <mxPoint x="3050" y="1270" as="targetPoint" />
          </mxGeometry>
        </mxCell>
        <mxCell id="Zrw1n7WmzKHaE9fEEse0-18" value="" style="shape=flexArrow;endArrow=classic;html=1;rounded=0;entryX=0.5;entryY=1;entryDx=0;entryDy=0;dashed=1;" parent="1" target="Zrw1n7WmzKHaE9fEEse0-5" edge="1">
          <mxGeometry width="50" height="50" relative="1" as="geometry">
            <mxPoint x="2660" y="1239" as="sourcePoint" />
            <mxPoint x="2669.64" y="1190.42" as="targetPoint" />
          </mxGeometry>
        </mxCell>
        <mxCell id="Zrw1n7WmzKHaE9fEEse0-19" value="" style="shape=flexArrow;endArrow=classic;html=1;rounded=0;entryX=0.546;entryY=1.004;entryDx=0;entryDy=0;entryPerimeter=0;exitX=1;exitY=0;exitDx=0;exitDy=0;dashed=1;" parent="1" target="Zrw1n7WmzKHaE9fEEse0-6" edge="1">
          <mxGeometry width="50" height="50" relative="1" as="geometry">
            <mxPoint x="2720" y="1240" as="sourcePoint" />
            <mxPoint x="2799.64" y="1199.8400000000001" as="targetPoint" />
          </mxGeometry>
        </mxCell>
        <mxCell id="Zrw1n7WmzKHaE9fEEse0-20" value="NVSwitch" style="rounded=1;whiteSpace=wrap;html=1;strokeWidth=2;fontStyle=0;fontSize=14;strokeColor=#82b366;fillColor=#d5e8d4;" parent="1" vertex="1">
          <mxGeometry x="3240" y="1200" width="120" height="40" as="geometry" />
        </mxCell>
        <mxCell id="Zrw1n7WmzKHaE9fEEse0-21" style="rounded=0;orthogonalLoop=1;jettySize=auto;html=1;endArrow=none;startFill=0;strokeWidth=2;strokeColor=#82b366;exitX=0.5;exitY=0;exitDx=0;exitDy=0;fillColor=#d5e8d4;fontStyle=0" parent="1" source="Zrw1n7WmzKHaE9fEEse0-38" edge="1">
          <mxGeometry relative="1" as="geometry">
            <mxPoint x="3300" y="1240" as="targetPoint" />
            <mxPoint x="3220" y="1310" as="sourcePoint" />
          </mxGeometry>
        </mxCell>
        <mxCell id="Zrw1n7WmzKHaE9fEEse0-48" value="entry0&lt;div&gt;entry3&lt;/div&gt;" style="edgeLabel;html=1;align=center;verticalAlign=middle;resizable=0;points=[];fontSize=12;fontStyle=1;fontColor=#990000;" parent="Zrw1n7WmzKHaE9fEEse0-21" vertex="1" connectable="0">
          <mxGeometry x="-0.2482" y="2" relative="1" as="geometry">
            <mxPoint x="21" y="-28" as="offset" />
          </mxGeometry>
        </mxCell>
        <mxCell id="Zrw1n7WmzKHaE9fEEse0-22" style="rounded=0;orthogonalLoop=1;jettySize=auto;html=1;exitX=0.5;exitY=0;exitDx=0;exitDy=0;entryX=0.5;entryY=1;entryDx=0;entryDy=0;endArrow=none;startFill=0;strokeWidth=2;strokeColor=#82b366;fontColor=#D5E8D4;fillColor=#d5e8d4;fontStyle=0" parent="1" source="Zrw1n7WmzKHaE9fEEse0-38" target="Zrw1n7WmzKHaE9fEEse0-36" edge="1">
          <mxGeometry relative="1" as="geometry" />
        </mxCell>
        <mxCell id="Zrw1n7WmzKHaE9fEEse0-49" value="entry1" style="edgeLabel;html=1;align=center;verticalAlign=middle;resizable=0;points=[];fontSize=12;fontStyle=1;fontColor=#990000;" parent="Zrw1n7WmzKHaE9fEEse0-22" vertex="1" connectable="0">
          <mxGeometry x="-0.3224" y="3" relative="1" as="geometry">
            <mxPoint x="10" y="-10" as="offset" />
          </mxGeometry>
        </mxCell>
        <mxCell id="Zrw1n7WmzKHaE9fEEse0-23" style="rounded=0;orthogonalLoop=1;jettySize=auto;html=1;exitX=0.5;exitY=0;exitDx=0;exitDy=0;endArrow=none;startFill=0;strokeWidth=2;strokeColor=#82b366;fillColor=#d5e8d4;fontStyle=0" parent="1" source="Zrw1n7WmzKHaE9fEEse0-38" edge="1">
          <mxGeometry relative="1" as="geometry">
            <mxPoint x="3620" y="1240" as="targetPoint" />
          </mxGeometry>
        </mxCell>
        <mxCell id="Zrw1n7WmzKHaE9fEEse0-50" value="entry2" style="edgeLabel;html=1;align=center;verticalAlign=middle;resizable=0;points=[];fontSize=12;fontStyle=1;fontColor=#990000;" parent="Zrw1n7WmzKHaE9fEEse0-23" vertex="1" connectable="0">
          <mxGeometry x="-0.6194" relative="1" as="geometry">
            <mxPoint x="84" y="-22" as="offset" />
          </mxGeometry>
        </mxCell>
        <mxCell id="Zrw1n7WmzKHaE9fEEse0-24" style="rounded=0;orthogonalLoop=1;jettySize=auto;html=1;exitX=0.5;exitY=0;exitDx=0;exitDy=0;endArrow=none;startFill=0;strokeWidth=1;strokeColor=#D5E8D4;fontStyle=0" parent="1" source="Zrw1n7WmzKHaE9fEEse0-27" edge="1">
          <mxGeometry relative="1" as="geometry">
            <mxPoint x="3300" y="1240" as="targetPoint" />
          </mxGeometry>
        </mxCell>
        <mxCell id="Zrw1n7WmzKHaE9fEEse0-25" style="rounded=0;orthogonalLoop=1;jettySize=auto;html=1;exitX=0.5;exitY=0;exitDx=0;exitDy=0;entryX=0.5;entryY=1;entryDx=0;entryDy=0;endArrow=none;startFill=0;strokeWidth=1;strokeColor=#D5E8D4;fontStyle=0" parent="1" source="Zrw1n7WmzKHaE9fEEse0-27" target="Zrw1n7WmzKHaE9fEEse0-36" edge="1">
          <mxGeometry relative="1" as="geometry" />
        </mxCell>
        <mxCell id="Zrw1n7WmzKHaE9fEEse0-26" style="rounded=0;orthogonalLoop=1;jettySize=auto;html=1;exitX=0.5;exitY=0;exitDx=0;exitDy=0;entryX=0.5;entryY=1;entryDx=0;entryDy=0;endArrow=none;startFill=0;strokeWidth=1;strokeColor=#D5E8D4;fontStyle=0" parent="1" source="Zrw1n7WmzKHaE9fEEse0-27" target="Zrw1n7WmzKHaE9fEEse0-37" edge="1">
          <mxGeometry relative="1" as="geometry" />
        </mxCell>
        <mxCell id="Zrw1n7WmzKHaE9fEEse0-27" value="GPU2" style="rounded=1;whiteSpace=wrap;html=1;strokeWidth=1;fontStyle=0;fontSize=14;strokeColor=#6c8ebf;fillColor=none;shadow=0;glass=0;" parent="1" vertex="1">
          <mxGeometry x="3480" y="1335" width="120" height="40" as="geometry" />
        </mxCell>
        <mxCell id="Zrw1n7WmzKHaE9fEEse0-28" style="rounded=0;orthogonalLoop=1;jettySize=auto;html=1;exitX=0.5;exitY=0;exitDx=0;exitDy=0;entryX=0.5;entryY=1;entryDx=0;entryDy=0;endArrow=none;startFill=0;strokeWidth=2;strokeColor=#82b366;fillColor=#d5e8d4;fontStyle=0" parent="1" source="Zrw1n7WmzKHaE9fEEse0-31" target="Zrw1n7WmzKHaE9fEEse0-20" edge="1">
          <mxGeometry relative="1" as="geometry" />
        </mxCell>
        <mxCell id="Zrw1n7WmzKHaE9fEEse0-52" value="entry.c" style="edgeLabel;html=1;align=center;verticalAlign=middle;resizable=0;points=[];fontSize=12;fontStyle=1;fontColor=#990000;" parent="Zrw1n7WmzKHaE9fEEse0-28" vertex="1" connectable="0">
          <mxGeometry x="-0.1711" y="-1" relative="1" as="geometry">
            <mxPoint as="offset" />
          </mxGeometry>
        </mxCell>
        <mxCell id="Zrw1n7WmzKHaE9fEEse0-29" style="rounded=0;orthogonalLoop=1;jettySize=auto;html=1;exitX=0.5;exitY=0;exitDx=0;exitDy=0;entryX=0.5;entryY=1;entryDx=0;entryDy=0;endArrow=none;startFill=0;strokeWidth=2;strokeColor=#82b366;fillColor=#d5e8d4;fontStyle=0" parent="1" source="Zrw1n7WmzKHaE9fEEse0-31" target="Zrw1n7WmzKHaE9fEEse0-36" edge="1">
          <mxGeometry relative="1" as="geometry" />
        </mxCell>
        <mxCell id="Zrw1n7WmzKHaE9fEEse0-53" value="entry.b" style="edgeLabel;html=1;align=center;verticalAlign=middle;resizable=0;points=[];fontSize=12;fontStyle=1;fontColor=#990000;" parent="Zrw1n7WmzKHaE9fEEse0-29" vertex="1" connectable="0">
          <mxGeometry x="-0.1271" y="-2" relative="1" as="geometry">
            <mxPoint as="offset" />
          </mxGeometry>
        </mxCell>
        <mxCell id="Zrw1n7WmzKHaE9fEEse0-30" style="rounded=0;orthogonalLoop=1;jettySize=auto;html=1;exitX=0.5;exitY=0;exitDx=0;exitDy=0;entryX=0.5;entryY=1;entryDx=0;entryDy=0;endArrow=none;startFill=0;strokeWidth=2;strokeColor=#82b366;fillColor=#d5e8d4;fontStyle=0" parent="1" source="Zrw1n7WmzKHaE9fEEse0-31" target="Zrw1n7WmzKHaE9fEEse0-37" edge="1">
          <mxGeometry relative="1" as="geometry" />
        </mxCell>
        <mxCell id="Zrw1n7WmzKHaE9fEEse0-54" value="entry.a&lt;div&gt;entry.d&lt;/div&gt;" style="edgeLabel;html=1;align=center;verticalAlign=middle;resizable=0;points=[];fontSize=12;fontStyle=1;fontColor=#990000;" parent="Zrw1n7WmzKHaE9fEEse0-30" vertex="1" connectable="0">
          <mxGeometry x="0.5053" y="-1" relative="1" as="geometry">
            <mxPoint as="offset" />
          </mxGeometry>
        </mxCell>
        <mxCell id="Zrw1n7WmzKHaE9fEEse0-31" value="GPU3" style="rounded=1;whiteSpace=wrap;html=1;strokeWidth=2;fontStyle=0;fontSize=14;strokeColor=#6c8ebf;fillColor=#dae8fc;" parent="1" vertex="1">
          <mxGeometry x="3640" y="1335" width="120" height="40" as="geometry" />
        </mxCell>
        <mxCell id="Zrw1n7WmzKHaE9fEEse0-32" style="rounded=0;orthogonalLoop=1;jettySize=auto;html=1;exitX=0.5;exitY=0;exitDx=0;exitDy=0;entryX=0.5;entryY=1;entryDx=0;entryDy=0;endArrow=none;startFill=0;strokeWidth=1;strokeColor=#D5E8D4;fontColor=#D5E8D4;fontStyle=0" parent="1" source="Zrw1n7WmzKHaE9fEEse0-35" target="Zrw1n7WmzKHaE9fEEse0-36" edge="1">
          <mxGeometry relative="1" as="geometry" />
        </mxCell>
        <mxCell id="Zrw1n7WmzKHaE9fEEse0-33" style="rounded=0;orthogonalLoop=1;jettySize=auto;html=1;exitX=0.365;exitY=0.957;exitDx=0;exitDy=0;entryX=0.5;entryY=1;entryDx=0;entryDy=0;endArrow=none;startFill=0;strokeWidth=1;strokeColor=#D5E8D4;exitPerimeter=0;fontColor=#D5E8D4;fontStyle=0" parent="1" source="Zrw1n7WmzKHaE9fEEse0-39" target="Zrw1n7WmzKHaE9fEEse0-20" edge="1">
          <mxGeometry relative="1" as="geometry" />
        </mxCell>
        <mxCell id="Zrw1n7WmzKHaE9fEEse0-34" style="rounded=0;orthogonalLoop=1;jettySize=auto;html=1;exitX=0.5;exitY=0;exitDx=0;exitDy=0;entryX=0.5;entryY=1;entryDx=0;entryDy=0;endArrow=none;startFill=0;strokeWidth=1;strokeColor=#D5E8D4;fontColor=#D5E8D4;fontStyle=0" parent="1" source="Zrw1n7WmzKHaE9fEEse0-35" target="Zrw1n7WmzKHaE9fEEse0-37" edge="1">
          <mxGeometry relative="1" as="geometry" />
        </mxCell>
        <mxCell id="Zrw1n7WmzKHaE9fEEse0-35" value="GPU1" style="rounded=1;whiteSpace=wrap;html=1;strokeWidth=1;fontStyle=0;fontSize=14;strokeColor=#6c8ebf;fillColor=none;shadow=0;glass=0;" parent="1" vertex="1">
          <mxGeometry x="3320" y="1335" width="120" height="40" as="geometry" />
        </mxCell>
        <mxCell id="Zrw1n7WmzKHaE9fEEse0-36" value="NVSwitch" style="rounded=1;whiteSpace=wrap;html=1;strokeWidth=2;fontStyle=0;fontSize=14;strokeColor=#82b366;fillColor=#d5e8d4;" parent="1" vertex="1">
          <mxGeometry x="3400" y="1200" width="120" height="40" as="geometry" />
        </mxCell>
        <mxCell id="Zrw1n7WmzKHaE9fEEse0-37" value="NVSwitch" style="rounded=1;whiteSpace=wrap;html=1;strokeWidth=2;fontStyle=0;fontSize=14;strokeColor=#82b366;fillColor=#d5e8d4;" parent="1" vertex="1">
          <mxGeometry x="3560" y="1200" width="120" height="40" as="geometry" />
        </mxCell>
        <mxCell id="Zrw1n7WmzKHaE9fEEse0-38" value="GPU0" style="rounded=1;whiteSpace=wrap;html=1;strokeWidth=2;fontStyle=0;fontSize=14;strokeColor=#6c8ebf;fillColor=#dae8fc;" parent="1" vertex="1">
          <mxGeometry x="3160" y="1335" width="120" height="40" as="geometry" />
        </mxCell>
        <mxCell id="Zrw1n7WmzKHaE9fEEse0-40" value="" style="rounded=0;orthogonalLoop=1;jettySize=auto;html=1;exitX=0.5;exitY=0;exitDx=0;exitDy=0;endArrow=none;startFill=0;strokeWidth=2;strokeColor=#00CC00;fontStyle=0" parent="1" source="Zrw1n7WmzKHaE9fEEse0-38" target="Zrw1n7WmzKHaE9fEEse0-39" edge="1">
          <mxGeometry relative="1" as="geometry">
            <mxPoint x="3620" y="1240" as="targetPoint" />
            <mxPoint x="3220" y="1335" as="sourcePoint" />
          </mxGeometry>
        </mxCell>
        <mxCell id="Zrw1n7WmzKHaE9fEEse0-46" value="&lt;span&gt;entry.0&lt;/span&gt;&lt;div&gt;&lt;span&gt;entry.1&lt;/span&gt;&lt;/div&gt;&lt;div&gt;&lt;span&gt;entry.2&lt;/span&gt;&lt;/div&gt;&lt;div&gt;&lt;span&gt;entry.3&lt;/span&gt;&lt;/div&gt;" style="shape=singleArrow;direction=north;whiteSpace=wrap;html=1;arrowWidth=0.7494186046511458;arrowSize=0.2406976744186022;dashed=1;fillColor=#f5f5f5;strokeColor=#666666;fontColor=#990000;fontStyle=1" parent="1" vertex="1">
          <mxGeometry x="3180" y="1375" width="80" height="105" as="geometry" />
        </mxCell>
        <mxCell id="Zrw1n7WmzKHaE9fEEse0-51" value="entry.a&lt;div&gt;entry.b&lt;/div&gt;&lt;div&gt;entry.c&lt;/div&gt;&lt;div&gt;entry.d&lt;/div&gt;" style="shape=singleArrow;direction=north;whiteSpace=wrap;html=1;arrowWidth=0.7494186046511458;arrowSize=0.2406976744186022;dashed=1;fillColor=#f5f5f5;strokeColor=#666666;fontColor=#990000;fontStyle=1" parent="1" vertex="1">
          <mxGeometry x="3660" y="1375" width="80" height="105" as="geometry" />
        </mxCell>
        <mxCell id="qinPbVP6vC7m_gYAUoE5-1" value="&lt;ol&gt;&lt;li&gt;NVSwitch需要保证128份MCRID Table的数据一致性；&lt;/li&gt;&lt;li&gt;GPU写入Fabric Manager IO的entry应该可以被DF路由到不同的NVSwitch上；&lt;/li&gt;&lt;ul&gt;&lt;li&gt;&lt;span style=&quot;background-color: transparent; color: light-dark(rgb(0, 0, 0), rgb(255, 255, 255));&quot;&gt;上图中，GPU0和GPU3组成一个group；&lt;/span&gt;&lt;/li&gt;&lt;li&gt;&lt;span style=&quot;background-color: transparent; color: light-dark(rgb(0, 0, 0), rgb(255, 255, 255));&quot;&gt;GPU0和GPU3上的entry可以被DF路由到不同的链路上，达到负载均衡和利用带宽的目的；&lt;/span&gt;&lt;/li&gt;&lt;/ul&gt;&lt;/ol&gt;" style="rounded=1;whiteSpace=wrap;html=1;align=left;" vertex="1" parent="1">
          <mxGeometry x="3270" y="1510" width="390" height="109" as="geometry" />
        </mxCell>
      </root>
    </mxGraphModel>
  </diagram>
</mxfile>
